{
.appVersion = "3420";
.formatVersion = 3;
DisplayStrings = (
"LĽdďlľtť"
);
customParameters = (
{
name = panose;
value = (
0,
0,
0,
0,
0,
0,
0,
0,
0,
0
);
},
{
name = unicodeRanges;
value = (
0,
1,
2,
3,
5,
7,
29,
31,
32,
33,
35,
38,
45,
60,
62
);
},
{
name = fsType;
value = (
);
},
{
name = glyphOrder;
value = (
.notdef,
.null,
CR,
space,
LF,
exclam,
quotedbl,
numbersign,
dollar,
percent,
ampersand,
quotesingle,
parenleft,
parenright,
asterisk,
plus,
comma,
hyphen,
period,
slash,
zero,
one,
two,
three,
four,
five,
six,
seven,
eight,
nine,
colon,
semicolon,
less,
equal,
greater,
question,
at,
A,
B,
C,
D,
E,
F,
G,
H,
I,
J,
K,
L,
M,
N,
O,
P,
Q,
R,
S,
T,
U,
V,
W,
X,
Y,
Z,
bracketleft,
backslash,
bracketright,
underscore,
grave,
a,
b,
c,
d,
e,
f,
g,
h,
i,
j,
k,
l,
m,
n,
o,
p,
q,
r,
s,
t,
u,
v,
w,
x,
y,
z,
braceleft,
braceright,
asciitilde,
uni00A0,
exclamdown,
cent,
sterling,
currency,
yen,
brokenbar,
section,
dieresis,
copyright,
ordfeminine,
logicalnot,
uni00AD,
registered,
degree,
plusminus,
uni00B2,
uni00B3,
acute,
uni00B5,
paragraph,
cedilla,
uni00B9,
ordmasculine,
onequarter,
onehalf,
threequarters,
questiondown,
Agrave,
Aacute,
Acircumflex,
Atilde,
Adieresis,
Aring,
AE,
Ccedilla,
Egrave,
Eacute,
Ecircumflex,
Edieresis,
Igrave,
Iacute,
Icircumflex,
Idieresis,
Eth,
Ntilde,
Ograve,
Oacute,
Ocircumflex,
Otilde,
Odieresis,
multiply,
Oslash,
Ugrave,
Uacute,
Ucircumflex,
Udieresis,
Yacute,
Thorn,
germandbls,
agrave,
aacute,
acircumflex,
atilde,
adieresis,
aring,
ae,
ccedilla,
egrave,
eacute,
ecircumflex,
edieresis,
igrave,
iacute,
icircumflex,
idieresis,
eth,
ntilde,
ograve,
oacute,
ocircumflex,
otilde,
odieresis,
divide,
oslash,
ugrave,
uacute,
ucircumflex,
udieresis,
yacute,
thorn,
ydieresis,
dotlessi,
OE,
oe,
florin,
circumflex,
caron,
breve,
ogonek,
hungarumlaut,
uni03A9,
pi,
uni1EBD,
endash,
emdash,
quoteleft,
quoteright,
quotedblleft,
quotedblright,
quotedblbase,
dagger,
daggerdbl,
bullet,
ellipsis,
perthousand,
guilsinglleft,
guilsinglright,
uni2074,

glyphs = (
{
glyphname = exclam;
lastChange = "2024-11-23 05:05:47 +0000";
layers = (
{
layerId = "45F6A7D2-68A2-4980-BE0C-7C210C91EB90";
shapes = (
{
closed = 1;
nodes = (
(100,192,l),
(212,192,l),
(212,826,l),
(100,826,l)
);
},
{
closed = 1;
nodes = (
(212,0,l),
(212,112,l),
(100,112,l),
(100,0,l)
);
}
);
width = 312;
}
);
unicode = 33;
},
{
glyphname = quotedbl;
lastChange = "2024-04-27 01:28:24 +0000";
layers = (
{
layerId = "45F6A7D2-68A2-4980-BE0C-7C210C91EB90";
shapes = (
{
closed = 1;
nodes = (
(314,501,l),
(314,800,l),
(223,800,l),
(223,501,l)
);
},
{
closed = 1;
nodes = (
(141,501,l),
(141,800,l),
(50,800,l),
(50,501,l)
);
}
);
width = 364;
}
);
metricLeft = O;
metricRight = O;
unicode = 34;
},
{
glyphname = numbersign;
lastChange = "2024-02-16 04:22:05 +0000";
layers = (
{
layerId = "45F6A7D2-68A2-4980-BE0C-7C210C91EB90";
shapes = (
{
closed = 1;
nodes = (
(494,0,l),
(653,700,l),
(545,700,l),
(387,0,l)
);
},
{
closed = 1;
nodes = (
(659,164,l),
(687,266,l),
(96,265,l),
(70,162,l)
);
},
{
closed = 1;
nodes = (
(270,0,l),
(429,700,l),
(321,700,l),
(163,0,l)
);
},
{
closed = 1;
nodes = (
(703,396,l),
(731,498,l),
(140,497,l),
(114,394,l)
);
}
);
width = 791;
}
);
unicode = 35;
},
{
glyphname = dollar;
lastChange = "2024-11-23 05:05:47 +0000";
layers = (
{
anchors = (
{
name = bottom;
pos = (262,0);
},
{
name = top;
pos = (262,700);
}
);
layerId = "45F6A7D2-68A2-4980-BE0C-7C210C91EB90";
shapes = (
{
closed = 1;
nodes = (
(289,602,l),
(285,779,l),
(194,779,l),
(197,602,l)
);
},
{
closed = 1;
nodes = (
(289,-86,l),
(286,91,l),
(195,91,l),
(197,-86,l)
);
},
{
closed = 1;
nodes = (
(222,0,ls),
(362,2,o),
(477,65,o),
(482,219,cs),
(482,361,o),
(368,401,o),
(301,425,cs),
(183,466,o),
(157,499,o),
(157,589,c),
(450,590,l),
(450,700,l),
(42,700,l),
(42,602,ls),
(42,398,o),
(156,360,o),
(248,327,cs),
(301,308,o),
(363,297,o),
(366,220,cs),
(366,139,o),
(322,112,o),
(233,111,cs),
(48,109,l),
(48,-2,l)
);
}
);
width = 600;
}
);
unicode = 36;
},
{
glyphname = percent;
lastChange = "2024-11-23 05:05:47 +0000";
layers = (
{
layerId = "45F6A7D2-68A2-4980-BE0C-7C210C91EB90";
shapes = (
{
closed = 1;
nodes = (
(227,0,l),
(599,702,l),
(486,702,l),
(114,0,l)
);
},
{
closed = 1;
nodes = (
(619,-13,o),
(674,54,o),
(674,130,cs),
(674,154,ls),
(674,230,o),
(619,290,o),
(547,290,cs),
(475,290,o),
(421,230,o),
(421,154,cs),
(421,130,ls),
(421,54,o),
(475,-13,o),
(547,-13,cs)
);
},
{
closed = 1;
nodes = (
(515,58,o),
(492,93,o),
(492,132,cs),
(492,152,ls),
(492,192,o),
(515,218,o),
(547,218,cs),
(580,218,o),
(602,192,o),
(602,152,cs),
(602,132,ls),
(602,93,o),
(580,58,o),
(547,58,cs)
);
},
{
closed = 1;
nodes = (
(273,405,o),
(328,472,o),
(328,548,cs),
(328,572,ls),
(328,648,o),
(273,708,o),
(201,708,cs),
(129,708,o),
(75,648,o),
(75,572,cs),
(75,548,ls),
(75,472,o),
(129,405,o),
(201,405,cs)
);
},
{
closed = 1;
nodes = (
(169,476,o),
(146,511,o),
(146,550,cs),
(146,570,ls),
(146,610,o),
(169,636,o),
(201,636,cs),
(234,636,o),
(256,610,o),
(256,570,cs),
(256,550,ls),
(256,511,o),
(234,476,o),
(201,476,cs)
);
}
);
width = 734;
}
);
unicode = 37;
},
{
glyphname = ampersand;
lastChange = "2024-11-23 05:05:47 +0000";
layers = (
{
layerId = "45F6A7D2-68A2-4980-BE0C-7C210C91EB90";
shapes = (
{
closed = 1;
nodes = (
(311,-144,l),
(311,556,l),
(229,556,l),
(229,-144,l)
);
},
{
closed = 1;
nodes = (
(472,103,l),
(289,103,ls),
(197,103,o),
(147,148,o),
(147,214,cs),
(147,295,o),
(201,342,o),
(312,342,cs),
(395,342,l),
(395,449,l),
(341,449,o),
(241,449,o),
(173,422,cs),
(91,390,o),
(42,325,o),
(42,221,cs),
(42,64,o),
(157,-4,o),
(300,-4,cs),
(472,-4,l)
);
},
{
closed = 1;
nodes = (
(395,449,l),
(223,449,o),
(161,495,o),
(160,598,c),
(471,598,l),
(471,700,l),
(42,700,l),
(42,351,o),
(240,349,o),
(380,349,cs),
(395,349,l)
);
}
);
width = 532;
}
);
metricLeft = S;
metricRight = E;
unicode = 38;
},
{
glyphname = quotesingle;
lastChange = "2024-02-16 04:22:05 +0000";
layers = (
{
layerId = "45F6A7D2-68A2-4980-BE0C-7C210C91EB90";
shapes = (
{
closed = 1;
nodes = (
(141,501,l),
(141,800,l),
(50,800,l),
(50,501,l)
);
}
);
width = 191;
}
);
metricLeft = O;
metricRight = O;
unicode = 39;
},
{
glyphname = parenleft;
lastChange = "2024-04-06 08:03:50 +0000";
layers = (
{
layerId = "45F6A7D2-68A2-4980-BE0C-7C210C91EB90";
shapes = (
{
closed = 1;
nodes = (
(322,-57,l),
(322,-57,o),
(173,-36,o),
(173,121,cs),
(173,453,ls),
(173,610,o),
(322,631,o),
(322,631,c),
(322,740,l),
(225,738,o),
(73,676,o),
(71,458,cs),
(70,380,o),
(70,200,o),
(71,116,cs),
(73,-102,o),
(225,-164,o),
(322,-166,c)
);
}
);
width = 352;
}
);
metricLeft = "=H";
metricRight = F;
unicode = 40;
},
{
glyphname = parenright;
lastChange = "2024-04-06 08:03:50 +0000";
layers = (
{
layerId = "45F6A7D2-68A2-4980-BE0C-7C210C91EB90";
shapes = (
{
closed = 1;
nodes = (
(127,-164,o),
(279,-102,o),
(281,116,cs),
(282,200,o),
(282,380,o),
(281,458,cs),
(279,676,o),
(127,738,o),
(30,740,c),
(30,631,l),
(30,631,o),
(179,610,o),
(179,453,cs),
(179,121,ls),
(179,-36,o),
(30,-57,o),
(30,-57,c),
(30,-166,l)
);
}
);
width = 352;
}
);
metricLeft = "=|F";
metricRight = H;
unicode = 41;
},
{
glyphname = asterisk;
lastChange = "2025-07-09 03:08:48 +0000";
layers = (
{
layerId = "45F6A7D2-68A2-4980-BE0C-7C210C91EB90";
shapes = (
{
closed = 1;
nodes = (
(485,591,l),
(442,665,l),
(30,429,l),
(74,357,l)
);
},
{
closed = 1;
nodes = (
(299,284,l),
(297,738,l),
(217,738,l),
(218,284,l)
);
},
{
closed = 1;
nodes = (
(485,429,l),
(73,665,l),
(30,591,l),
(441,357,l)
);
}
);
width = 515;
}
);
metricLeft = "=|F";
metricRight = F;
unicode = 42;
},
{
glyphname = plus;
lastChange = "2024-02-16 04:22:05 +0000";
layers = (
{
layerId = "45F6A7D2-68A2-4980-BE0C-7C210C91EB90";
shapes = (
{
closed = 1;
nodes = (
(354,39,l),
(354,485,l),
(244,485,l),
(244,39,l)
);
},
{
closed = 1;
nodes = (
(522,211,l),
(522,313,l),
(76,313,l),
(76,211,l)
);
}
);
width = 600;
}
);
unicode = 43;
},
{
glyphname = comma;
lastChange = "2024-02-16 04:22:05 +0000";
layers = (
{
layerId = "45F6A7D2-68A2-4980-BE0C-7C210C91EB90";
shapes = (
{
closed = 1;
nodes = (
(116,-127,o),
(212,-50,o),
(212,142,c),
(107,143,l),
(107,-7,o),
(53,-55,o),
(10,-60,c),
(10,-136,l)
);
}
);
width = 262;
}
);
metricRight = O;
unicode = 44;
},
{
glyphname = hyphen;
lastChange = "2024-02-16 04:22:05 +0000";
layers = (
{
layerId = "45F6A7D2-68A2-4980-BE0C-7C210C91EB90";
shapes = (
{
closed = 1;
nodes = (
(414,262,l),
(414,372,l),
(70,372,l),
(70,262,l)
);
}
);
width = 474;
}
);
unicode = 45;
},
{
glyphname = period;
lastChange = "2025-07-10 22:32:12 +0000";
layers = (
{
layerId = "45F6A7D2-68A2-4980-BE0C-7C210C91EB90";
shapes = (
{
closed = 1;
nodes = (
(174,1,l),
(174,135,l),
(40,135,l),
(40,1,l)
);
}
);
width = 194;
}
);
metricRight = t;
unicode = 46;
},
{
glyphname = slash;
lastChange = "2024-02-16 04:22:05 +0000";
layers = (
{
layerId = "45F6A7D2-68A2-4980-BE0C-7C210C91EB90";
shapes = (
{
closed = 1;
nodes = (
(118,-117,l),
(380,698,l),
(262,698,l),
(0,-117,l)
);
}
);
width = 430;
}
);
metricRight = D;
unicode = 47;
},
{
glyphname = zero;
lastChange = "2024-11-23 05:05:47 +0000";
layers = (
{
layerId = "45F6A7D2-68A2-4980-BE0C-7C210C91EB90";
shapes = (
{
closed = 1;
nodes = (
(476,-4,o),
(584,139,o),
(584,314,cs),
(584,388,ls),
(584,561,o),
(478,705,o),
(317,705,cs),
(156,705,o),
(50,561,o),
(50,388,cs),
(50,314,ls),
(50,139,o),
(158,-4,o),
(317,-4,cs)
);
},
{
closed = 1;
nodes = (
(212,101,o),
(157,194,o),
(157,313,cs),
(157,389,ls),
(157,510,o),
(213,601,o),
(317,601,cs),
(421,601,o),
(477,510,o),
(477,389,cs),
(477,313,ls),
(477,194,o),
(422,101,o),
(317,101,cs)
);
},
{
closed = 1;
nodes = (
(320,261,l),
(409,350,l),
(320,439,l),
(231,350,l)
);
}
);
width = 634;
}
);
metricLeft = O;
metricRight = O;
unicode = 48;
},
{
glyphname = one;
lastChange = "2024-02-19 04:04:58 +0000";
layers = (
{
layerId = "45F6A7D2-68A2-4980-BE0C-7C210C91EB90";
shapes = (
{
closed = 1;
nodes = (
(276,0,l),
(277,194,l),
(277,427,ls),
(277,645,o),
(147,707,o),
(60,706,c),
(60,597,l),
(94,592,o),
(161,583,o),
(160,426,cs),
(160,0,l)
);
}
);
width = 347;
}
);
metricRight = H;
unicode = 49;
},
{
glyphname = two;
lastChange = "2024-04-06 01:54:28 +0000";
layers = (
{
layerId = "45F6A7D2-68A2-4980-BE0C-7C210C91EB90";
shapes = (
{
closed = 1;
nodes = (
(505,0,l),
(505,107,l),
(160,108,l),
(161,228,o),
(255,298,o),
(397,366,cs),
(489,414,l),
(489,662,o),
(259,703,o),
(117,701,cs),
(47,700,l),
(47,590,l),
(117,590,ls),
(244,590,o),
(356,574,o),
(369,470,c),
(139,355,o),
(40,268,o),
(40,98,cs),
(40,0,l)
);
}
);
width = 565;
}
);
metricLeft = Z;
metricRight = Z;
unicode = 50;
},
{
glyphname = three;
lastChange = "2025-07-10 22:33:01 +0000";
layers = (
{
layerId = "45F6A7D2-68A2-4980-BE0C-7C210C91EB90";
shapes = (
{
closed = 1;
nodes = (
(202,-4,ls),
(345,-4,o),
(460,64,o),
(460,221,cs),
(460,325,o),
(411,390,o),
(329,422,cs),
(261,449,o),
(161,449,o),
(107,449,c),
(107,347,l),
(190,347,ls),
(301,347,o),
(355,295,o),
(355,214,cs),
(355,148,o),
(305,103,o),
(213,103,cs),
(30,103,l),
(30,-4,l)
);
},
{
closed = 1;
nodes = (
(122,349,ls),
(262,349,o),
(460,367,o),
(460,700,c),
(31,700,l),
(31,598,l),
(342,598,l),
(341,495,o),
(279,449,o),
(107,449,c),
(107,349,l)
);
}
);
width = 502;
}
);
metricLeft = "=|F";
metricRight = n;
unicode = 51;
},
{
glyphname = four;
lastChange = "2025-07-10 22:32:12 +0000";
layers = (
{
layerId = "45F6A7D2-68A2-4980-BE0C-7C210C91EB90";
shapes = (
{
closed = 1;
nodes = (
(510,0,l),
(510,700,l),
(408,700,ls),
(229,700,o),
(40,587,o),
(40,335,cs),
(40,204,l),
(394,204,l),
(394,0,l)
);
},
{
closed = 1;
nodes = (
(156,330,ls),
(156,509,o),
(250,576,o),
(394,590,c),
(394,311,l),
(156,311,l)
);
}
);
width = 552;
}
);
metricLeft = Y;
metricRight = n;
unicode = 52;
},
{
glyphname = five;
lastChange = "2024-11-23 05:05:47 +0000";
layers = (
{
layerId = "45F6A7D2-68A2-4980-BE0C-7C210C91EB90";
shapes = (
{
closed = 1;
nodes = (
(176,346,l),
(176,448,ls),
(176,535,o),
(191,594,o),
(383,594,c),
(374,701,l),
(226,701,o),
(42,679,o),
(68,346,c)
);
},
{
closed = 1;
nodes = (
(468,594,l),
(468,701,l),
(359,701,l),
(359,594,l)
);
},
{
closed = 1;
nodes = (
(214,0,ls),
(357,0,o),
(472,68,o),
(472,225,cs),
(472,329,o),
(423,394,o),
(341,426,cs),
(273,453,o),
(173,453,o),
(119,453,c),
(119,346,l),
(202,346,ls),
(313,346,o),
(367,299,o),
(367,218,cs),
(367,152,o),
(317,107,o),
(225,107,cs),
(42,107,l),
(42,0,l)
);
}
);
width = 513;
}
);
metricLeft = S;
metricRight = S;
unicode = 53;
},
{
glyphname = six;
lastChange = "2025-07-10 22:32:12 +0000";
layers = (
{
layerId = "45F6A7D2-68A2-4980-BE0C-7C210C91EB90";
shapes = (
{
closed = 1;
nodes = (
(253,725,o),
(77,637,o),
(70,391,c),
(70,0,l),
(182,0,l),
(182,400,ls),
(182,565,o),
(304,617,o),
(420,626,c),
(420,735,l)
);
},
{
closed = 1;
nodes = (
(265,0,ls),
(408,0,o),
(523,68,o),
(523,225,cs),
(523,329,o),
(474,394,o),
(392,426,cs),
(324,453,o),
(224,453,o),
(170,453,c),
(170,346,l),
(253,346,ls),
(364,346,o),
(418,299,o),
(418,218,cs),
(418,152,o),
(368,107,o),
(276,107,cs),
(93,107,l),
(93,0,l)
);
}
);
width = 565;
}
);
metricLeft = N;
metricRight = o;
unicode = 54;
},
{
glyphname = seven;
lastChange = "2024-04-06 08:03:43 +0000";
layers = (
{
layerId = "45F6A7D2-68A2-4980-BE0C-7C210C91EB90";
shapes = (
{
closed = 1;
nodes = (
(211,0,l),
(520,700,l),
(402,700,l),
(93,0,l)
);
},
{
closed = 1;
nodes = (
(415,590,l),
(507,700,l),
(30,700,l),
(30,590,l)
);
}
);
width = 550;
}
);
metricLeft = "=|F";
metricRight = F;
unicode = 55;
},
{
glyphname = eight;
lastChange = "2025-07-10 22:32:12 +0000";
layers = (
{
layerId = "45F6A7D2-68A2-4980-BE0C-7C210C91EB90";
shapes = (
{
closed = 1;
nodes = (
(432,-6,o),
(540,76,o),
(540,226,cs),
(540,330,o),
(491,382,o),
(405,414,c),
(428,424,o),
(441,441,o),
(459,457,cs),
(519,511,o),
(533,600,o),
(532,700,c),
(295,700,l),
(295,-6,l)
);
},
{
closed = 1;
nodes = (
(202,97,o),
(163,148,o),
(163,228,cs),
(163,302,o),
(204,354,o),
(295,358,c),
(295,97,l)
);
},
{
closed = 1;
nodes = (
(295,700,l),
(58,700,l),
(57,600,o),
(71,511,o),
(131,457,cs),
(149,441,o),
(162,424,o),
(185,414,c),
(99,382,o),
(50,330,o),
(50,226,cs),
(50,76,o),
(158,-6,o),
(295,-6,c)
);
},
{
closed = 1;
nodes = (
(295,358,l),
(386,354,o),
(427,302,o),
(427,228,cs),
(427,148,o),
(388,97,o),
(295,97,c)
);
},
{
closed = 1;
nodes = (
(237,471,o),
(187,531,o),
(178,593,c),
(295,593,l),
(295,454,l)
);
},
{
closed = 1;
nodes = (
(295,593,l),
(412,593,l),
(403,531,o),
(353,471,o),
(295,454,c)
);
}
);
width = 582;
}
);
metricLeft = o;
metricRight = o;
unicode = 56;
},
{
glyphname = nine;
lastChange = "2025-07-10 22:32:12 +0000";
layers = (
{
layerId = "45F6A7D2-68A2-4980-BE0C-7C210C91EB90";
shapes = (
{
closed = 1;
nodes = (
(338,-25,o),
(514,63,o),
(521,309,c),
(521,700,l),
(409,700,l),
(409,300,ls),
(409,135,o),
(287,83,o),
(171,74,c),
(171,-35,l)
);
},
{
closed = 1;
nodes = (
(326,700,ls),
(183,700,o),
(68,632,o),
(68,475,cs),
(68,371,o),
(117,306,o),
(199,274,cs),
(267,247,o),
(367,247,o),
(421,247,c),
(421,354,l),
(338,354,ls),
(227,354,o),
(173,401,o),
(173,482,cs),
(173,548,o),
(223,593,o),
(315,593,cs),
(498,593,l),
(498,700,l)
);
}
);
width = 571;
}
);
metricLeft = n;
metricRight = N;
unicode = 57;
},
{
glyphname = colon;
lastChange = "2025-07-08 23:58:41 +0000";
layers = (
{
layerId = "45F6A7D2-68A2-4980-BE0C-7C210C91EB90";
shapes = (
{
closed = 1;
nodes = (
(191,356,l),
(191,477,l),
(70,477,l),
(70,356,l)
);
},
{
closed = 1;
nodes = (
(191,0,l),
(191,121,l),
(70,121,l),
(70,0,l)
);
}
);
width = 261;
}
);
metricLeft = H;
metricRight = H;
unicode = 58;
},
{
glyphname = semicolon;
lastChange = "2025-07-08 23:57:53 +0000";
layers = (
{
layerId = "45F6A7D2-68A2-4980-BE0C-7C210C91EB90";
shapes = (
{
closed = 1;
nodes = (
(151,-108,o),
(260,-49,o),
(260,201,c),
(139,202,l),
(139,30,o),
(89,-25,o),
(30,-31,c),
(30,-118,l)
);
},
{
closed = 1;
nodes = (
(260,356,l),
(260,477,l),
(139,477,l),
(139,356,l)
);
}
);
width = 290;
}
);
metricLeft = "=|F";
metricRight = F;
unicode = 59;
},
{
glyphname = less;
lastChange = "2024-04-27 03:24:34 +0000";
layers = (
{
layerId = "45F6A7D2-68A2-4980-BE0C-7C210C91EB90";
shapes = (
{
closed = 1;
nodes = (
(545,144,l),
(178,311,l),
(545,477,l),
(545,562,l),
(55,352,l),
(55,269,l),
(545,59,l)
);
}
);
width = 600;
}
);
unicode = 60;
},
{
glyphname = equal;
lastChange = "2024-04-27 03:24:58 +0000";
layers = (
{
layerId = "45F6A7D2-68A2-4980-BE0C-7C210C91EB90";
shapes = (
{
closed = 1;
nodes = (
(548,311,l),
(548,401,l),
(49,400,l),
(49,309,l)
);
},
{
closed = 1;
nodes = (
(551,108,l),
(551,198,l),
(52,197,l),
(52,106,l)
);
}
);
width = 600;
}
);
unicode = 61;
},
{
glyphname = greater;
lastChange = "2024-04-27 03:25:16 +0000";
layers = (
{
layerId = "45F6A7D2-68A2-4980-BE0C-7C210C91EB90";
shapes = (
{
closed = 1;
nodes = (
(545,269,l),
(545,352,l),
(55,562,l),
(55,477,l),
(422,311,l),
(55,144,l),
(55,59,l)
);
}
);
width = 600;
}
);
unicode = 62;
},
{
glyphname = question;
lastChange = "2024-11-23 05:05:47 +0000";
layers = (
{
layerId = "45F6A7D2-68A2-4980-BE0C-7C210C91EB90";
shapes = (
{
closed = 1;
nodes = (
(193,194,l),
(193,372,o),
(388,383,o),
(388,594,cs),
(388,751,o),
(273,819,o),
(130,819,cs),
(45,819,l),
(45,714,l),
(141,714,ls),
(233,714,o),
(283,682,o),
(283,599,cs),
(283,456,o),
(87,406,o),
(87,194,c)
);
},
{
closed = 1;
nodes = (
(85,110,l),
(85,0,l),
(195,0,l),
(195,110,l)
);
}
);
width = 438;
}
);
metricLeft = "=|C";
metricRight = J;
unicode = 63;
},
{
glyphname = at;
lastChange = "2024-02-16 04:22:05 +0000";
layers = (
{
layerId = "45F6A7D2-68A2-4980-BE0C-7C210C91EB90";
shapes = (
{
closed = 1;
nodes = (
(432,-131,l),
(432,-42,l),
(414,-42,ls),
(266,-42,o),
(133,103,o),
(136,284,cs),
(133,464,o),
(266,618,o),
(414,618,cs),
(451,618,ls),
(599,618,o),
(736,466,o),
(732,285,cs),
(733,219,o),
(718,164,o),
(671,164,cs),
(634,164,o),
(613,194,o),
(598,232,c),
(606,355,o),
(555,463,o),
(432,463,cs),
(327,463,o),
(263,396,o),
(263,264,cs),
(263,158,o),
(325,83,o),
(432,83,cs),
(491,83,o),
(531,111,o),
(556,157,c),
(583,109,o),
(634,84,o),
(672,84,cs),
(768,84,o),
(818,165,o),
(818,267,cs),
(818,306,ls),
(818,509,o),
(649,699,o),
(444,699,cs),
(421,699,ls),
(216,699,o),
(50,509,o),
(50,306,cs),
(50,262,ls),
(50,59,o),
(216,-131,o),
(421,-131,cs)
);
},
{
closed = 1;
nodes = (
(374,156,o),
(340,205,o),
(339,274,cs),
(340,341,o),
(374,390,o),
(429,390,cs),
(483,390,o),
(518,342,o),
(521,274,c),
(519,205,o),
(483,156,o),
(429,156,cs)
);
}
);
width = 868;
}
);
metricLeft = O;
metricRight = O;
unicode = 64;
},
{
glyphname = A;
kernLeft = L;
lastChange = "2024-11-23 05:05:47 +0000";
layers = (
{
anchors = (
{
name = bottom;
pos = (320,0);
},
{
name = ogonek;
pos = (576,10);
},
{
name = top;
pos = (320,700);
}
);
layerId = "45F6A7D2-68A2-4980-BE0C-7C210C91EB90";
shapes = (
{
closed = 1;
nodes = (
(186,0,l),
(186,233,l),
(555,233,l),
(555,343,l),
(186,343,l),
(186,699,l),
(70,700,l),
(70,0,l)
);
},
{
closed = 1;
nodes = (
(590,0,l),
(590,365,ls),
(590,641,o),
(361,700,o),
(179,700,cs),
(119,700,l),
(119,598,l),
(179,598,ls),
(309,598,o),
(474,568,o),
(474,364,cs),
(474,0,l)
);
}
);
width = 640;
}
);
metricLeft = "=H";
metricRight = "=N";
unicode = 65;
},
{
glyphname = B;
lastChange = "2024-02-22 03:58:56 +0000";
layers = (
{
anchors = (
{
name = bottom;
pos = (303,0);
},
{
name = center;
pos = (303,350);
},
{
name = top;
pos = (303,700);
}
);
layerId = "45F6A7D2-68A2-4980-BE0C-7C210C91EB90";
shapes = (
{
closed = 1;
nodes = (
(297,0,ls),
(440,0,o),
(555,68,o),
(555,225,cs),
(555,336,o),
(498,384,o),
(412,416,c),
(522,454,o),
(543,570,o),
(542,700,c),
(70,700,l),
(70,0,l)
);
},
{
closed = 1;
nodes = (
(186,331,l),
(297,331,ls),
(381,331,o),
(426,298,o),
(426,219,cs),
(426,140,o),
(381,107,o),
(297,107,cs),
(186,107,l)
);
},
{
closed = 1;
nodes = (
(186,590,l),
(418,590,l),
(418,472,o),
(280,442,o),
(186,436,c)
);
}
);
width = 605;
}
);
metricLeft = "=H";
metricRight = "=D";
unicode = 66;
},
{
glyphname = C;
kernLeft = HC;
lastChange = "2024-04-05 23:42:30 +0000";
layers = (
{
anchors = (
{
name = bottom;
pos = (284,0);
},
{
name = top;
pos = (284,700);
}
);
layerId = "45F6A7D2-68A2-4980-BE0C-7C210C91EB90";
shapes = (
{
closed = 1;
nodes = (
(521,0,l),
(521,107,l),
(461,107,ls),
(331,107,o),
(166,132,o),
(166,336,cs),
(166,590,l),
(522,590,l),
(522,700,l),
(50,700,l),
(50,335,ls),
(50,59,o),
(283,0,o),
(461,0,cs)
);
}
);
width = 567;
}
);
metricLeft = "=O";
unicode = 67;
},
{
glyphname = D;
lastChange = "2024-02-22 03:58:56 +0000";
layers = (
{
anchors = (
{
name = bottom;
pos = (323,0);
},
{
name = center;
pos = (323,350);
},
{
name = top;
pos = (323,700);
}
);
layerId = "45F6A7D2-68A2-4980-BE0C-7C210C91EB90";
shapes = (
{
closed = 1;
nodes = (
(186,0,ls),
(366,0,o),
(596,60,o),
(596,335,cs),
(596,365,ls),
(592,640,o),
(366,697,o),
(186,699,cs),
(70,700,l),
(70,0,l)
);
},
{
closed = 1;
nodes = (
(186,592,l),
(316,592,o),
(479,567,o),
(479,364,cs),
(479,336,ls),
(479,133,o),
(316,107,o),
(186,107,c)
);
}
);
width = 646;
}
);
metricLeft = "=H";
metricRight = "=O";
unicode = 68;
},
{
glyphname = E;
lastChange = "2024-04-06 01:21:23 +0000";
layers = (
{
anchors = (
{
name = bottom;
pos = (291,0);
},
{
name = ogonek;
pos = (524,10);
},
{
name = top;
pos = (291,700);
},
{
name = topleft;
pos = (20,700);
}
);
layerId = "45F6A7D2-68A2-4980-BE0C-7C210C91EB90";
shapes = (
{
closed = 1;
nodes = (
(521,0,l),
(521,102,l),
(461,102,ls),
(331,102,o),
(166,132,o),
(166,336,cs),
(166,355,l),
(451,355,l),
(451,457,l),
(166,457,l),
(166,593,l),
(522,593,l),
(522,700,l),
(50,700,l),
(50,335,ls),
(50,59,o),
(279,0,o),
(461,0,cs)
);
}
);
width = 582;
}
);
metricLeft = U;
metricRight = "=V";
unicode = 69;
},
{
glyphname = F;
lastChange = "2024-04-06 01:22:39 +0000";
layers = (
{
anchors = (
{
name = bottom;
pos = (289,0);
},
{
name = top;
pos = (289,700);
}
);
layerId = "45F6A7D2-68A2-4980-BE0C-7C210C91EB90";
shapes = (
{
closed = 1;
nodes = (
(186,0,l),
(186,352,l),
(477,352,l),
(477,459,l),
(186,459,l),
(186,590,l),
(532,590,l),
(532,700,l),
(70,700,l),
(70,0,l)
);
}
);
width = 562;
}
);
metricLeft = "=H";
unicode = 70;
},
{
glyphname = G;
lastChange = "2024-02-22 03:58:56 +0000";
layers = (
{
anchors = (
{
name = bottom;
pos = (292,0);
},
{
name = top;
pos = (292,700);
}
);
layerId = "45F6A7D2-68A2-4980-BE0C-7C210C91EB90";
shapes = (
{
closed = 1;
nodes = (
(523,0,l),
(523,293,l),
(413,293,l),
(413,107,l),
(294,114,o),
(166,157,o),
(166,336,cs),
(166,590,l),
(522,590,l),
(522,700,l),
(50,700,l),
(50,335,ls),
(50,83,o),
(242,0,o),
(413,0,cs)
);
}
);
width = 583;
}
);
metricLeft = U;
metricRight = E;
unicode = 71;
},
{
glyphname = H;
lastChange = "2024-02-22 03:58:56 +0000";
layers = (
{
anchors = (
{
name = bottom;
pos = (314,0);
},
{
name = center;
pos = (314,350);
},
{
name = top;
pos = (314,700);
},
{
name = topleft;
pos = (20,700);
}
);
layerId = "45F6A7D2-68A2-4980-BE0C-7C210C91EB90";
shapes = (
{
closed = 1;
nodes = (
(186,0,l),
(186,305,l),
(442,305,l),
(442,0,l),
(558,0,l),
(558,700,l),
(442,700,l),
(442,415,l),
(186,415,l),
(186,700,l),
(70,700,l),
(70,0,l)
);
}
);
width = 628;
}
);
unicode = 72;
},
{
glyphname = I;
lastChange = "2024-04-05 23:45:57 +0000";
layers = (
{
anchors = (
{
name = bottom;
pos = (128,0);
},
{
name = ogonek;
pos = (230,10);
},
{
name = top;
pos = (128,700);
},
{
name = topleft;
pos = (20,700);
}
);
layerId = "45F6A7D2-68A2-4980-BE0C-7C210C91EB90";
shapes = (
{
closed = 1;
nodes = (
(186,0,l),
(186,700,l),
(70,700,l),
(70,0,l)
);
}
);
width = 256;
}
);
metricLeft = "=H";
metricRight = "=H";
unicode = 73;
},
{
glyphname = J;
lastChange = "2024-02-22 04:49:55 +0000";
layers = (
{
anchors = (
{
name = bottom;
pos = (225,0);
},
{
name = top;
pos = (342,700);
}
);
layerId = "45F6A7D2-68A2-4980-BE0C-7C210C91EB90";
shapes = (
{
closed = 1;
nodes = (
(212,9,o),
(392,87,o),
(399,333,c),
(399,700,l),
(283,700,l),
(283,334,ls),
(283,162,o),
(161,117,o),
(45,108,c),
(45,-1,l)
);
}
);
width = 449;
}
);
metricLeft = "=|C";
metricRight = D;
unicode = 74;
},
{
glyphname = K;
lastChange = "2024-11-23 05:05:47 +0000";
layers = (
{
anchors = (
{
name = bottom;
pos = (322,0);
},
{
name = top;
pos = (322,700);
}
);
background = {
shapes = (
{
closed = 1;
nodes = (
(186,0,l),
(186,303,l),
(197,306,o),
(209,310,o),
(220,315,c),
(450,0,l),
(596,0,l),
(327,369,l),
(451,447,o),
(542,575,o),
(542,700,c),
(429,700,l),
(425,584,o),
(307,460,o),
(186,412,c),
(186,700,l),
(70,700,l),
(70,0,l)
);
}
);
};
layerId = "45F6A7D2-68A2-4980-BE0C-7C210C91EB90";
shapes = (
{
closed = 1;
nodes = (
(186,0,l),
(186,295,l),
(425,359,o),
(542,535,o),
(542,700,c),
(429,700,l),
(425,584,o),
(340,437,o),
(186,413,c),
(186,700,l),
(70,700,l),
(70,0,l)
);
},
{
closed = 1;
nodes = (
(584,0,l),
(383,398,l),
(251,398,l),
(452,0,l)
);
}
);
width = 614;
}
);
metricLeft = H;
metricRight = F;
unicode = 75;
},
{
glyphname = L;
kernRight = L;
lastChange = "2025-07-18 13:55:42 +0000";
layers = (
{
anchors = (
{
name = bottom;
pos = (283,0);
},
{
name = center;
pos = (283,350);
},
{
name = top;
pos = (283,700);
},
{
name = topright;
pos = (285,746);
}
);
layerId = "45F6A7D2-68A2-4980-BE0C-7C210C91EB90";
shapes = (
{
closed = 1;
nodes = (
(520,0,l),
(520,110,l),
(187,110,l),
(187,700,l),
(70,700,l),
(70,0,l)
);
}
);
width = 550;
}
);
metricRight = F;
unicode = 76;
},
{
glyphname = M;
lastChange = "2024-11-23 05:05:47 +0000";
layers = (
{
anchors = (
{
name = bottom;
pos = (512,0);
},
{
name = top;
pos = (512,700);
}
);
background = {
shapes = (
{
closed = 1;
nodes = (
(890,0,l),
(890,84,o),
(890,273,o),
(890,364,cs),
(890,610,o),
(689,700,o),
(529,700,c),
(422,700,l),
(422,604,l),
(373,663,o),
(278,700,o),
(181,700,c),
(70,700,l),
(70,0,l),
(186,0,l),
(186,587,l),
(302,587,o),
(422,535,o),
(422,363,cs),
(422,0,l),
(535,0,l),
(535,580,l),
(651,580,o),
(774,535,o),
(774,363,cs),
(774,0,l)
);
}
);
};
layerId = "45F6A7D2-68A2-4980-BE0C-7C210C91EB90";
shapes = (
{
closed = 1;
nodes = (
(578,0,l),
(578,357,ls),
(578,633,o),
(349,700,o),
(167,700,cs),
(107,700,l),
(107,598,l),
(167,598,ls),
(297,598,o),
(466,560,o),
(466,356,cs),
(466,0,l)
);
},
{
closed = 1;
nodes = (
(186,0,l),
(185,699,l),
(70,700,l),
(70,0,l)
);
},
{
closed = 1;
nodes = (
(578,0,l),
(577,699,l),
(466,700,l),
(466,0,l)
);
},
{
closed = 1;
nodes = (
(974,0,l),
(974,365,ls),
(974,641,o),
(745,700,o),
(563,700,cs),
(503,700,l),
(503,598,l),
(563,598,ls),
(693,598,o),
(858,568,o),
(858,364,cs),
(858,0,l)
);
}
);
width = 1024;
}
);
metricLeft = "=H";
metricRight = "=N";
unicode = 77;
},
{
glyphname = N;
lastChange = "2024-11-23 05:05:47 +0000";
layers = (
{
anchors = (
{
name = bottom;
pos = (320,0);
},
{
name = top;
pos = (320,700);
}
);
layerId = "45F6A7D2-68A2-4980-BE0C-7C210C91EB90";
shapes = (
{
closed = 1;
nodes = (
(186,0,l),
(185,699,l),
(70,700,l),
(70,0,l)
);
},
{
closed = 1;
nodes = (
(590,0,l),
(590,365,ls),
(590,641,o),
(361,700,o),
(179,700,cs),
(119,700,l),
(119,598,l),
(179,598,ls),
(309,598,o),
(474,568,o),
(474,364,cs),
(474,0,l)
);
}
);
width = 640;
}
);
metricLeft = "=H";
metricRight = "=D";
unicode = 78;
},
{
glyphname = O;
lastChange = "2024-11-23 05:05:47 +0000";
layers = (
{
anchors = (
{
name = bottom;
pos = (346,0);
},
{
name = center;
pos = (346,350);
},
{
name = ogonek;
pos = (623,10);
},
{
name = top;
pos = (346,700);
},
{
name = topleft;
pos = (20,700);
},
{
name = topright;
pos = (672,700);
}
);
layerId = "45F6A7D2-68A2-4980-BE0C-7C210C91EB90";
shapes = (
{
closed = 1;
nodes = (
(514,-6,o),
(642,139,o),
(642,318,cs),
(642,384,ls),
(642,561,o),
(514,707,o),
(346,707,cs),
(177,707,o),
(50,561,o),
(50,384,cs),
(50,318,ls),
(50,139,o),
(177,-6,o),
(346,-6,cs)
);
},
{
closed = 1;
nodes = (
(235,105,o),
(170,196,o),
(170,318,cs),
(170,384,ls),
(170,510,o),
(235,596,o),
(346,596,cs),
(457,596,o),
(522,510,o),
(522,384,cs),
(522,318,ls),
(522,196,o),
(457,105,o),
(346,105,cs)
);
}
);
width = 692;
}
);
unicode = 79;
},
{
glyphname = P;
lastChange = "2024-04-05 23:45:32 +0000";
layers = (
{
anchors = (
{
name = bottom;
pos = (291,0);
},
{
name = top;
pos = (291,700);
}
);
layerId = "45F6A7D2-68A2-4980-BE0C-7C210C91EB90";
shapes = (
{
closed = 1;
nodes = (
(186,0,l),
(188,267,l),
(244,267,o),
(563,317,o),
(552,700,c),
(70,700,l),
(70,0,l)
);
},
{
closed = 1;
nodes = (
(186,597,l),
(439,597,l),
(439,507,o),
(328,378,o),
(186,378,c)
);
}
);
width = 582;
}
);
metricLeft = "=H";
unicode = 80;
},
{
glyphname = Q;
kernLeft = LO;
lastChange = "2024-04-06 00:57:45 +0000";
layers = (
{
anchors = (
{
name = bottom;
pos = (353,0);
},
{
name = top;
pos = (353,700);
}
);
layerId = "45F6A7D2-68A2-4980-BE0C-7C210C91EB90";
shapes = (
{
closed = 1;
nodes = (
(514,-2,o),
(642,141,o),
(642,320,cs),
(642,385,ls),
(642,562,o),
(514,705,o),
(346,705,cs),
(177,705,o),
(50,562,o),
(50,385,cs),
(50,320,ls),
(50,141,o),
(177,-2,o),
(346,-2,cs)
);
},
{
closed = 1;
nodes = (
(667,-1,l),
(667,106,l),
(555,106,l),
(346,-2,l)
);
},
{
closed = 1;
nodes = (
(235,108,o),
(170,198,o),
(170,320,cs),
(170,385,ls),
(170,511,o),
(235,595,o),
(346,595,cs),
(457,595,o),
(522,511,o),
(522,385,cs),
(522,320,ls),
(522,198,o),
(457,108,o),
(346,108,cs)
);
}
);
width = 717;
}
);
metricLeft = "=O";
metricRight = "=O";
unicode = 81;
},
{
glyphname = R;
lastChange = "2024-11-23 05:05:47 +0000";
layers = (
{
anchors = (
{
name = bottom;
pos = (315,0);
},
{
name = top;
pos = (315,700);
}
);
layerId = "45F6A7D2-68A2-4980-BE0C-7C210C91EB90";
shapes = (
{
closed = 1;
nodes = (
(186,0,l),
(188,267,l),
(244,267,o),
(563,317,o),
(552,700,c),
(70,700,l),
(70,0,l)
);
},
{
closed = 1;
nodes = (
(186,597,l),
(439,597,l),
(439,507,o),
(328,378,o),
(186,378,c)
);
},
{
closed = 1;
nodes = (
(584,0,l),
(384,367,l),
(253,367,l),
(453,0,l)
);
}
);
width = 614;
}
);
metricLeft = H;
metricRight = F;
unicode = 82;
},
{
glyphname = S;
lastChange = "2024-02-22 03:58:56 +0000";
layers = (
{
anchors = (
{
name = bottom;
pos = (262,0);
},
{
name = top;
pos = (262,700);
}
);
background = {
shapes = (
{
closed = 1;
nodes = (
(222,-1,l),
(362,-1,o),
(475,64,o),
(480,214,c),
(475,361,o),
(374,410,o),
(287,427,c),
(186,455,o),
(157,502,o),
(158,589,c),
(470,590,l),
(470,700,l),
(47,700,l),
(47,607,l),
(47,602,l),
(47,392,o),
(175,347,o),
(248,329,c),
(304,315,o),
(366,293,o),
(369,216,c),
(366,139,o),
(322,110,o),
(233,110,c),
(47,110,l),
(47,-1,l)
);
}
);
};
layerId = "45F6A7D2-68A2-4980-BE0C-7C210C91EB90";
shapes = (
{
closed = 1;
nodes = (
(222,0,ls),
(362,2,o),
(477,65,o),
(482,219,cs),
(482,361,o),
(368,401,o),
(301,425,cs),
(183,466,o),
(157,499,o),
(157,589,c),
(450,590,l),
(450,700,l),
(42,700,l),
(42,602,ls),
(42,398,o),
(156,360,o),
(248,327,cs),
(301,308,o),
(363,297,o),
(366,220,cs),
(366,139,o),
(322,112,o),
(233,111,cs),
(48,109,l),
(48,-2,l)
);
}
);
width = 523;
}
);
unicode = 83;
},
{
glyphname = T;
lastChange = "2024-04-06 00:59:25 +0000";
layers = (
{
anchors = (
{
name = bottom;
pos = (253,0);
},
{
name = center;
pos = (253,350);
},
{
name = top;
pos = (253,700);
}
);
layerId = "45F6A7D2-68A2-4980-BE0C-7C210C91EB90";
shapes = (
{
closed = 1;
nodes = (
(500,108,l),
(384,117,o),
(262,162,o),
(262,334,cs),
(262,590,l),
(146,590,l),
(146,333,ls),
(146,87,o),
(333,9,o),
(500,-1,c)
);
},
{
closed = 1;
nodes = (
(470,590,l),
(470,700,l),
(50,700,l),
(50,589,l)
);
}
);
width = 520;
}
);
metricLeft = E;
unicode = 84;
},
{
glyphname = U;
lastChange = "2024-11-23 05:05:47 +0000";
layers = (
{
anchors = (
{
name = bottom;
pos = (320,0);
},
{
name = ogonek;
pos = (576,10);
},
{
name = top;
pos = (320,700);
},
{
name = topright;
pos = (620,700);
}
);
layerId = "45F6A7D2-68A2-4980-BE0C-7C210C91EB90";
shapes = (
{
closed = 1;
nodes = (
(570,700,l),
(454,700,l),
(455,1,l),
(570,0,l)
);
},
{
closed = 1;
nodes = (
(50,700,l),
(50,335,ls),
(50,59,o),
(279,0,o),
(461,0,cs),
(521,0,l),
(521,102,l),
(461,102,ls),
(331,102,o),
(166,132,o),
(166,336,cs),
(166,700,l)
);
}
);
width = 640;
}
);
metricLeft = "=|D";
metricRight = H;
unicode = 85;
},
{
glyphname = V;
lastChange = "2024-02-22 03:58:56 +0000";
layers = (
{
anchors = (
{
name = bottom;
pos = (316,0);
},
{
name = top;
pos = (316,700);
}
);
layerId = "45F6A7D2-68A2-4980-BE0C-7C210C91EB90";
shapes = (
{
closed = 1;
nodes = (
(222,0,l),
(387,11,o),
(567,90,o),
(570,335,cs),
(572,485,o),
(570,388,o),
(570,528,cs),
(570,700,l),
(454,700,l),
(454,336,ls),
(454,184,o),
(347,131,o),
(245,114,c),
(157,700,l),
(40,700,l),
(143,0,l)
);
}
);
width = 631;
}
);
unicode = 86;
},
{
glyphname = W;
lastChange = "2024-04-06 01:00:02 +0000";
layers = (
{
anchors = (
{
name = bottom;
pos = (475,0);
},
{
name = top;
pos = (475,700);
}
);
layerId = "45F6A7D2-68A2-4980-BE0C-7C210C91EB90";
shapes = (
{
closed = 1;
nodes = (
(149,0,ls),
(275,0,o),
(342,13,o),
(423,96,c),
(423,0,l),
(513,0,l),
(776,16,o),
(890,121,o),
(890,337,cs),
(890,700,l),
(774,700,l),
(774,337,ls),
(774,165,o),
(651,113,o),
(535,113,c),
(535,700,l),
(423,700,l),
(423,337,ls),
(423,165,o),
(302,113,o),
(186,113,c),
(186,700,l),
(70,700,l),
(70,0,l)
);
}
);
width = 950;
}
);
metricLeft = "=H";
metricRight = "=V";
unicode = 87;
},
{
glyphname = X;
kernRight = Xe;
lastChange = "2024-11-23 05:05:47 +0000";
layers = (
{
anchors = (
{
name = bottom;
pos = (340,0);
},
{
name = top;
pos = (340,700);
}
);
layerId = "45F6A7D2-68A2-4980-BE0C-7C210C91EB90";
shapes = (
{
closed = 1;
nodes = (
(166,0,l),
(166,133,o),
(241,226,o),
(328,267,c),
(498,0,l),
(634,0,l),
(431,321,l),
(548,379,o),
(633,522,o),
(635,700,c),
(519,700,l),
(519,567,o),
(455,460,o),
(369,420,c),
(191,700,l),
(53,700,l),
(265,366,l),
(149,308,o),
(52,179,o),
(50,0,c)
);
}
);
width = 680;
}
);
metricLeft = O;
metricRight = C;
unicode = 88;
},
{
glyphname = Y;
lastChange = "2024-04-06 01:01:24 +0000";
layers = (
{
anchors = (
{
name = bottom;
pos = (290,0);
},
{
name = top;
pos = (290,700);
},
{
name = topleft;
pos = (20,700);
}
);
layerId = "45F6A7D2-68A2-4980-BE0C-7C210C91EB90";
shapes = (
{
closed = 1;
nodes = (
(332,9,o),
(512,87,o),
(519,333,c),
(519,700,l),
(403,700,l),
(403,334,ls),
(403,162,o),
(281,117,o),
(165,108,c),
(165,-1,l)
);
},
{
closed = 1;
nodes = (
(513,295,l),
(513,588,l),
(403,588,l),
(403,402,l),
(284,409,o),
(156,452,o),
(156,631,cs),
(156,700,l),
(40,700,l),
(40,630,ls),
(40,378,o),
(232,295,o),
(403,295,cs)
);
}
);
width = 579;
}
);
metricLeft = "=V";
metricRight = V;
unicode = 89;
},
{
glyphname = Z;
lastChange = "2024-04-06 01:02:04 +0000";
layers = (
{
anchors = (
{
name = bottom;
pos = (313,0);
},
{
name = center;
pos = (313,350);
},
{
name = top;
pos = (313,700);
}
);
layerId = "45F6A7D2-68A2-4980-BE0C-7C210C91EB90";
shapes = (
{
closed = 1;
nodes = (
(565,0,l),
(565,110,l),
(236,110,l),
(562,700,l),
(67,700,l),
(67,590,l),
(367,590,l),
(40,0,l)
);
}
);
width = 625;
}
);
metricLeft = "=V";
metricRight = "=V";
unicode = 90;
},
{
glyphname = bracketleft;
lastChange = "2024-02-16 04:22:05 +0000";
layers = (
{
layerId = "45F6A7D2-68A2-4980-BE0C-7C210C91EB90";
shapes = (
{
closed = 1;
nodes = (
(238,-179,l),
(238,-72,l),
(173,-72,l),
(173,693,l),
(238,693,l),
(238,800,l),
(70,800,l),
(70,-179,l)
);
}
);
width = 243;
}
);
metricLeft = "=|i";
unicode = 91;
},
{
glyphname = backslash;
lastChange = "2024-02-16 04:22:05 +0000";
layers = (
{
layerId = "45F6A7D2-68A2-4980-BE0C-7C210C91EB90";
shapes = (
{
closed = 1;
nodes = (
(371,-116,l),
(109,698,l),
(0,698,l),
(262,-116,l)
);
}
);
width = 398;
}
);
unicode = 92;
},
{
glyphname = bracketright;
lastChange = "2024-02-16 04:22:05 +0000";
layers = (
{
layerId = "45F6A7D2-68A2-4980-BE0C-7C210C91EB90";
shapes = (
{
closed = 1;
nodes = (
(168,-179,l),
(168,800,l),
(0,800,l),
(0,693,l),
(65,693,l),
(65,-72,l),
(0,-72,l),
(0,-179,l)
);
}
);
width = 238;
}
);
metricRight = i;
unicode = 93;
},
{
glyphname = underscore;
lastChange = "2024-11-23 05:05:47 +0000";
layers = (
{
layerId = "45F6A7D2-68A2-4980-BE0C-7C210C91EB90";
shapes = (
{
closed = 1;
nodes = (
(387,-151,l),
(387,-44,l),
(0,-44,l),
(0,-151,l)
);
}
);
width = 387;
}
);
unicode = 95;
},
{
glyphname = grave;
lastChange = "2025-07-09 03:18:44 +0000";
layers = (
{
layerId = "45F6A7D2-68A2-4980-BE0C-7C210C91EB90";
shapes = (
{
closed = 1;
nodes = (
(274,621,l),
(178,760,l),
(70,760,l),
(182,621,l)
);
}
);
width = 344;
}
);
metricLeft = I;
metricRight = I;
unicode = 96;
},
{
glyphname = c;
kernLeft = ll;
lastChange = "2025-07-09 05:17:08 +0000";
layers = (
{
anchors = (
{
name = bottom;
pos = (292,0);
},
{
name = top;
pos = (292,535);
}
);
layerId = "45F6A7D2-68A2-4980-BE0C-7C210C91EB90";
shapes = (
{
closed = 1;
nodes = (
(454,433,l),
(454,535,l),
(58,535,l),
(160,433,l)
);
},
{
closed = 1;
nodes = (
(455,101,l),
(386,101,l),
(297,104,o),
(160,122,o),
(160,281,cs),
(160,535,l),
(50,535,l),
(50,280,ls),
(50,51,o),
(225,0,o),
(381,-2,c),
(455,-2,l)
);
}
);
width = 500;
}
);
metricLeft = "=C";
metricRight = C;
unicode = 99;
},
{
glyphname = d;
lastChange = "2025-07-18 13:55:51 +0000";
layers = (
{
anchors = (
{
name = bottom;
pos = (290,0);
},
{
name = center;
pos = (290,268);
},
{
name = top;
pos = (290,840);
},
{
name = topright;
pos = (561,840);
}
);
layerId = "45F6A7D2-68A2-4980-BE0C-7C210C91EB90";
shapes = (
{
closed = 1;
nodes = (
(453,433,l),
(453,535,l),
(57,535,l),
(159,433,l)
);
},
{
closed = 1;
nodes = (
(511,0,l),
(511,800,l),
(399,800,l),
(399,0,l)
);
},
{
ref = "curva_d-b";
}
);
width = 581;
}
);
metricLeft = c;
metricRight = i;
unicode = 100;
},
{
glyphname = f;
kernRight = fo;
lastChange = "2025-07-09 22:48:47 +0000";
layers = (
{
anchors = (
{
name = bottom;
pos = (185,0);
},
{
name = top;
pos = (185,840);
}
);
layerId = "45F6A7D2-68A2-4980-BE0C-7C210C91EB90";
shapes = (
{
closed = 1;
nodes = (
(229,0,l),
(229,521,ls),
(229,678,o),
(301,687,o),
(335,692,c),
(335,801,l),
(248,802,o),
(117,740,o),
(117,521,cs),
(117,0,l)
);
},
{
closed = 1;
nodes = (
(337,433,l),
(337,535,l),
(20,535,l),
(20,432,l)
);
}
);
width = 357;
}
);
metricLeft = t;
metricRight = r;
unicode = 102;
},
{
glyphname = g;
lastChange = "2024-11-23 05:05:47 +0000";
layers = (
{
anchors = (
{
name = bottom;
pos = (266,-250);
},
{
name = top;
pos = (266,535);
}
);
layerId = "45F6A7D2-68A2-4980-BE0C-7C210C91EB90";
shapes = (
{
closed = 1;
nodes = (
(298,-190,o),
(474,-102,o),
(481,144,c),
(481,535,l),
(369,535,l),
(369,135,ls),
(369,-30,o),
(247,-82,o),
(131,-91,c),
(131,-200,l)
);
},
{
closed = 1;
nodes = (
(373,284,l),
(201,284,o),
(139,330,o),
(138,433,c),
(369,433,l),
(471,535,l),
(20,535,l),
(20,186,o),
(218,184,o),
(358,184,cs),
(382,184,l)
);
}
);
width = 531;
}
);
metricRight = j;
unicode = 103;
},
{
glyphname = h;
kernLeft = ll;
lastChange = "2025-07-06 10:44:25 +0000";
layers = (
{
anchors = (
{
name = bottom;
pos = (285,0);
},
{
name = center;
pos = (285,420);
},
{
name = top;
pos = (285,840);
}
);
layerId = "45F6A7D2-68A2-4980-BE0C-7C210C91EB90";
shapes = (
{
closed = 1;
nodes = (
(70,0,l),
(182,0,l),
(182,800,l),
(70,800,l)
);
},
{
closed = 1;
nodes = (
(530,0,l),
(530,200,ls),
(530,476,o),
(357,535,o),
(175,535,cs),
(107,535,l),
(107,433,l),
(175,433,ls),
(305,433,o),
(414,403,o),
(414,199,cs),
(414,0,l)
);
}
);
width = 572;
}
);
metricLeft = H;
metricRight = n;
unicode = 104;
},
{
glyphname = i;
lastChange = "2024-04-28 00:15:26 +0000";
layers = (
{
anchors = (
{
name = bottom;
pos = (126,0);
}
);
layerId = "45F6A7D2-68A2-4980-BE0C-7C210C91EB90";
shapes = (
{
closed = 1;
nodes = (
(182,0,l),
(182,535,l),
(70,535,l),
(70,0,l)
);
},
{
closed = 1;
nodes = (
(180,645,l),
(180,754,l),
(71,754,l),
(71,645,l)
);
}
);
width = 252;
}
);
metricLeft = "=H";
metricRight = "=|H";
unicode = 105;
},
{
glyphname = j;
lastChange = "2024-02-16 04:22:05 +0000";
layers = (
{
layerId = "45F6A7D2-68A2-4980-BE0C-7C210C91EB90";
shapes = (
{
closed = 1;
nodes = (
(107,-201,o),
(238,-139,o),
(238,80,cs),
(238,535,l),
(126,535,l),
(126,80,ls),
(126,-77,o),
(54,-86,o),
(20,-91,c),
(20,-200,l)
);
},
{
closed = 1;
nodes = (
(237,645,l),
(237,755,l),
(128,755,l),
(128,645,l)
);
}
);
width = 288;
}
);
unicode = 106;
},
{
glyphname = k;
lastChange = "2025-07-09 22:54:23 +0000";
layers = (
{
anchors = (
{
name = bottom;
pos = (297,0);
},
{
name = top;
pos = (297,840);
}
);
layerId = "45F6A7D2-68A2-4980-BE0C-7C210C91EB90";
shapes = (
{
closed = 1;
nodes = (
(182,0,l),
(182,223,l),
(370,273,o),
(486,410,o),
(487,535,c),
(380,535,l),
(377,465,o),
(297,353,o),
(182,335,c),
(182,800,l),
(70,800,l),
(70,0,l)
);
},
{
closed = 1;
nodes = (
(511,0,l),
(325,322,l),
(203,322,l),
(389,0,l)
);
}
);
width = 531;
}
);
metricLeft = l;
metricRight = f;
unicode = 107;
},
{
glyphname = l;
kernLeft = ll;
kernRight = ll;
lastChange = "2025-07-18 13:55:57 +0000";
layers = (
{
anchors = (
{
name = bottom;
pos = (164,0);
},
{
name = center;
pos = (164,420);
},
{
name = top;
pos = (164,840);
},
{
name = topright;
pos = (218,840);
}
);
layerId = "45F6A7D2-68A2-4980-BE0C-7C210C91EB90";
shapes = (
{
closed = 1;
nodes = (
(288,108,l),
(254,113,o),
(182,122,o),
(182,279,cs),
(182,800,l),
(70,800,l),
(70,279,ls),
(70,60,o),
(201,-2,o),
(288,-1,c)
);
}
);
width = 328;
}
);
metricLeft = H;
unicode = 108;
},
{
glyphname = m;
lastChange = "2025-07-06 10:44:35 +0000";
layers = (
{
anchors = (
{
name = bottom;
pos = (412,0);
},
{
name = top;
pos = (412,535);
}
);
layerId = "45F6A7D2-68A2-4980-BE0C-7C210C91EB90";
shapes = (
{
closed = 1;
nodes = (
(180,0,l),
(180,432,l),
(282,432,o),
(363,373,o),
(363,230,cs),
(363,0,l),
(472,0,l),
(472,224,ls),
(472,426,o),
(321,536,o),
(177,534,cs),
(166,534,o),
(160,535,o),
(149,535,cs),
(68,535,l),
(68,0,l)
);
},
{
closed = 1;
nodes = (
(472,0,l),
(472,432,l),
(578,427,o),
(653,394,o),
(653,251,cs),
(653,0,l),
(765,0,l),
(765,267,ls),
(765,469,o),
(610,534,o),
(474,534,cs),
(463,534,o),
(452,535,o),
(441,535,cs),
(363,535,l),
(363,0,l)
);
}
);
width = 807;
}
);
metricLeft = n;
metricRight = n;
unicode = 109;
},
{
glyphname = n;
kernLeft = Fa;
lastChange = "2025-07-08 23:32:11 +0000";
layers = (
{
anchors = (
{
name = bottom;
pos = (295,0);
},
{
name = top;
pos = (293,535);
}
);
layerId = "45F6A7D2-68A2-4980-BE0C-7C210C91EB90";
shapes = (
{
closed = 1;
nodes = (
(180,0,l),
(180,530,l),
(109,535,l),
(68,535,l),
(68,0,l)
);
},
{
closed = 1;
nodes = (
(531,0,l),
(531,200,ls),
(531,476,o),
(358,535,o),
(176,535,cs),
(108,535,l),
(108,433,l),
(176,433,ls),
(306,433,o),
(415,411,o),
(415,199,cs),
(415,0,l)
);
}
);
width = 573;
}
);
unicode = 110;
},
{
glyphname = o;
kernLeft = Fa;
lastChange = "2025-07-06 10:44:35 +0000";
layers = (
{
anchors = (
{
name = bottom;
pos = (298,0);
},
{
name = center;
pos = (298,268);
},
{
name = ogonek;
pos = (528,10);
},
{
name = top;
pos = (298,535);
},
{
name = topright;
pos = (566,535);
}
);
layerId = "45F6A7D2-68A2-4980-BE0C-7C210C91EB90";
shapes = (
{
closed = 1;
nodes = (
(438,-7,o),
(546,118,o),
(546,256,cs),
(546,294,ls),
(546,431,o),
(438,543,o),
(298,543,cs),
(158,543,o),
(50,431,o),
(50,294,cs),
(50,256,ls),
(50,118,o),
(158,-7,o),
(298,-7,cs)
);
},
{
closed = 1;
nodes = (
(217,95,o),
(165,172,o),
(165,256,cs),
(165,294,ls),
(165,382,o),
(217,441,o),
(298,441,cs),
(379,441,o),
(431,382,o),
(431,294,cs),
(431,256,ls),
(431,172,o),
(379,95,o),
(298,95,cs)
);
}
);
width = 588;
}
);
metricRight = n;
unicode = 111;
},
{
glyphname = p;
kernLeft = ll;
lastChange = "2025-07-09 22:34:04 +0000";
layers = (
{
anchors = (
{
name = bottom;
pos = (291,0);
},
{
name = center;
pos = (291,268);
},
{
name = top;
pos = (291,840);
},
{
name = topright;
pos = (20,840);
}
);
layerId = "45F6A7D2-68A2-4980-BE0C-7C210C91EB90";
shapes = (
{
closed = 1;
nodes = (
(183,-2,ls),
(365,-2,o),
(538,57,o),
(538,333,cs),
(538,533,l),
(422,533,l),
(422,334,ls),
(422,130,o),
(313,100,o),
(183,100,cs),
(115,100,l),
(115,-2,l)
);
},
{
closed = 1;
nodes = (
(182,-266,l),
(182,534,l),
(70,534,l),
(70,-266,l)
);
},
{
closed = 1;
nodes = (
(431,433,l),
(524,535,l),
(128,535,l),
(128,433,l)
);
}
);
width = 580;
}
);
metricLeft = l;
metricRight = o;
unicode = 112;
},
{
glyphname = r;
kernLeft = Fa;
lastChange = "2025-07-09 22:47:37 +0000";
layers = (
{
anchors = (
{
name = bottom;
pos = (231,0);
},
{
name = top;
pos = (231,535);
}
);
layerId = "45F6A7D2-68A2-4980-BE0C-7C210C91EB90";
shapes = (
{
closed = 1;
nodes = (
(178,0,l),
(178,254,ls),
(178,416,o),
(294,432,o),
(403,441,c),
(403,544,l),
(245,534,o),
(68,487,o),
(68,255,cs),
(68,0,l)
);
}
);
width = 423;
}
);
metricLeft = n;
unicode = 114;
},
{
glyphname = s;
lastChange = "2024-04-06 01:07:05 +0000";
layers = (
{
anchors = (
{
name = bottom;
pos = (178,0);
},
{
name = top;
pos = (178,535);
}
);
layerId = "45F6A7D2-68A2-4980-BE0C-7C210C91EB90";
shapes = (
{
closed = 1;
nodes = (
(158,0,ls),
(288,0,o),
(335,105,o),
(335,161,cs),
(335,208,o),
(320,253,o),
(248,294,cs),
(215,314,o),
(156,334,o),
(156,379,cs),
(156,432,o),
(222,435,o),
(248,435,cs),
(288,435,l),
(288,538,l),
(221,538,ls),
(100,538,o),
(44,435,o),
(44,379,cs),
(44,325,o),
(71,281,o),
(143,240,cs),
(176,220,o),
(223,206,o),
(223,161,cs),
(223,108,o),
(167,105,o),
(141,105,cs),
(42,105,l),
(42,0,l)
);
}
);
width = 355;
}
);
metricLeft = S;
unicode = 115;
},
{
glyphname = t;
kernLeft = Lv;
lastChange = "2025-07-18 13:56:07 +0000";
layers = (
{
anchors = (
{
name = bottom;
pos = (205,0);
},
{
name = center;
pos = (205,268);
},
{
name = top;
pos = (205,535);
},
{
name = topright;
pos = (309,840);
}
);
layerId = "45F6A7D2-68A2-4980-BE0C-7C210C91EB90";
shapes = (
{
closed = 1;
nodes = (
(337,108,l),
(303,113,o),
(231,122,o),
(229,279,cs),
(229,700,l),
(119,700,l),
(119,279,ls),
(119,60,o),
(250,-2,o),
(337,-1,c)
);
},
{
closed = 1;
nodes = (
(337,432,l),
(337,535,l),
(20,535,l),
(20,432,l)
);
}
);
width = 357;
}
);
metricRight = f;
unicode = 116;
},
{
glyphname = u;
lastChange = "2025-07-06 10:44:35 +0000";
layers = (
{
anchors = (
{
name = bottom;
pos = (289,0);
},
{
name = ogonek;
pos = (518,10);
},
{
name = top;
pos = (289,535);
},
{
name = topright;
pos = (555,535);
}
);
layerId = "45F6A7D2-68A2-4980-BE0C-7C210C91EB90";
shapes = (
{
closed = 1;
nodes = (
(505,0,l),
(505,535,l),
(393,535,l),
(393,5,l),
(464,0,l)
);
},
{
closed = 1;
nodes = (
(42,535,l),
(42,335,ls),
(42,59,o),
(215,0,o),
(397,0,cs),
(465,0,l),
(465,102,l),
(397,102,ls),
(267,102,o),
(158,132,o),
(158,336,cs),
(158,535,l)
);
}
);
width = 575;
}
);
metricLeft = "=|n";
metricRight = i;
unicode = 117;
},
{
glyphname = v;
kernLeft = Lv;
lastChange = "2025-07-06 10:44:35 +0000";
layers = (
{
anchors = (
{
name = bottom;
pos = (249,0);
},
{
name = top;
pos = (249,535);
}
);
layerId = "45F6A7D2-68A2-4980-BE0C-7C210C91EB90";
shapes = (
{
closed = 1;
nodes = (
(208,0,ls),
(334,8,o),
(468,66,o),
(468,254,cs),
(468,535,l),
(361,535,l),
(361,255,ls),
(361,138,o),
(293,117,o),
(214,104,c),
(150,535,l),
(40,535,l),
(119,-3,l)
);
}
);
width = 510;
}
);
metricRight = n;
unicode = 118;
},
{
glyphname = w;
lastChange = "2024-11-23 05:05:47 +0000";
layers = (
{
anchors = (
{
name = bottom;
pos = (394,0);
},
{
name = top;
pos = (402,535);
}
);
layerId = "45F6A7D2-68A2-4980-BE0C-7C210C91EB90";
shapes = (
{
closed = 1;
nodes = (
(70,0,l),
(151,0,ls),
(162,0,o),
(168,1,o),
(179,1,cs),
(323,-1,o),
(474,109,o),
(474,311,cs),
(474,535,l),
(365,535,l),
(365,305,ls),
(365,162,o),
(284,103,o),
(182,103,c),
(182,535,l),
(70,535,l)
);
},
{
closed = 1;
nodes = (
(365,0,l),
(443,0,ls),
(454,0,o),
(465,1,o),
(476,1,cs),
(612,1,o),
(767,66,o),
(767,268,cs),
(767,535,l),
(655,535,l),
(655,284,ls),
(655,141,o),
(580,108,o),
(474,103,c),
(474,535,l),
(365,535,l)
);
}
);
width = 807;
}
);
unicode = 119;
},
{
glyphname = x;
kernLeft = Zx;
lastChange = "2025-07-09 22:42:07 +0000";
layers = (
{
anchors = (
{
name = bottom;
pos = (284,0);
},
{
name = top;
pos = (284,535);
}
);
layerId = "45F6A7D2-68A2-4980-BE0C-7C210C91EB90";
shapes = (
{
closed = 1;
nodes = (
(402,535,l),
(538,535,l),
(166,0,l),
(30,0,l)
);
},
{
closed = 1;
nodes = (
(30,535,l),
(166,535,l),
(538,0,l),
(402,0,l)
);
}
);
width = 568;
}
);
metricLeft = z;
metricRight = z;
unicode = 120;
},
{
glyphname = y;
kernLeft = Fa;
lastChange = "2025-07-18 13:30:43 +0000";
layers = (
{
anchors = (
{
name = bottom;
pos = (268,-147);
},
{
name = top;
pos = (268,535);
}
);
layerId = "45F6A7D2-68A2-4980-BE0C-7C210C91EB90";
shapes = (
{
closed = 1;
nodes = (
(310,-190,o),
(486,-102,o),
(493,144,c),
(493,535,l),
(381,535,l),
(381,135,ls),
(381,-30,o),
(259,-82,o),
(143,-91,c),
(143,-200,l)
);
},
{
closed = 1;
nodes = (
(453,113,l),
(453,215,l),
(385,215,ls),
(255,215,o),
(146,245,o),
(146,449,cs),
(146,535,l),
(30,535,l),
(30,448,ls),
(30,172,o),
(203,113,o),
(385,113,cs)
);
}
);
width = 537;
}
);
metricLeft = x;
metricRight = a;
unicode = 121;
},
{
glyphname = z;
kernLeft = zo;
kernRight = zo;
lastChange = "2025-07-09 22:41:48 +0000";
layers = (
{
anchors = (
{
name = bottom;
pos = (290,0);
},
{
name = center;
pos = (290,268);
},
{
name = top;
pos = (290,535);
}
);
layerId = "45F6A7D2-68A2-4980-BE0C-7C210C91EB90";
shapes = (
{
closed = 1;
nodes = (
(511,0,l),
(511,104,l),
(235,104,l),
(535,535,l),
(50,535,l),
(50,431,l),
(330,431,l),
(30,0,l)
);
}
);
width = 565;
}
);
unicode = 122;
},
{
glyphname = braceleft;
lastChange = "2025-07-09 03:06:23 +0000";
layers = (
{
layerId = "45F6A7D2-68A2-4980-BE0C-7C210C91EB90";
shapes = (
{
closed = 1;
nodes = (
(50,346,l),
(50,258,l),
(71,257,ls),
(87,256,o),
(106,249,o),
(119,236,c),
(138,213,o),
(147,185,o),
(143,149,cs),
(142,121,o),
(114,70,o),
(101,53,c),
(81,16,o),
(66,-18,o),
(73,-70,cs),
(82,-152,o),
(172,-204,o),
(250,-213,cs),
(283,-217,l),
(283,-129,l),
(283,-129,o),
(234,-123,o),
(207,-101,c),
(191,-91,o),
(180,-69,o),
(181,-37,cs),
(181,-11,o),
(198,23,o),
(209,42,cs),
(221,62,o),
(251,105,o),
(253,155,cs),
(255,213,o),
(238,262,o),
(190,306,cs),
(163,331,o),
(103,346,o),
(83,346,cs)
);
},
{
closed = 1;
nodes = (
(103,258,o),
(163,273,o),
(190,298,cs),
(238,342,o),
(255,391,o),
(253,449,cs),
(251,499,o),
(221,542,o),
(209,562,cs),
(198,581,o),
(181,615,o),
(181,641,cs),
(180,673,o),
(191,695,o),
(207,705,c),
(234,727,o),
(283,733,o),
(283,733,c),
(283,821,l),
(250,817,ls),
(172,808,o),
(82,756,o),
(73,674,cs),
(66,622,o),
(81,588,o),
(101,551,c),
(114,534,o),
(142,483,o),
(143,455,cs),
(147,419,o),
(138,391,o),
(119,368,c),
(106,355,o),
(87,348,o),
(71,347,cs),
(50,346,l),
(50,258,l),
(83,258,ls)
);
}
);
width = 313;
}
);
metricLeft = O;
metricRight = L;
unicode = 123;
},
{
glyphname = braceright;
lastChange = "2025-07-09 03:06:55 +0000";
layers = (
{
background = {
shapes = (
{
closed = 1;
nodes = (
(301,260,l),
(301,346,l),
(280,347,ls),
(264,348,o),
(245,355,o),
(232,368,c),
(213,391,o),
(204,419,o),
(208,455,cs),
(209,483,o),
(237,534,o),
(250,551,c),
(270,588,o),
(285,622,o),
(278,674,cs),
(269,756,o),
(179,817,o),
(101,817,cs),
(90,817,l),
(90,733,l),
(90,733,o),
(139,727,o),
(166,705,c),
(182,695,o),
(193,673,o),
(192,641,cs),
(192,615,o),
(175,581,o),
(164,562,cs),
(152,542,o),
(122,499,o),
(120,449,cs),
(118,391,o),
(135,342,o),
(183,298,cs),
(209,272,o),
(255,256,o),
(278,258,cs)
);
},
{
closed = 1;
nodes = (
(101,-212,ls),
(179,-212,o),
(269,-151,o),
(278,-71,cs),
(285,-18,o),
(270,16,o),
(250,53,c),
(237,70,o),
(209,120,o),
(208,150,cs),
(204,184,o),
(213,213,o),
(232,236,c),
(245,249,o),
(264,257,o),
(280,258,cs),
(301,259,l),
(301,345,l),
(278,347,ls),
(255,349,o),
(209,332,o),
(183,304,c),
(135,263,o),
(118,213,o),
(120,155,cs),
(122,105,o),
(152,61,o),
(164,42,cs),
(175,24,o),
(192,-11,o),
(192,-36,cs),
(193,-69,o),
(182,-90,o),
(166,-101,c),
(139,-124,o),
(90,-130,o),
(90,-130,c),
(90,-212,l)
);
}
);
};
layerId = "45F6A7D2-68A2-4980-BE0C-7C210C91EB90";
shapes = (
{
pos = (353,0);
ref = braceleft;
scale = (-1,1);
}
);
width = 353;
}
);
metricLeft = L;
metricRight = O;
unicode = 125;
},
{
glyphname = asciitilde;
lastChange = "2024-02-16 04:22:05 +0000";
layers = (
{
layerId = "45F6A7D2-68A2-4980-BE0C-7C210C91EB90";
shapes = (
{
closed = 1;
nodes = (
(522,175,o),
(585,239,o),
(585,328,cs),
(585,368,l),
(486,368,l),
(486,337,ls),
(486,286,o),
(454,266,o),
(432,266,cs),
(416,266,o),
(403,268,o),
(382,280,cs),
(310,321,o),
(292,379,o),
(204,379,cs),
(113,379,o),
(50,315,o),
(50,226,cs),
(50,188,l),
(149,188,l),
(149,217,ls),
(149,268,o),
(181,288,o),
(203,288,cs),
(219,288,o),
(232,286,o),
(253,274,cs),
(325,233,o),
(349,175,o),
(431,175,cs)
);
}
);
width = 635;
}
);
metricLeft = O;
metricRight = O;
unicode = 126;
},
{
glyphname = exclamdown;
lastChange = "2024-11-23 05:05:47 +0000";
layers = (
{
layerId = "45F6A7D2-68A2-4980-BE0C-7C210C91EB90";
shapes = (
{
closed = 1;
nodes = (
(212,-289,l),
(212,345,l),
(100,345,l),
(100,-289,l)
);
},
{
closed = 1;
nodes = (
(100,425,l),
(212,425,l),
(212,537,l),
(100,537,l)
);
}
);
width = 282;
}
);
unicode = 161;
},
{
glyphname = cent;
lastChange = "2024-02-19 03:54:30 +0000";
layers = (
{
layerId = "45F6A7D2-68A2-4980-BE0C-7C210C91EB90";
shapes = (
{
closed = 1;
nodes = (
(425,39,l),
(425,140,l),
(299,140,ls),
(207,140,o),
(149,179,o),
(149,262,cs),
(149,345,o),
(207,384,o),
(299,384,cs),
(425,384,l),
(425,485,l),
(310,485,ls),
(167,485,o),
(50,419,o),
(50,262,cs),
(50,105,o),
(167,39,o),
(310,39,cs)
);
},
{
closed = 1;
nodes = (
(346,-147,l),
(346,674,l),
(244,674,l),
(244,-147,l)
);
}
);
width = 475;
}
);
metricLeft = O;
metricRight = O;
unicode = 162;
},
{
glyphname = sterling;
lastChange = "2025-07-09 22:49:56 +0000";
layers = (
{
layerId = "45F6A7D2-68A2-4980-BE0C-7C210C91EB90";
shapes = (
{
closed = 1;
nodes = (
(478,0,l),
(478,93,l),
(153,93,l),
(153,0,l)
);
},
{
closed = 1;
nodes = (
(317,281,l),
(317,374,l),
(20,374,l),
(20,281,l)
);
},
{
closed = 1;
nodes = (
(478,706,l),
(448,706,l),
(292,704,o),
(117,653,o),
(117,424,cs),
(117,0,l),
(227,0,l),
(227,423,ls),
(227,582,o),
(364,600,o),
(453,603,c),
(478,603,l)
);
}
);
width = 498;
}
);
metricLeft = f;
metricRight = f;
unicode = 163;
},
{
glyphname = currency;
lastChange = "2024-04-06 08:02:20 +0000";
layers = (
{
layerId = "45F6A7D2-68A2-4980-BE0C-7C210C91EB90";
shapes = (
{
closed = 1;
nodes = (
(217,182,l),
(242,167,o),
(269,156,o),
(300,156,cs),
(332,156,o),
(361,167,o),
(385,184,c),
(493,79,l),
(571,155,l),
(456,268,l),
(468,293,o),
(472,320,o),
(472,347,cs),
(472,374,o),
(468,402,o),
(456,425,c),
(568,539,l),
(492,617,l),
(384,511,l),
(359,526,o),
(332,535,o),
(300,535,cs),
(268,535,o),
(238,526,o),
(213,509,c),
(109,614,l),
(30,538,l),
(145,425,l),
(132,400,o),
(128,373,o),
(128,347,cs),
(128,320,o),
(133,292,o),
(145,267,c),
(33,155,l),
(110,76,l)
);
},
{
closed = 1;
nodes = (
(251,246,o),
(212,297,o),
(212,345,cs),
(212,395,o),
(251,445,o),
(301,445,cs),
(349,445,o),
(389,395,o),
(389,345,cs),
(389,297,o),
(349,246,o),
(301,246,cs)
);
}
);
width = 601;
}
);
metricLeft = "=|F";
metricRight = F;
unicode = 164;
},
{
glyphname = yen;
lastChange = "2024-11-23 05:05:47 +0000";
layers = (
{
layerId = "45F6A7D2-68A2-4980-BE0C-7C210C91EB90";
shapes = (
{
closed = 1;
nodes = (
(191,0,l),
(584,700,l),
(464,700,l),
(310,433,l),
(224,473,o),
(160,567,o),
(160,700,c),
(50,700,l),
(52,522,o),
(148,396,o),
(265,338,c),
(71,0,l)
);
},
{
closed = 1;
nodes = (
(512,289,l),
(512,359,l),
(40,358,l),
(40,287,l)
);
},
{
closed = 1;
nodes = (
(515,130,l),
(515,200,l),
(43,199,l),
(43,128,l)
);
}
);
width = 644;
}
);
metricLeft = Y;
metricRight = Y;
unicode = 165;
},
{
glyphname = brokenbar;
lastChange = "2024-02-16 04:22:05 +0000";
layers = (
{
layerId = "45F6A7D2-68A2-4980-BE0C-7C210C91EB90";
shapes = (
{
closed = 1;
nodes = (
(102,336,l),
(102,700,l),
(0,700,l),
(0,336,l)
);
},
{
closed = 1;
nodes = (
(102,-115,l),
(102,249,l),
(0,249,l),
(0,-115,l)
);
}
);
width = 102;
}
);
unicode = 166;
},
{
glyphname = section;
lastChange = "2024-02-16 04:22:05 +0000";
layers = (
{
layerId = "45F6A7D2-68A2-4980-BE0C-7C210C91EB90";
shapes = (
{
closed = 1;
nodes = (
(311,70,ls),
(417,70,o),
(493,130,o),
(493,250,cs),
(493,266,o),
(492,281,o),
(488,296,c),
(471,387,o),
(401,431,o),
(310,431,cs),
(293,431,ls),
(188,431,o),
(112,371,o),
(112,251,cs),
(112,233,o),
(113,219,o),
(117,205,c),
(134,114,o),
(204,70,o),
(294,70,cs)
);
},
{
closed = 1;
nodes = (
(310,-210,ls),
(416,-210,o),
(492,-151,o),
(492,-30,cs),
(492,53,o),
(449,99,o),
(380,123,c),
(246,123,l),
(298,70,l),
(366,68,o),
(400,32,o),
(400,-33,cs),
(400,-98,o),
(370,-122,o),
(302,-123,cs),
(247,-122,o),
(217,-105,o),
(208,-65,c),
(125,-109,l),
(153,-176,o),
(215,-210,o),
(293,-210,cs)
);
},
{
closed = 1;
nodes = (
(235,154,o),
(205,196,o),
(205,253,cs),
(205,317,o),
(235,342,o),
(302,344,cs),
(370,342,o),
(400,317,o),
(400,253,cs),
(400,196,o),
(370,154,o),
(302,151,c)
);
},
{
closed = 1;
nodes = (
(372,377,l),
(319,431,l),
(251,433,o),
(217,467,o),
(217,533,cs),
(217,597,o),
(247,623,o),
(315,624,cs),
(370,623,o),
(400,605,o),
(409,564,c),
(492,608,l),
(464,678,o),
(402,710,o),
(324,710,cs),
(307,710,ls),
(202,710,o),
(125,650,o),
(125,531,cs),
(125,447,o),
(168,402,o),
(238,377,c)
);
}
);
width = 600;
}
);
unicode = 167;
},
{
glyphname = dieresis;
lastChange = "2025-07-06 03:00:21 +0000";
layers = (
{
layerId = "45F6A7D2-68A2-4980-BE0C-7C210C91EB90";
shapes = (
{
closed = 1;
nodes = (
(103,691,l),
(103,805,l),
(-12,805,l),
(-12,691,l)
);
},
{
closed = 1;
nodes = (
(365,691,l),
(365,805,l),
(250,805,l),
(250,691,l)
);
}
);
width = 353;
}
);
unicode = 168;
},
{
glyphname = copyright;
lastChange = "2025-07-09 03:15:03 +0000";
layers = (
{
anchors = (
{
name = bottom;
pos = (390.793,171);
},
{
name = top;
pos = (390.793,496.751);
}
);
layerId = "45F6A7D2-68A2-4980-BE0C-7C210C91EB90";
shapes = (
{
closed = 1;
nodes = (
(580,-12,o),
(743,150,o),
(743,350,cs),
(743,549,o),
(580,711,o),
(382,711,cs),
(183,711,o),
(20,549,o),
(20,350,cs),
(20,150,o),
(183,-12,o),
(382,-12,cs)
);
},
{
closed = 1;
nodes = (
(232,78,o),
(110,200,o),
(110,350,cs),
(110,499,o),
(232,621,o),
(382,621,cs),
(531,621,o),
(653,499,o),
(653,350,cs),
(653,200,o),
(531,78,o),
(382,78,cs)
);
},
{
pos = (186,144);
ref = c;
scale = (0.6959,0.6959);
}
);
width = 763;
}
);
unicode = 169;
},
{
glyphname = ordfeminine;
lastChange = "2024-11-23 05:05:47 +0000";
layers = (
{
anchors = (
{
name = bottom;
pos = (178.306,387);
},
{
name = ogonek;
pos = (311.161,392.827);
},
{
name = top;
pos = (171.313,704.57);
}
);
layerId = "45F6A7D2-68A2-4980-BE0C-7C210C91EB90";
shapes = (
{
closed = 1;
nodes = (
(308,387,l),
(308,536,ls),
(308,669,o),
(207,693,o),
(117,700,c),
(58,700,l),
(58,640,l),
(117,640,l),
(179,635,o),
(244,628,o),
(244,535,cs),
(244,387,l)
);
},
{
closed = 1;
nodes = (
(238,592,ls),
(156,592,o),
(41,590,o),
(41,387,c),
(304,387,l),
(244,446,l),
(110,446,l),
(110,506,o),
(146,533,o),
(246,533,c),
(252,592,l)
);
}
);
width = 344;
}
);
unicode = 170;
},
{
glyphname = logicalnot;
lastChange = "2024-02-16 04:22:05 +0000";
layers = (
{
layerId = "45F6A7D2-68A2-4980-BE0C-7C210C91EB90";
shapes = (
{
closed = 1;
nodes = (
(538,215,l),
(538,305,l),
(63,305,l),
(63,215,l)
);
},
{
closed = 1;
nodes = (
(538,34,l),
(538,304,l),
(443,304,l),
(443,34,l)
);
}
);
width = 600;
}
);
unicode = 172;
},
{
glyphname = registered;
lastChange = "2025-07-09 03:14:02 +0000";
layers = (
{
anchors = (
{
name = bottom;
pos = (386.248,181);
},
{
name = top;
pos = (386.248,521.55);
}
);
layerId = "45F6A7D2-68A2-4980-BE0C-7C210C91EB90";
shapes = (
{
closed = 1;
nodes = (
(580,-12,o),
(743,150,o),
(743,350,cs),
(743,549,o),
(580,711,o),
(382,711,cs),
(183,711,o),
(20,549,o),
(20,350,cs),
(20,150,o),
(183,-12,o),
(382,-12,cs)
);
},
{
closed = 1;
nodes = (
(232,78,o),
(110,200,o),
(110,350,cs),
(110,499,o),
(232,621,o),
(382,621,cs),
(531,621,o),
(653,499,o),
(653,350,cs),
(653,200,o),
(531,78,o),
(382,78,cs)
);
},
{
closed = 1;
nodes = (
(307,157,l),
(308,271,l),
(341,271,o),
(533,301,o),
(526,531,c),
(237,531,l),
(237,157,l)
);
},
{
closed = 1;
nodes = (
(307,469,l),
(458,469,l),
(458,415,o),
(392,338,o),
(307,338,c)
);
},
{
closed = 1;
nodes = (
(520,157,l),
(425,331,l),
(347,331,l),
(442,157,l)
);
}
);
width = 763;
}
);
unicode = 174;
},
{
glyphname = degree;
lastChange = "2025-07-09 22:49:59 +0000";
layers = (
{
layerId = "45F6A7D2-68A2-4980-BE0C-7C210C91EB90";
shapes = (
{
closed = 1;
nodes = (
(222,458,o),
(270,516,o),
(270,582,cs),
(270,603,ls),
(270,669,o),
(222,721,o),
(160,721,cs),
(97,721,o),
(50,669,o),
(50,603,cs),
(50,582,ls),
(50,516,o),
(97,458,o),
(160,458,cs)
);
},
{
closed = 1;
nodes = (
(132,520,o),
(112,550,o),
(112,584,cs),
(112,601,ls),
(112,636,o),
(132,659,o),
(160,659,cs),
(188,659,o),
(207,636,o),
(207,601,cs),
(207,584,ls),
(207,550,o),
(188,520,o),
(160,520,cs)
);
}
);
width = 312;
}
);
metricLeft = o;
metricRight = o;
unicode = 176;
},
{
glyphname = plusminus;
lastChange = "2024-11-23 05:05:47 +0000";
layers = (
{
layerId = "45F6A7D2-68A2-4980-BE0C-7C210C91EB90";
shapes = (
{
closed = 1;
nodes = (
(502,0,l),
(502,100,l),
(97,100,l),
(97,0,l)
);
},
{
closed = 1;
nodes = (
(350,165,l),
(350,571,l),
(250,571,l),
(250,165,l)
);
},
{
closed = 1;
nodes = (
(503,322,l),
(503,415,l),
(97,415,l),
(97,322,l)
);
}
);
width = 600;
}
);
unicode = 177;
},
{
glyphname = acute;
lastChange = "2025-07-09 03:18:28 +0000";
layers = (
{
layerId = "45F6A7D2-68A2-4980-BE0C-7C210C91EB90";
shapes = (
{
closed = 1;
nodes = (
(162,621,l),
(274,760,l),
(166,760,l),
(70,621,l)
);
}
);
width = 344;
}
);
metricLeft = I;
metricRight = I;
unicode = 180;
},
{
glyphname = paragraph;
lastChange = "2024-02-16 04:22:05 +0000";
layers = (
{
layerId = "45F6A7D2-68A2-4980-BE0C-7C210C91EB90";
shapes = (
{
closed = 1;
nodes = (
(344,-92,l),
(344,700,l),
(234,700,ls),
(129,700,o),
(45,654,o),
(45,538,cs),
(45,425,o),
(129,375,o),
(234,375,cs),
(249,375,l),
(249,-92,l)
);
},
{
closed = 1;
nodes = (
(502,-92,l),
(501,700,l),
(408,700,l),
(407,-92,l)
);
}
);
width = 572;
}
);
metricLeft = J;
metricRight = H;
unicode = 182;
},
{
glyphname = ordmasculine;
lastChange = "2024-11-23 05:05:47 +0000";
layers = (
{
anchors = (
{
name = bottom;
pos = (169.707,390);
},
{
name = center;
pos = (169.707,547.119);
},
{
name = ogonek;
pos = (304.548,395.863);
},
{
name = top;
pos = (169.707,703.652);
},
{
name = topright;
pos = (326.826,703.652);
}
);
layerId = "45F6A7D2-68A2-4980-BE0C-7C210C91EB90";
shapes = (
{
closed = 1;
nodes = (
(252,386,o),
(315,459,o),
(315,540,cs),
(315,562,ls),
(315,643,o),
(252,708,o),
(170,708,cs),
(88,708,o),
(24,643,o),
(24,562,cs),
(24,540,ls),
(24,459,o),
(88,386,o),
(170,386,cs)
);
},
{
closed = 1;
nodes = (
(122,446,o),
(92,491,o),
(92,540,cs),
(92,562,ls),
(92,614,o),
(122,649,o),
(170,649,cs),
(217,649,o),
(248,614,o),
(248,562,cs),
(248,540,ls),
(248,491,o),
(217,446,o),
(170,446,cs)
);
}
);
width = 344;
}
);
unicode = 186;
},
{
glyphname = questiondown;
lastChange = "2024-11-23 05:05:47 +0000";
layers = (
{
layerId = "45F6A7D2-68A2-4980-BE0C-7C210C91EB90";
shapes = (
{
closed = 1;
nodes = (
(393,-282,l),
(393,-177,l),
(297,-177,ls),
(205,-177,o),
(155,-145,o),
(155,-62,cs),
(155,81,o),
(351,131,o),
(351,343,c),
(245,343,l),
(245,165,o),
(50,154,o),
(50,-57,cs),
(50,-214,o),
(165,-282,o),
(308,-282,cs)
);
},
{
closed = 1;
nodes = (
(353,426,l),
(353,536,l),
(243,536,l),
(243,426,l)
);
}
);
width = 423;
}
);
metricLeft = C;
metricRight = F;
unicode = 191;
},
{
glyphname = Agrave;
lastChange = "2024-11-23 05:05:47 +0000";
layers = (
{
anchors = (
{
name = bottom;
pos = (320,0);
},
{
name = ogonek;
pos = (576,10);
},
{
name = top;
pos = (269,877);
}
);
layerId = "45F6A7D2-68A2-4980-BE0C-7C210C91EB90";
shapes = (
{
closed = 1;
nodes = (
(186,0,l),
(186,233,l),
(555,233,l),
(555,343,l),
(186,343,l),
(186,699,l),
(70,700,l),
(70,0,l)
);
},
{
closed = 1;
nodes = (
(590,0,l),
(590,365,ls),
(590,641,o),
(361,700,o),
(179,700,cs),
(119,700,l),
(119,598,l),
(179,598,ls),
(309,598,o),
(474,568,o),
(474,364,cs),
(474,0,l)
);
},
{
closed = 1;
nodes = (
(365,738,l),
(269,877,l),
(168,877,l),
(280,738,l)
);
}
);
width = 640;
}
);
unicode = 192;
},
{
glyphname = AE;
kernLeft = E;
kernRight = E;
lastChange = "2024-11-23 05:05:47 +0000";
layers = (
{
anchors = (
{
name = bottom;
pos = (716,0);
},
{
name = ogonek;
pos = (949,10);
},
{
name = top;
pos = (716,700);
},
{
name = topleft;
pos = (445,700);
}
);
layerId = "45F6A7D2-68A2-4980-BE0C-7C210C91EB90";
shapes = (
{
closed = 1;
nodes = (
(946,0,l),
(946,102,l),
(886,102,ls),
(756,102,o),
(591,132,o),
(591,336,cs),
(591,355,l),
(876,355,l),
(876,457,l),
(591,457,l),
(591,593,l),
(947,593,l),
(947,700,l),
(475,700,l),
(475,335,ls),
(475,59,o),
(704,0,o),
(886,0,cs)
);
},
{
closed = 1;
nodes = (
(186,364,ls),
(186,568,o),
(351,598,o),
(481,598,cs),
(541,598,l),
(541,700,l),
(481,700,ls),
(299,700,o),
(70,641,o),
(70,365,cs),
(70,0,l),
(186,0,l)
);
},
{
closed = 1;
nodes = (
(513,268,l),
(513,378,l),
(169,378,l),
(169,268,l)
);
}
);
width = 1007;
}
);
metricLeft = A;
metricRight = E;
unicode = 198;
},
{
glyphname = Egrave;
lastChange = "2024-11-23 05:05:47 +0000";
layers = (
{
anchors = (
{
name = bottom;
pos = (291,0);
},
{
name = ogonek;
pos = (524,10);
},
{
name = top;
pos = (240,877);
},
{
name = topleft;
pos = (20,700);
}
);
layerId = "45F6A7D2-68A2-4980-BE0C-7C210C91EB90";
shapes = (
{
closed = 1;
nodes = (
(521,0,l),
(521,102,l),
(461,102,ls),
(331,102,o),
(166,132,o),
(166,336,cs),
(166,355,l),
(451,355,l),
(451,457,l),
(166,457,l),
(166,593,l),
(522,593,l),
(522,700,l),
(50,700,l),
(50,335,ls),
(50,59,o),
(279,0,o),
(461,0,cs)
);
},
{
closed = 1;
nodes = (
(336,738,l),
(240,877,l),
(139,877,l),
(251,738,l)
);
}
);
width = 582;
}
);
unicode = 200;
},
{
glyphname = Igrave;
lastChange = "2024-11-23 05:05:47 +0000";
layers = (
{
anchors = (
{
name = bottom;
pos = (128,0);
},
{
name = ogonek;
pos = (230,10);
},
{
name = top;
pos = (77,877);
},
{
name = topleft;
pos = (20,700);
}
);
layerId = "45F6A7D2-68A2-4980-BE0C-7C210C91EB90";
shapes = (
{
closed = 1;
nodes = (
(186,0,l),
(186,700,l),
(70,700,l),
(70,0,l)
);
},
{
closed = 1;
nodes = (
(173,738,l),
(77,877,l),
(-24,877,l),
(88,738,l)
);
}
);
width = 256;
}
);
unicode = 204;
},
{
glyphname = Iacute;
lastChange = "2024-11-23 05:05:47 +0000";
layers = (
{
anchors = (
{
name = bottom;
pos = (128,0);
},
{
name = ogonek;
pos = (230,10);
},
{
name = top;
pos = (188,873);
},
{
name = topleft;
pos = (20,700);
}
);
layerId = "45F6A7D2-68A2-4980-BE0C-7C210C91EB90";
shapes = (
{
closed = 1;
nodes = (
(186,0,l),
(186,700,l),
(70,700,l),
(70,0,l)
);
},
{
closed = 1;
nodes = (
(174,734,l),
(286,873,l),
(185,873,l),
(89,734,l)
);
}
);
width = 256;
}
);
unicode = 205;
},
{
glyphname = Eth;
lastChange = "2024-11-23 05:05:47 +0000";
layers = (
{
anchors = (
{
name = bottom;
pos = (407,0);
},
{
name = center;
pos = (407,350);
},
{
name = top;
pos = (407,700);
}
);
layerId = "45F6A7D2-68A2-4980-BE0C-7C210C91EB90";
shapes = (
{
closed = 1;
nodes = (
(270,0,ls),
(450,0,o),
(680,60,o),
(680,335,cs),
(680,365,ls),
(676,640,o),
(450,697,o),
(270,699,cs),
(154,700,l),
(154,0,l)
);
},
{
closed = 1;
nodes = (
(270,592,l),
(400,592,o),
(563,567,o),
(563,364,cs),
(563,336,ls),
(563,133,o),
(400,107,o),
(270,107,c)
);
},
{
closed = 1;
nodes = (
(394,295,l),
(394,405,l),
(50,405,l),
(50,295,l)
);
}
);
width = 730;
}
);
unicode = 208;
},
{
glyphname = Ograve;
lastChange = "2024-11-23 05:05:47 +0000";
layers = (
{
anchors = (
{
name = bottom;
pos = (346,0);
},
{
name = center;
pos = (346,350);
},
{
name = ogonek;
pos = (623,10);
},
{
name = top;
pos = (295,877);
},
{
name = topleft;
pos = (20,700);
},
{
name = topright;
pos = (672,700);
}
);
layerId = "45F6A7D2-68A2-4980-BE0C-7C210C91EB90";
shapes = (
{
closed = 1;
nodes = (
(514,-6,o),
(642,139,o),
(642,318,cs),
(642,384,ls),
(642,561,o),
(514,707,o),
(346,707,cs),
(177,707,o),
(50,561,o),
(50,384,cs),
(50,318,ls),
(50,139,o),
(177,-6,o),
(346,-6,cs)
);
},
{
closed = 1;
nodes = (
(235,105,o),
(170,196,o),
(170,318,cs),
(170,384,ls),
(170,510,o),
(235,596,o),
(346,596,cs),
(457,596,o),
(522,510,o),
(522,384,cs),
(522,318,ls),
(522,196,o),
(457,105,o),
(346,105,cs)
);
},
{
closed = 1;
nodes = (
(391,738,l),
(295,877,l),
(194,877,l),
(306,738,l)
);
}
);
width = 692;
}
);
unicode = 210;
},
{
glyphname = multiply;
lastChange = "2024-02-16 04:22:05 +0000";
layers = (
{
layerId = "45F6A7D2-68A2-4980-BE0C-7C210C91EB90";
shapes = (
{
closed = 1;
nodes = (
(548,94,l),
(367,314,l),
(548,535,l),
(423,535,l),
(243,314,l),
(423,94,l)
);
},
{
closed = 1;
nodes = (
(187,94,l),
(367,314,l),
(187,535,l),
(62,535,l),
(243,314,l),
(62,94,l)
);
}
);
width = 600;
}
);
unicode = 215;
},
{
glyphname = Oslash;
kernLeft = O;
kernRight = O;
lastChange = "2024-11-23 05:05:47 +0000";
layers = (
{
anchors = (
{
name = bottom;
pos = (390,0);
},
{
name = center;
pos = (390,350);
},
{
name = ogonek;
pos = (667,10);
},
{
name = top;
pos = (390,700);
},
{
name = topleft;
pos = (64,700);
},
{
name = topright;
pos = (716,700);
}
);
layerId = "45F6A7D2-68A2-4980-BE0C-7C210C91EB90";
shapes = (
{
closed = 1;
nodes = (
(558,-6,o),
(686,139,o),
(686,318,cs),
(686,384,ls),
(686,561,o),
(558,707,o),
(390,707,cs),
(221,707,o),
(94,561,o),
(94,384,cs),
(94,318,ls),
(94,139,o),
(221,-6,o),
(390,-6,cs)
);
},
{
closed = 1;
nodes = (
(279,105,o),
(214,196,o),
(214,318,cs),
(214,384,ls),
(214,510,o),
(279,596,o),
(390,596,cs),
(501,596,o),
(566,510,o),
(566,384,cs),
(566,318,ls),
(566,196,o),
(501,105,o),
(390,105,cs)
);
},
{
closed = 1;
nodes = (
(192,0,l),
(736,700,l),
(594,700,l),
(50,0,l)
);
}
);
width = 786;
}
);
metricLeft = O;
metricRight = O;
unicode = 216;
},
{
glyphname = Thorn;
kernLeft = H;
kernRight = p;
lastChange = "2025-07-06 11:08:57 +0000";
layers = (
{
layerId = "45F6A7D2-68A2-4980-BE0C-7C210C91EB90";
shapes = (
{
closed = 1;
nodes = (
(419,165,o),
(542,234,o),
(542,399,cs),
(542,563,o),
(419,632,o),
(270,632,cs),
(149,632,l),
(149,526,l),
(281,526,ls),
(377,526,o),
(438,485,o),
(438,399,cs),
(438,311,o),
(377,271,o),
(281,271,cs),
(149,271,l),
(149,165,l),
(270,165,ls)
);
},
{
closed = 1;
nodes = (
(182,0,l),
(182,738,l),
(70,738,l),
(70,0,l)
);
}
);
width = 584;
}
);
metricLeft = H;
metricRight = p;
unicode = 222;
},
{
glyphname = germandbls;
lastChange = "2024-11-23 05:05:47 +0000";
layers = (
{
layerId = "45F6A7D2-68A2-4980-BE0C-7C210C91EB90";
shapes = (
{
closed = 1;
nodes = (
(187,0,l),
(187,426,ls),
(187,601,o),
(248,619,o),
(282,619,cs),
(474,619,l),
(473,516,o),
(424,452,o),
(252,452,c),
(252,346,l),
(254,346,ls),
(394,346,o),
(591,380,o),
(591,729,c),
(287,729,l),
(285,729,l),
(283,729,ls),
(196,728,o),
(70,664,o),
(70,427,cs),
(70,194,l),
(71,0,l)
);
},
{
closed = 1;
nodes = (
(343,-1,ls),
(486,-1,o),
(601,67,o),
(601,224,cs),
(601,328,o),
(552,393,o),
(470,425,cs),
(402,452,o),
(302,452,o),
(248,452,c),
(248,345,l),
(331,345,ls),
(442,345,o),
(496,298,o),
(496,217,cs),
(496,151,o),
(446,106,o),
(354,106,cs),
(248,106,l),
(248,-1,l)
);
}
);
width = 651;
}
);
metricLeft = A;
metricRight = B;
unicode = 223;
},
{
glyphname = ae;
lastChange = "2024-11-23 05:05:47 +0000";
layers = (
{
anchors = (
{
name = bottom;
pos = (713,0);
},
{
name = ogonek;
pos = (770,10);
},
{
name = top;
pos = (650,535);
}
);
hints = (
{
horizontal = 1;
place = (172,103);
type = Stem;
},
{
place = (766.5,114.5);
type = Stem;
}
);
layerId = "45F6A7D2-68A2-4980-BE0C-7C210C91EB90";
shapes = (
{
closed = 1;
nodes = (
(529,0,l),
(529,255,ls),
(529,484,o),
(356,526,o),
(200,537,c),
(100,537,l),
(100,434,l),
(200,434,l),
(307,425,o),
(419,413,o),
(419,254,cs),
(419,0,l)
);
},
{
closed = 1;
nodes = (
(408,351,ls),
(268,351,o),
(70,349,o),
(70,0,c),
(521,0,l),
(419,102,l),
(188,102,l),
(189,205,o),
(251,251,o),
(423,251,c),
(432,351,l)
);
},
{
closed = 1;
nodes = (
(419,535,l),
(419,280,ls),
(419,51,o),
(592,9,o),
(748,-2,c),
(848,-2,l),
(848,101,l),
(748,101,l),
(641,110,o),
(529,122,o),
(529,281,cs),
(529,535,l)
);
},
{
closed = 1;
nodes = (
(540,184,ls),
(680,184,o),
(878,186,o),
(878,535,c),
(427,535,l),
(529,433,l),
(760,433,l),
(759,330,o),
(697,284,o),
(525,284,c),
(516,184,l)
);
}
);
width = 916;
}
);
unicode = 230;
},
{
glyphname = egrave;
lastChange = "2024-11-23 05:05:47 +0000";
layers = (
{
anchors = (
{
name = bottom;
pos = (334,0);
},
{
name = ogonek;
pos = (391,10);
},
{
name = top;
pos = (220,712);
}
);
hints = (
{
horizontal = 1;
place = (172,103);
type = Stem;
},
{
place = (387.5,114.5);
type = Stem;
}
);
layerId = "45F6A7D2-68A2-4980-BE0C-7C210C91EB90";
shapes = (
{
closed = 1;
nodes = (
(40,535,l),
(40,280,ls),
(40,51,o),
(213,9,o),
(369,-2,c),
(469,-2,l),
(469,101,l),
(369,101,l),
(262,110,o),
(150,122,o),
(150,281,cs),
(150,535,l)
);
},
{
closed = 1;
nodes = (
(161,184,ls),
(301,184,o),
(499,186,o),
(499,535,c),
(48,535,l),
(150,433,l),
(381,433,l),
(380,330,o),
(318,284,o),
(146,284,c),
(137,184,l)
);
},
{
closed = 1;
nodes = (
(316,573,l),
(220,712,l),
(119,712,l),
(231,573,l)
);
}
);
width = 529;
}
);
unicode = 232;
},
{
glyphname = eacute;
lastChange = "2025-07-09 03:26:42 +0000";
layers = (
{
anchors = (
{
name = bottom;
pos = (334,0);
},
{
name = ogonek;
pos = (391,10);
},
{
name = top;
pos = (331,708);
}
);
hints = (
{
horizontal = 1;
place = (172,103);
type = Stem;
},
{
place = (387.5,114.5);
type = Stem;
}
);
layerId = "45F6A7D2-68A2-4980-BE0C-7C210C91EB90";
shapes = (
{
closed = 1;
nodes = (
(40,535,l),
(40,280,ls),
(40,51,o),
(213,9,o),
(369,-2,c),
(469,-2,l),
(469,101,l),
(369,101,l),
(262,110,o),
(150,122,o),
(150,281,cs),
(150,535,l)
);
},
{
closed = 1;
nodes = (
(161,184,ls),
(301,184,o),
(499,186,o),
(499,535,c),
(48,535,l),
(150,433,l),
(381,433,l),
(380,330,o),
(318,284,o),
(146,284,c),
(137,184,l)
);
},
{
closed = 1;
nodes = (
(317,569,l),
(429,708,l),
(328,708,l),
(232,569,l)
);
}
);
width = 529;
}
);
unicode = 233;
},
{
glyphname = igrave;
lastChange = "2024-11-23 05:05:47 +0000";
layers = (
{
anchors = (
{
name = bottom;
pos = (126,0);
},
{
name = ogonek;
pos = (227,10);
},
{
name = top;
pos = (75,712);
}
);
layerId = "45F6A7D2-68A2-4980-BE0C-7C210C91EB90";
shapes = (
{
closed = 1;
nodes = (
(182,0,l),
(182,535,l),
(70,535,l),
(70,0,l)
);
},
{
closed = 1;
nodes = (
(171,573,l),
(75,712,l),
(-26,712,l),
(86,573,l)
);
}
);
width = 252;
}
);
unicode = 236;
},
{
glyphname = iacute;
lastChange = "2024-11-23 05:05:47 +0000";
layers = (
{
anchors = (
{
name = bottom;
pos = (126,0);
},
{
name = ogonek;
pos = (227,10);
},
{
name = top;
pos = (186,708);
}
);
layerId = "45F6A7D2-68A2-4980-BE0C-7C210C91EB90";
shapes = (
{
closed = 1;
nodes = (
(182,0,l),
(182,535,l),
(70,535,l),
(70,0,l)
);
},
{
closed = 1;
nodes = (
(172,569,l),
(284,708,l),
(183,708,l),
(87,569,l)
);
}
);
width = 252;
}
);
unicode = 237;
},
{
glyphname = eth;
lastChange = "2024-11-23 05:05:47 +0000";
layers = (
{
layerId = "45F6A7D2-68A2-4980-BE0C-7C210C91EB90";
shapes = (
{
closed = 1;
nodes = (
(143,626,l),
(259,617,o),
(381,565,o),
(381,400,cs),
(381,0,l),
(493,0,l),
(493,391,l),
(486,637,o),
(310,725,o),
(143,735,c)
);
},
{
closed = 1;
nodes = (
(470,107,l),
(287,107,ls),
(195,107,o),
(145,152,o),
(145,218,cs),
(145,299,o),
(199,346,o),
(310,346,cs),
(393,346,l),
(393,453,l),
(339,453,o),
(239,453,o),
(171,426,cs),
(89,394,o),
(40,329,o),
(40,225,cs),
(40,68,o),
(155,0,o),
(298,0,cs),
(470,0,l)
);
},
{
closed = 1;
nodes = (
(206,476,l),
(555,699,l),
(464,742,l),
(116,519,l)
);
}
);
width = 563;
}
);
unicode = 240;
},
{
glyphname = divide;
lastChange = "2024-11-23 05:05:47 +0000";
layers = (
{
layerId = "45F6A7D2-68A2-4980-BE0C-7C210C91EB90";
shapes = (
{
closed = 1;
nodes = (
(313,471,ls),
(349,471,o),
(379,497,o),
(379,533,cs),
(379,568,o),
(350,595,o),
(313,595,cs),
(301,595,ls),
(264,595,o),
(231,568,o),
(231,533,cs),
(231,498,o),
(264,471,o),
(301,471,cs)
);
},
{
closed = 1;
nodes = (
(313,103,ls),
(350,103,o),
(379,130,o),
(379,165,cs),
(379,200,o),
(350,227,o),
(313,227,cs),
(301,227,ls),
(264,227,o),
(231,200,o),
(231,165,cs),
(231,130,o),
(264,103,o),
(301,103,cs)
);
},
{
closed = 1;
nodes = (
(591,297,l),
(591,397,l),
(9,397,l),
(9,297,l)
);
}
);
width = 600;
}
);
unicode = 247;
},
{
glyphname = oslash;
kernLeft = o;
kernRight = o;
lastChange = "2025-07-07 04:36:55 +0000";
layers = (
{
anchors = (
{
name = bottom;
pos = (330,0);
},
{
name = center;
pos = (330,268);
},
{
name = ogonek;
pos = (560,10);
},
{
name = top;
pos = (330,535);
},
{
name = topright;
pos = (598,535);
}
);
layerId = "45F6A7D2-68A2-4980-BE0C-7C210C91EB90";
shapes = (
{
closed = 1;
nodes = (
(162,0,l),
(590,550,l),
(478,550,l),
(50,0,l)
);
},
{
closed = 1;
nodes = (
(470,-7,o),
(578,118,o),
(578,256,cs),
(578,294,ls),
(578,431,o),
(470,543,o),
(330,543,cs),
(190,543,o),
(82,431,o),
(82,294,cs),
(82,256,ls),
(82,118,o),
(190,-7,o),
(330,-7,cs)
);
},
{
closed = 1;
nodes = (
(249,95,o),
(197,172,o),
(197,256,cs),
(197,294,ls),
(197,382,o),
(249,441,o),
(330,441,cs),
(411,441,o),
(463,382,o),
(463,294,cs),
(463,256,ls),
(463,172,o),
(411,95,o),
(330,95,cs)
);
}
);
width = 632;
}
);
metricLeft = o;
metricRight = o;
unicode = 248;
},
{
glyphname = thorn;
lastChange = "2025-07-08 23:39:46 +0000";
layers = (
{
layerId = "45F6A7D2-68A2-4980-BE0C-7C210C91EB90";
shapes = (
{
closed = 1;
nodes = (
(413,42,o),
(536,111,o),
(536,276,cs),
(536,440,o),
(413,509,o),
(264,509,cs),
(143,509,l),
(143,403,l),
(275,403,ls),
(371,403,o),
(432,362,o),
(432,276,cs),
(432,188,o),
(371,148,o),
(275,148,cs),
(143,148,l),
(143,42,l),
(264,42,ls)
);
},
{
closed = 1;
nodes = (
(176,-103,l),
(176,650,l),
(70,650,l),
(70,-103,l)
);
}
);
width = 586;
}
);
metricLeft = H;
metricRight = b;
unicode = 254;
},
{
glyphname = OE;
kernLeft = O;
kernRight = E;
lastChange = "2024-11-23 05:05:47 +0000";
layers = (
{
anchors = (
{
name = bottom;
pos = (785,0);
},
{
name = center;
pos = (346,350);
},
{
name = ogonek;
pos = (1018,10);
},
{
name = top;
pos = (785,700);
},
{
name = topleft;
pos = (514,700);
},
{
name = topright;
pos = (672,700);
}
);
layerId = "45F6A7D2-68A2-4980-BE0C-7C210C91EB90";
shapes = (
{
closed = 1;
nodes = (
(514,-6,o),
(642,139,o),
(642,318,cs),
(642,384,ls),
(642,561,o),
(514,707,o),
(346,707,cs),
(177,707,o),
(50,561,o),
(50,384,cs),
(50,318,ls),
(50,139,o),
(177,-6,o),
(346,-6,cs)
);
},
{
closed = 1;
nodes = (
(235,105,o),
(170,196,o),
(170,318,cs),
(170,384,ls),
(170,510,o),
(235,596,o),
(346,596,cs),
(457,596,o),
(522,510,o),
(522,384,cs),
(522,318,ls),
(522,196,o),
(457,105,o),
(346,105,cs)
);
},
{
closed = 1;
nodes = (
(1015,0,l),
(1015,102,l),
(955,102,ls),
(825,102,o),
(660,132,o),
(660,336,cs),
(660,355,l),
(945,355,l),
(945,457,l),
(660,457,l),
(660,593,l),
(1016,593,l),
(1016,700,l),
(544,700,l),
(544,335,ls),
(544,59,o),
(773,0,o),
(955,0,cs)
);
}
);
width = 1076;
}
);
metricLeft = O;
metricRight = E;
unicode = 338;
},
{
glyphname = oe;
lastChange = "2024-11-23 05:05:47 +0000";
layers = (
{
anchors = (
{
name = bottom;
pos = (743,0);
},
{
name = center;
pos = (298,268);
},
{
name = ogonek;
pos = (800,10);
},
{
name = top;
pos = (680,535);
},
{
name = topright;
pos = (566,535);
}
);
hints = (
{
horizontal = 1;
place = (172,103);
type = Stem;
},
{
place = (796.5,114.5);
type = Stem;
}
);
layerId = "45F6A7D2-68A2-4980-BE0C-7C210C91EB90";
shapes = (
{
closed = 1;
nodes = (
(438,-7,o),
(546,118,o),
(546,256,cs),
(546,294,ls),
(546,431,o),
(438,543,o),
(298,543,cs),
(158,543,o),
(50,431,o),
(50,294,cs),
(50,256,ls),
(50,118,o),
(158,-7,o),
(298,-7,cs)
);
},
{
closed = 1;
nodes = (
(217,95,o),
(165,172,o),
(165,256,cs),
(165,294,ls),
(165,382,o),
(217,441,o),
(298,441,cs),
(379,441,o),
(431,382,o),
(431,294,cs),
(431,256,ls),
(431,172,o),
(379,95,o),
(298,95,cs)
);
},
{
closed = 1;
nodes = (
(449,535,l),
(449,280,ls),
(449,51,o),
(622,9,o),
(778,-2,c),
(878,-2,l),
(878,101,l),
(778,101,l),
(671,110,o),
(559,122,o),
(559,281,cs),
(559,535,l)
);
},
{
closed = 1;
nodes = (
(570,184,ls),
(710,184,o),
(908,186,o),
(908,535,c),
(457,535,l),
(559,433,l),
(790,433,l),
(789,330,o),
(727,284,o),
(555,284,c),
(546,184,l)
);
}
);
width = 938;
}
);
metricRight = e;
unicode = 339;
},
{
glyphname = circumflex;
lastChange = "2025-07-10 01:36:34 +0000";
layers = (
{
layerId = "45F6A7D2-68A2-4980-BE0C-7C210C91EB90";
shapes = (
{
closed = 1;
nodes = (
(27,690,l),
(27,586,l),
(183,688,l),
(339,586,l),
(339,690,l),
(183,792,l)
);
}
);
width = 365;
}
);
unicode = 710;
},
{
glyphname = breve;
lastChange = "2025-07-10 01:37:42 +0000";
layers = (
{
layerId = "45F6A7D2-68A2-4980-BE0C-7C210C91EB90";
shapes = (
{
closed = 1;
nodes = (
(184,607,ls),
(275,607,o),
(328,668,o),
(328,750,c),
(256,750,l),
(253,702,o),
(229,677,o),
(184,677,cs),
(172,677,ls),
(127,677,o),
(103,702,o),
(100,750,c),
(28,750,l),
(25,668,o),
(81,607,o),
(172,607,cs)
);
}
);
width = 356;
}
);
unicode = 728;
},
{
glyphname = ogonek;
lastChange = "2024-02-22 04:27:52 +0000";
layers = (
{
layerId = "45F6A7D2-68A2-4980-BE0C-7C210C91EB90";
shapes = (
{
closed = 1;
nodes = (
(199,-112,l),
(147,-121,o),
(119,-117,o),
(119,-77,cs),
(119,-36,o),
(181,13,o),
(181,13,c),
(138,13,l),
(79,-6,o),
(50,-36,o),
(50,-90,cs),
(50,-163,o),
(128,-183,o),
(209,-167,c)
);
}
);
width = 259;
}
);
unicode = 731;
},
{
glyphname = hungarumlaut;
lastChange = "2024-02-16 04:22:05 +0000";
layers = (
{
layerId = "45F6A7D2-68A2-4980-BE0C-7C210C91EB90";
shapes = (
{
closed = 1;
nodes = (
(333,585,l),
(449,725,l),
(360,725,l),
(267,585,l)
);
},
{
closed = 1;
nodes = (
(218,586,l),
(311,725,l),
(222,725,l),
(152,586,l)
);
}
);
width = 600;
}
);
unicode = 733;
},
{
glyphname = endash;
lastChange = "2024-02-16 04:22:05 +0000";
layers = (
{
layerId = "45F6A7D2-68A2-4980-BE0C-7C210C91EB90";
shapes = (
{
closed = 1;
nodes = (
(500,270,l),
(500,377,l),
(0,375,l),
(0,268,l)
);
}
);
width = 500;
}
);
unicode = 8211;
},
{
glyphname = emdash;
lastChange = "2024-02-16 04:22:05 +0000";
layers = (
{
layerId = "45F6A7D2-68A2-4980-BE0C-7C210C91EB90";
shapes = (
{
closed = 1;
nodes = (
(820,270,l),
(820,377,l),
(0,377,l),
(0,270,l)
);
}
);
width = 820;
}
);
unicode = 8212;
},
{
glyphname = quoteleft;
lastChange = "2024-02-16 04:22:05 +0000";
layers = (
{
layerId = "45F6A7D2-68A2-4980-BE0C-7C210C91EB90";
shapes = (
{
closed = 1;
nodes = (
(155,614,o),
(171,712,o),
(254,726,c),
(254,803,l),
(99,791,o),
(50,683,o),
(50,516,c),
(155,515,l)
);
}
);
width = 284;
}
);
metricLeft = O;
unicode = 8216;
},
{
glyphname = quoteright;
kernLeft = an;
lastChange = "2024-03-28 05:44:03 +0000";
layers = (
{
layerId = "45F6A7D2-68A2-4980-BE0C-7C210C91EB90";
shapes = (
{
closed = 1;
nodes = (
(176,527,o),
(224,634,o),
(224,801,c),
(121,801,l),
(121,700,o),
(98,601,o),
(20,593,c),
(20,515,l)
);
}
);
width = 254;
}
);
unicode = 8217;
},
{
glyphname = quotedblleft;
lastChange = "2024-04-06 02:00:40 +0000";
layers = (
{
layerId = "45F6A7D2-68A2-4980-BE0C-7C210C91EB90";
shapes = (
{
closed = 1;
nodes = (
(291,513,l),
(291,611,o),
(309,710,o),
(375,727,c),
(375,800,l),
(263,771,o),
(198,646,o),
(198,513,c)
);
},
{
closed = 1;
nodes = (
(143,513,l),
(143,609,o),
(161,709,o),
(227,727,c),
(227,800,l),
(113,770,o),
(50,647,o),
(50,513,c)
);
}
);
width = 395;
}
);
metricLeft = O;
unicode = 8220;
},
{
glyphname = quotedblright;
lastChange = "2024-04-06 02:01:23 +0000";
layers = (
{
layerId = "45F6A7D2-68A2-4980-BE0C-7C210C91EB90";
shapes = (
{
closed = 1;
nodes = (
(282,543,o),
(345,666,o),
(345,800,c),
(252,800,l),
(252,704,o),
(234,604,o),
(168,586,c),
(168,513,l)
);
},
{
closed = 1;
nodes = (
(132,542,o),
(197,667,o),
(197,800,c),
(104,800,l),
(104,702,o),
(86,603,o),
(20,586,c),
(20,513,l)
);
}
);
width = 395;
}
);
metricRight = O;
unicode = 8221;
},
{
glyphname = quotedblbase;
lastChange = "2024-04-27 01:32:28 +0000";
layers = (
{
layerId = "45F6A7D2-68A2-4980-BE0C-7C210C91EB90";
shapes = (
{
closed = 1;
nodes = (
(229,-140,o),
(333,-80,o),
(333,73,c),
(251,74,l),
(251,-47,o),
(217,-88,o),
(194,-95,c),
(194,-152,l)
);
},
{
closed = 1;
nodes = (
(55,-140,o),
(159,-80,o),
(159,73,c),
(77,74,l),
(77,-47,o),
(43,-88,o),
(20,-95,c),
(20,-152,l)
);
}
);
width = 353;
}
);
unicode = 8222;
},
{
glyphname = dagger;
lastChange = "2024-04-06 08:04:05 +0000";
layers = (
{
layerId = "45F6A7D2-68A2-4980-BE0C-7C210C91EB90";
shapes = (
{
closed = 1;
nodes = (
(274,0,l),
(274,700,l),
(172,700,l),
(172,0,l)
);
},
{
closed = 1;
nodes = (
(415,440,l),
(415,535,l),
(30,535,l),
(30,440,l)
);
}
);
width = 445;
}
);
metricLeft = "=|F";
metricRight = F;
unicode = 8224;
},
{
glyphname = daggerdbl;
lastChange = "2024-02-16 04:22:05 +0000";
layers = (
{
layerId = "45F6A7D2-68A2-4980-BE0C-7C210C91EB90";
shapes = (
{
closed = 1;
nodes = (
(254,-57,l),
(254,700,l),
(152,700,l),
(152,-57,l)
);
},
{
closed = 1;
nodes = (
(395,108,l),
(395,203,l),
(10,203,l),
(10,108,l)
);
},
{
closed = 1;
nodes = (
(395,440,l),
(395,535,l),
(10,535,l),
(10,440,l)
);
}
);
width = 405;
}
);
unicode = 8225;
},
{
glyphname = bullet;
lastChange = "2024-11-23 05:05:47 +0000";
layers = (
{
layerId = "45F6A7D2-68A2-4980-BE0C-7C210C91EB90";
shapes = (
{
closed = 1;
nodes = (
(228,103,l),
(406,280,l),
(228,458,l),
(50,280,l)
);
}
);
width = 456;
}
);
metricLeft = O;
metricRight = O;
unicode = 8226;
},
{
glyphname = ellipsis;
lastChange = "2025-07-08 23:59:08 +0000";
layers = (
{
layerId = "45F6A7D2-68A2-4980-BE0C-7C210C91EB90";
shapes = (
{
closed = 1;
nodes = (
(398,1,l),
(398,135,l),
(264,135,l),
(264,1,l)
);
},
{
closed = 1;
nodes = (
(184,1,l),
(184,135,l),
(50,135,l),
(50,1,l)
);
},
{
closed = 1;
nodes = (
(184,1,l),
(184,135,l),
(50,135,l),
(50,1,l)
);
},
{
closed = 1;
nodes = (
(606,1,l),
(606,135,l),
(472,135,l),
(472,1,l)
);
}
);
width = 656;
}
);
metricLeft = O;
metricRight = O;
unicode = 8230;
},
{
glyphname = perthousand;
lastChange = "2024-11-23 05:05:47 +0000";
layers = (
{
layerId = "45F6A7D2-68A2-4980-BE0C-7C210C91EB90";
shapes = (
{
closed = 1;
nodes = (
(215,0,l),
(587,702,l),
(474,702,l),
(102,0,l)
);
},
{
closed = 1;
nodes = (
(607,-13,o),
(662,54,o),
(662,130,cs),
(662,154,ls),
(662,230,o),
(607,290,o),
(535,290,cs),
(463,290,o),
(409,230,o),
(409,154,cs),
(409,130,ls),
(409,54,o),
(463,-13,o),
(535,-13,cs)
);
},
{
closed = 1;
nodes = (
(503,58,o),
(480,93,o),
(480,132,cs),
(480,152,ls),
(480,192,o),
(503,218,o),
(535,218,cs),
(568,218,o),
(590,192,o),
(590,152,cs),
(590,132,ls),
(590,93,o),
(568,58,o),
(535,58,cs)
);
},
{
closed = 1;
nodes = (
(248,405,o),
(303,472,o),
(303,548,cs),
(303,572,ls),
(303,648,o),
(248,708,o),
(176,708,cs),
(104,708,o),
(50,648,o),
(50,572,cs),
(50,548,ls),
(50,472,o),
(104,405,o),
(176,405,cs)
);
},
{
closed = 1;
nodes = (
(144,476,o),
(121,511,o),
(121,550,cs),
(121,570,ls),
(121,610,o),
(144,636,o),
(176,636,cs),
(209,636,o),
(231,610,o),
(231,570,cs),
(231,550,ls),
(231,511,o),
(209,476,o),
(176,476,cs)
);
},
{
closed = 1;
nodes = (
(892,-13,o),
(947,54,o),
(947,130,cs),
(947,154,ls),
(947,230,o),
(892,290,o),
(820,290,cs),
(748,290,o),
(694,230,o),
(694,154,cs),
(694,130,ls),
(694,54,o),
(748,-13,o),
(820,-13,cs)
);
},
{
closed = 1;
nodes = (
(788,58,o),
(765,93,o),
(765,132,cs),
(765,152,ls),
(765,192,o),
(788,218,o),
(820,218,cs),
(853,218,o),
(875,192,o),
(875,152,cs),
(875,132,ls),
(875,93,o),
(853,58,o),
(820,58,cs)
);
}
);
width = 997;
}
);
metricLeft = O;
metricRight = O;
unicode = 8240;
},
{
glyphname = guilsinglleft;
lastChange = "2024-02-16 04:22:05 +0000";
layers = (
{
layerId = "45F6A7D2-68A2-4980-BE0C-7C210C91EB90";
shapes = (
{
closed = 1;
nodes = (
(162,266,l),
(288,487,l),
(176,487,l),
(50,266,l)
);
},
{
closed = 1;
nodes = (
(288,58,l),
(162,266,l),
(50,266,l),
(176,58,l)
);
}
);
width = 338;
}
);
metricLeft = O;
metricRight = O;
unicode = 8249;
},
{
glyphname = guilsinglright;
lastChange = "2024-02-16 04:22:05 +0000";
layers = (
{
layerId = "45F6A7D2-68A2-4980-BE0C-7C210C91EB90";
shapes = (
{
closed = 1;
nodes = (
(288,266,l),
(162,487,l),
(50,487,l),
(176,266,l)
);
},
{
closed = 1;
nodes = (
(162,58,l),
(288,266,l),
(176,266,l),
(50,58,l)
);
}
);
width = 338;
}
);
metricLeft = O;
metricRight = O;
unicode = 8250;
},
{
glyphname = trademark;
lastChange = "2024-02-16 04:22:05 +0000";
layers = (
{
layerId = "45F6A7D2-68A2-4980-BE0C-7C210C91EB90";
shapes = (
{
closed = 1;
nodes = (
(338,370,l),
(338,647,l),
(393,642,o),
(450,621,o),
(450,539,cs),
(450,370,l),
(505,370,l),
(505,647,l),
(559,642,o),
(617,621,o),
(617,539,cs),
(617,370,l),
(672,370,l),
(672,449,ls),
(672,504,o),
(673,449,o),
(672,540,cs),
(671,656,o),
(583,699,o),
(505,699,cs),
(503,699,o),
(499,700,o),
(496,700,cs),
(451,700,l),
(451,655,l),
(420,681,o),
(378,699,o),
(338,699,cs),
(335,699,o),
(334,700,o),
(331,700,cs),
(284,700,l),
(284,370,l)
);
},
{
closed = 1;
nodes = (
(221,420,l),
(167,424,o),
(113,445,o),
(113,527,cs),
(113,647,l),
(220,647,l),
(220,700,l),
(0,700,l),
(0,647,l),
(57,647,l),
(57,617,ls),
(57,563,o),
(54,617,o),
(57,527,cs),
(58,412,o),
(144,372,o),
(221,370,c)
);
}
);
width = 672;
}
);
unicode = 8482;
},
{
glyphname = partialdiff;
lastChange = "2024-02-16 04:22:05 +0000";
layers = (
{
layerId = "45F6A7D2-68A2-4980-BE0C-7C210C91EB90";
shapes = (
{
closed = 1;
nodes = (
(316,0,ls),
(458,0,o),
(545,76,o),
(545,226,cs),
(545,340,o),
(493,392,o),
(407,424,c),
(430,434,o),
(454,451,o),
(472,467,cs),
(532,521,o),
(546,610,o),
(545,710,c),
(103,710,l),
(103,604,l),
(435,604,l),
(427,550,o),
(387,516,o),
(341,493,cs),
(303,474,l),
(200,429,l),
(114,397,o),
(68,340,o),
(68,226,cs),
(68,76,o),
(155,0,o),
(297,0,cs)
);
},
{
closed = 1;
nodes = (
(215,87,o),
(175,138,o),
(175,219,cs),
(175,300,o),
(215,361,o),
(306,361,cs),
(397,361,o),
(437,300,o),
(437,219,cs),
(437,138,o),
(397,87,o),
(306,87,cs)
);
}
);
width = 605;
}
);
unicode = 8706;
},
{
glyphname = product;
lastChange = "2024-04-06 08:03:59 +0000";
layers = (
{
layerId = "45F6A7D2-68A2-4980-BE0C-7C210C91EB90";
shapes = (
{
closed = 1;
nodes = (
(484,-84,l),
(484,700,l),
(382,700,l),
(382,-84,l)
);
},
{
closed = 1;
nodes = (
(227,-84,l),
(227,700,l),
(125,700,l),
(125,-84,l)
);
},
{
closed = 1;
nodes = (
(580,590,l),
(580,700,l),
(30,700,l),
(30,590,l)
);
}
);
width = 610;
}
);
metricLeft = "=|F";
metricRight = F;
unicode = 8719;
},
{
glyphname = summation;
lastChange = "2024-02-16 04:22:05 +0000";
layers = (
{
layerId = "45F6A7D2-68A2-4980-BE0C-7C210C91EB90";
shapes = (
{
closed = 1;
nodes = (
(517,-124,l),
(517,-38,l),
(174,-38,l),
(439,288,l),
(174,614,l),
(517,614,l),
(517,700,l),
(60,700,l),
(60,614,l),
(328,288,l),
(61,-38,l),
(60,-124,l)
);
}
);
width = 600;
}
);
unicode = 8721;
},
{
glyphname = radical;
lastChange = "2024-02-16 04:22:05 +0000";
layers = (
{
layerId = "45F6A7D2-68A2-4980-BE0C-7C210C91EB90";
shapes = (
{
closed = 1;
nodes = (
(250,-115,l),
(249,-113,l),
(437,614,l),
(584,614,l),
(584,700,l),
(358,700,l),
(196,49,l),
(146,240,l),
(45,240,l),
(148,-113,l),
(148,-115,l)
);
}
);
width = 624;
}
);
unicode = 8730;
},
{
glyphname = infinity;
lastChange = "2024-02-16 04:22:05 +0000";
layers = (
{
layerId = "45F6A7D2-68A2-4980-BE0C-7C210C91EB90";
shapes = (
{
closed = 1;
nodes = (
(879,-10,o),
(986,100,o),
(986,269,cs),
(986,435,o),
(881,549,o),
(734,549,cs),
(618,549,o),
(558,493,o),
(517,390,c),
(517,148,l),
(558,45,o),
(618,-10,o),
(734,-10,cs)
);
},
{
closed = 1;
nodes = (
(418,-10,o),
(478,45,o),
(519,148,c),
(519,390,l),
(478,493,o),
(418,549,o),
(302,549,cs),
(155,549,o),
(50,435,o),
(50,269,cs),
(50,100,o),
(157,-10,o),
(302,-10,cs)
);
},
{
closed = 1;
nodes = (
(221,98,o),
(151,163,o),
(148,269,cs),
(150,375,o),
(211,440,o),
(303,440,cs),
(386,440,o),
(456,375,o),
(459,269,cs),
(457,163,o),
(397,98,o),
(303,98,cs)
);
},
{
closed = 1;
nodes = (
(639,98,o),
(579,163,o),
(577,269,cs),
(580,375,o),
(650,440,o),
(733,440,cs),
(825,440,o),
(886,375,o),
(888,269,cs),
(885,163,o),
(815,98,o),
(733,98,cs)
);
}
);
width = 1036;
}
);
metricLeft = O;
metricRight = O;
unicode = 8734;
},
{
glyphname = approxequal;
lastChange = "2024-04-27 03:23:39 +0000";
layers = (
{
layerId = "45F6A7D2-68A2-4980-BE0C-7C210C91EB90";
shapes = (
{
closed = 1;
nodes = (
(470,296,o),
(524,348,o),
(524,423,cs),
(524,457,l),
(442,457,l),
(442,431,ls),
(442,388,o),
(415,372,o),
(396,372,cs),
(383,372,o),
(372,374,o),
(355,383,cs),
(294,418,o),
(278,466,o),
(206,466,cs),
(131,466,o),
(77,412,o),
(77,339,cs),
(77,307,l),
(159,307,l),
(159,331,ls),
(159,374,o),
(186,390,o),
(205,390,cs),
(218,390,o),
(229,388,o),
(246,378,cs),
(307,344,o),
(327,296,o),
(395,296,cs)
);
},
{
closed = 1;
nodes = (
(470,99,o),
(524,151,o),
(524,226,cs),
(524,260,l),
(442,260,l),
(442,234,ls),
(442,191,o),
(415,175,o),
(396,175,cs),
(383,175,o),
(372,177,o),
(355,186,cs),
(294,221,o),
(278,269,o),
(206,269,cs),
(131,269,o),
(77,215,o),
(77,142,cs),
(77,110,l),
(159,110,l),
(159,134,ls),
(159,177,o),
(186,193,o),
(205,193,cs),
(218,193,o),
(229,191,o),
(246,181,cs),
(307,147,o),
(327,99,o),
(395,99,cs)
);
}
);
width = 600;
}
);
unicode = 8776;
},
{
glyphname = notequal;
lastChange = "2024-02-16 04:22:05 +0000";
layers = (
{
layerId = "45F6A7D2-68A2-4980-BE0C-7C210C91EB90";
shapes = (
{
closed = 1;
nodes = (
(218,59,l),
(486,633,l),
(390,633,l),
(122,59,l)
);
},
{
closed = 1;
nodes = (
(551,214,l),
(551,299,l),
(72,298,l),
(72,212,l)
);
},
{
closed = 1;
nodes = (
(551,412,l),
(551,497,l),
(72,496,l),
(72,410,l)
);
}
);
width = 600;
}
);
unicode = 8800;
},
{
glyphname = lessequal;
lastChange = "2024-04-27 03:22:20 +0000";
layers = (
{
layerId = "45F6A7D2-68A2-4980-BE0C-7C210C91EB90";
shapes = (
{
closed = 1;
nodes = (
(545,252,l),
(183,366,l),
(545,479,l),
(545,564,l),
(55,408,l),
(55,323,l),
(545,167,l)
);
},
{
closed = 1;
nodes = (
(545,34,l),
(545,119,l),
(55,119,l),
(55,34,l)
);
}
);
width = 600;
}
);
unicode = 8804;
},
{
glyphname = greaterequal;
lastChange = "2024-04-27 03:21:58 +0000";
layers = (
{
layerId = "45F6A7D2-68A2-4980-BE0C-7C210C91EB90";
shapes = (
{
closed = 1;
nodes = (
(545,323,l),
(545,408,l),
(55,564,l),
(55,479,l),
(417,366,l),
(55,252,l),
(55,167,l)
);
},
{
closed = 1;
nodes = (
(545,34,l),
(545,119,l),
(55,119,l),
(55,34,l)
);
}
);
width = 600;
}
);
unicode = 8805;
},
{
glyphname = lozenge;
lastChange = "2025-07-09 03:12:04 +0000";
layers = (
{
layerId = "45F6A7D2-68A2-4980-BE0C-7C210C91EB90";
shapes = (
{
closed = 1;
nodes = (
(146,286,l),
(259,494,l),
(371,286,l),
(457,286,l),
(300,574,l),
(217,574,l),
(60,286,l)
);
},
{
closed = 1;
nodes = (
(300,0,l),
(457,288,l),
(371,288,l),
(259,80,l),
(146,288,l),
(60,288,l),
(217,0,l)
);
}
);
width = 517;
}
);
unicode = 9674;
},
{
glyphname = asciicircum;
lastChange = "2024-04-06 08:03:59 +0000";
layers = (
{
layerId = "45F6A7D2-68A2-4980-BE0C-7C210C91EB90";
shapes = (
{
closed = 1;
nodes = (
(98,416,l),
(196,618,l),
(294,416,l),
(362,416,l),
(223,700,l),
(169,700,l),
(30,416,l)
);
}
);
width = 392;
}
);
metricLeft = "=|F";
metricRight = F;
unicode = 94;
},
{
export = 0;
glyphname = newGlyph;
lastChange = "2024-04-27 03:46:35 +0000";
layers = (
{
layerId = "45F6A7D2-68A2-4980-BE0C-7C210C91EB90";
shapes = (
{
closed = 1;
nodes = (
(127,-7,ls),
(180,-7,o),
(535,6,o),
(535,406,c),
(70,406,l),
(70,296,l),
(417,296,l),
(417,136,o),
(164,91,o),
(70,91,c),
(70,-9,l)
);
},
{
closed = 1;
nodes = (
(230,406,l),
(532,588,l),
(362,588,l),
(73,406,l)
);
},
{
closed = 1;
nodes = (
(532,588,l),
(532,698,l),
(37,698,l),
(37,588,l)
);
}
);
width = 595;
}
);
},
{
glyphname = fraction;
lastChange = "2024-02-16 04:22:05 +0000";
layers = (
{
layerId = "45F6A7D2-68A2-4980-BE0C-7C210C91EB90";
shapes = (
{
closed = 1;
nodes = (
(150,-148,l),
(529,698,l),
(418,698,l),
(39,-148,l)
);
}
);
width = 600;
}
);
unicode = 8260;
},
{
glyphname = periodcentered;
lastChange = "2024-11-23 05:05:47 +0000";
layers = (
{
layerId = "45F6A7D2-68A2-4980-BE0C-7C210C91EB90";
shapes = (
{
closed = 1;
nodes = (
(167,134,l),
(295,262,l),
(167,389,l),
(40,262,l)
);
}
);
width = 335;
}
);
unicode = 183;
},
{
glyphname = quotesinglbase;
lastChange = "2024-02-16 04:22:05 +0000";
layers = (
{
layerId = "45F6A7D2-68A2-4980-BE0C-7C210C91EB90";
shapes = (
{
closed = 1;
nodes = (
(205,-185,o),
(254,-77,o),
(254,90,c),
(149,91,l),
(149,-8,o),
(133,-106,o),
(50,-120,c),
(50,-197,l)
);
}
);
width = 304;
}
);
metricLeft = O;
metricRight = O;
unicode = 8218;
},
{
glyphname = minus;
lastChange = "2024-04-27 03:23:09 +0000";
layers = (
{
layerId = "45F6A7D2-68A2-4980-BE0C-7C210C91EB90";
shapes = (
{
closed = 1;
nodes = (
(523,270,l),
(523,380,l),
(77,380,l),
(77,270,l)
);
}
);
width = 600;
}
);
unicode = 8722;
},
{
glyphname = emptyset;
lastChange = "2024-11-23 05:05:47 +0000";
layers = (
{
layerId = "45F6A7D2-68A2-4980-BE0C-7C210C91EB90";
shapes = (
{
closed = 1;
nodes = (
(123,-2,l),
(637,630,l),
(516,630,l),
(0,-2,l)
);
},
{
closed = 1;
nodes = (
(489,13,o),
(624,148,o),
(624,313,cs),
(624,479,o),
(489,614,o),
(324,614,cs),
(159,614,o),
(24,479,o),
(24,313,cs),
(24,148,o),
(159,13,o),
(324,13,cs)
);
},
{
closed = 1;
nodes = (
(211,108,o),
(119,200,o),
(119,313,cs),
(119,427,o),
(211,519,o),
(324,519,cs),
(437,519,o),
(529,427,o),
(529,313,cs),
(529,200,o),
(437,108,o),
(324,108,cs)
);
}
);
width = 637;
}
);
unicode = 8709;
},
{
glyphname = integral;
lastChange = "2024-04-06 08:03:59 +0000";
layers = (
{
layerId = "45F6A7D2-68A2-4980-BE0C-7C210C91EB90";
shapes = (
{
closed = 1;
nodes = (
(127,-142,o),
(275,-80,o),
(275,138,cs),
(275,479,ls),
(274,636,o),
(378,653,o),
(417,653,c),
(417,762,l),
(320,760,o),
(168,698,o),
(168,480,cs),
(168,139,ls),
(169,-18,o),
(69,-35,o),
(30,-35,c),
(30,-144,l)
);
}
);
width = 447;
}
);
metricLeft = "=|F";
metricRight = F;
unicode = 8747;
},
{
glyphname = bar;
lastChange = "2024-02-16 04:22:05 +0000";
layers = (
{
layerId = "45F6A7D2-68A2-4980-BE0C-7C210C91EB90";
shapes = (
{
closed = 1;
nodes = (
(102,-115,l),
(102,700,l),
(0,700,l),
(0,-115,l)
);
}
);
width = 102;
}
);
unicode = 124;
},
{
glyphname = dotaccent;
lastChange = "2024-11-23 05:05:47 +0000";
layers = (
{
layerId = "45F6A7D2-68A2-4980-BE0C-7C210C91EB90";
shapes = (
{
closed = 1;
nodes = (
(167,660,l),
(167,780,l),
(47,780,l),
(47,660,l)
);
}
);
width = 214;
}
);
unicode = 729;
},
{
glyphname = macron;
lastChange = "2024-02-27 21:53:41 +0000";
layers = (
{
layerId = "45F6A7D2-68A2-4980-BE0C-7C210C91EB90";
shapes = (
{
closed = 1;
nodes = (
(469,569,l),
(469,662,l),
(50,662,l),
(50,569,l)
);
}
);
width = 519;
}
);
unicode = 175;
},
{
glyphname = ring;
lastChange = "2025-07-10 01:39:28 +0000";
layers = (
{
layerId = "45F6A7D2-68A2-4980-BE0C-7C210C91EB90";
shapes = (
{
closed = 1;
nodes = (
(207,551,o),
(253,602,o),
(253,654,cs),
(253,663,ls),
(253,716,o),
(207,761,o),
(152,761,cs),
(97,761,o),
(50,716,o),
(50,663,cs),
(50,654,ls),
(50,602,o),
(97,551,o),
(152,551,cs)
);
},
{
closed = 1;
nodes = (
(119,606,o),
(104,631,o),
(104,655,cs),
(104,660,ls),
(104,684,o),
(119,706,o),
(152,706,cs),
(184,706,o),
(199,684,o),
(199,660,cs),
(199,655,ls),
(199,631,o),
(184,606,o),
(152,606,cs)
);
}
);
width = 303;
}
);
unicode = 730;
},
{
glyphname = tilde;
lastChange = "2025-07-10 01:38:46 +0000";
layers = (
{
layerId = "45F6A7D2-68A2-4980-BE0C-7C210C91EB90";
shapes = (
{
closed = 1;
nodes = (
(331,608,o),
(368,680,o),
(368,726,cs),
(368,736,l),
(292,736,l),
(292,730,ls),
(292,700,o),
(267,687,o),
(252,687,cs),
(242,687,o),
(237,689,o),
(223,695,cs),
(173,719,o),
(160,738,o),
(108,738,cs),
(45,737,o),
(3,684,o),
(3,635,cs),
(3,609,l),
(78,609,l),
(78,615,ls),
(78,646,o),
(105,658,o),
(120,658,cs),
(127,658,o),
(133,656,o),
(148,650,cs),
(197,627,o),
(210,607,o),
(261,607,cs)
);
}
);
width = 371;
}
);
unicode = 732;
},
{
glyphname = AEmacron;
lastChange = "2024-11-23 05:05:47 +0000";
layers = (
{
anchors = (
{
name = bottom;
pos = (716,0);
},
{
name = ogonek;
pos = (949,10);
},
{
name = top;
pos = (711,874);
},
{
name = topleft;
pos = (445,700);
}
);
layerId = "45F6A7D2-68A2-4980-BE0C-7C210C91EB90";
shapes = (
{
closed = 1;
nodes = (
(946,0,l),
(946,102,l),
(886,102,ls),
(756,102,o),
(591,132,o),
(591,336,cs),
(591,355,l),
(876,355,l),
(876,457,l),
(591,457,l),
(591,593,l),
(947,593,l),
(947,700,l),
(475,700,l),
(475,335,ls),
(475,59,o),
(704,0,o),
(886,0,cs)
);
},
{
closed = 1;
nodes = (
(186,364,ls),
(186,568,o),
(351,598,o),
(481,598,cs),
(541,598,l),
(541,700,l),
(481,700,ls),
(299,700,o),
(70,641,o),
(70,365,cs),
(70,0,l),
(186,0,l)
);
},
{
closed = 1;
nodes = (
(513,268,l),
(513,378,l),
(169,378,l),
(169,268,l)
);
},
{
closed = 1;
nodes = (
(923,768,l),
(923,861,l),
(504,861,l),
(504,768,l)
);
}
);
width = 1007;
}
);
unicode = 482;
},
{
glyphname = Cacute;
lastChange = "2024-11-23 05:05:47 +0000";
layers = (
{
anchors = (
{
name = bottom;
pos = (284,0);
},
{
name = top;
pos = (344,873);
}
);
layerId = "45F6A7D2-68A2-4980-BE0C-7C210C91EB90";
shapes = (
{
closed = 1;
nodes = (
(521,0,l),
(521,107,l),
(461,107,ls),
(331,107,o),
(166,132,o),
(166,336,cs),
(166,590,l),
(522,590,l),
(522,700,l),
(50,700,l),
(50,335,ls),
(50,59,o),
(283,0,o),
(461,0,cs)
);
},
{
closed = 1;
nodes = (
(330,734,l),
(442,873,l),
(341,873,l),
(245,734,l)
);
}
);
width = 567;
}
);
unicode = 262;
},
{
glyphname = Dcroat;
lastChange = "2024-11-23 05:05:47 +0000";
layers = (
{
anchors = (
{
name = bottom;
pos = (407,0);
},
{
name = center;
pos = (407,350);
},
{
name = top;
pos = (407,700);
}
);
layerId = "45F6A7D2-68A2-4980-BE0C-7C210C91EB90";
shapes = (
{
closed = 1;
nodes = (
(270,0,ls),
(450,0,o),
(680,60,o),
(680,335,cs),
(680,365,ls),
(676,640,o),
(450,697,o),
(270,699,cs),
(154,700,l),
(154,0,l)
);
},
{
closed = 1;
nodes = (
(270,592,l),
(400,592,o),
(563,567,o),
(563,364,cs),
(563,336,ls),
(563,133,o),
(400,107,o),
(270,107,c)
);
},
{
closed = 1;
nodes = (
(394,295,l),
(394,405,l),
(50,405,l),
(50,295,l)
);
}
);
width = 730;
}
);
unicode = 272;
},
{
glyphname = Edotaccent;
lastChange = "2024-11-23 05:05:47 +0000";
layers = (
{
anchors = (
{
name = bottom;
pos = (291,0);
},
{
name = ogonek;
pos = (524,10);
},
{
name = top;
pos = (288,880);
},
{
name = topleft;
pos = (20,700);
}
);
layerId = "45F6A7D2-68A2-4980-BE0C-7C210C91EB90";
shapes = (
{
closed = 1;
nodes = (
(521,0,l),
(521,102,l),
(461,102,ls),
(331,102,o),
(166,132,o),
(166,336,cs),
(166,355,l),
(451,355,l),
(451,457,l),
(166,457,l),
(166,593,l),
(522,593,l),
(522,700,l),
(50,700,l),
(50,335,ls),
(50,59,o),
(279,0,o),
(461,0,cs)
);
},
{
closed = 1;
nodes = (
(348,760,l),
(348,880,l),
(228,880,l),
(228,760,l)
);
}
);
width = 582;
}
);
unicode = 278;
},
{
glyphname = Edotbelow;
lastChange = "2024-11-23 05:05:47 +0000";
layers = (
{
anchors = (
{
name = bottom;
pos = (291,-213);
},
{
name = ogonek;
pos = (524,10);
},
{
name = top;
pos = (291,700);
},
{
name = topleft;
pos = (20,700);
}
);
layerId = "45F6A7D2-68A2-4980-BE0C-7C210C91EB90";
shapes = (
{
closed = 1;
nodes = (
(521,0,l),
(521,102,l),
(461,102,ls),
(331,102,o),
(166,132,o),
(166,336,cs),
(166,355,l),
(451,355,l),
(451,457,l),
(166,457,l),
(166,593,l),
(522,593,l),
(522,700,l),
(50,700,l),
(50,335,ls),
(50,59,o),
(279,0,o),
(461,0,cs)
);
},
{
closed = 1;
nodes = (
(351,-194,l),
(351,-74,l),
(231,-74,l),
(231,-194,l)
);
}
);
width = 582;
}
);
unicode = 7864;
},
{
glyphname = Schwa;
lastChange = "2024-11-23 05:05:47 +0000";
layers = (
{
anchors = (
{
name = bottom;
pos = (301,0);
},
{
name = top;
pos = (301,700);
}
);
layerId = "45F6A7D2-68A2-4980-BE0C-7C210C91EB90";
shapes = (
{
closed = 1;
nodes = (
(351,0,o),
(543,83,o),
(543,335,cs),
(543,700,l),
(71,700,l),
(71,590,l),
(427,590,l),
(427,336,ls),
(427,157,o),
(299,114,o),
(180,107,c),
(180,293,l),
(70,293,l),
(70,0,l),
(180,0,ls)
);
},
{
closed = 1;
nodes = (
(534,292,l),
(535,402,l),
(70,402,l),
(70,292,l)
);
}
);
width = 593;
}
);
metricLeft = H;
metricRight = D;
unicode = 399;
},
{
glyphname = Hbar;
lastChange = "2024-11-23 05:05:47 +0000";
layers = (
{
anchors = (
{
name = bottom;
pos = (349,0);
},
{
name = center;
pos = (349,350);
},
{
name = top;
pos = (349,700);
},
{
name = topleft;
pos = (55,700);
}
);
layerId = "45F6A7D2-68A2-4980-BE0C-7C210C91EB90";
shapes = (
{
closed = 1;
nodes = (
(221,0,l),
(221,305,l),
(477,305,l),
(477,0,l),
(593,0,l),
(593,700,l),
(477,700,l),
(477,415,l),
(221,415,l),
(221,700,l),
(105,700,l),
(105,0,l)
);
},
{
closed = 1;
nodes = (
(654,513,l),
(654,620,l),
(50,618,l),
(50,511,l)
);
}
);
width = 684;
}
);
metricLeft = T;
metricRight = F;
unicode = 294;
},
{
glyphname = Hdotbelow;
lastChange = "2024-11-23 05:05:47 +0000";
layers = (
{
anchors = (
{
name = bottom;
pos = (314,-213);
},
{
name = center;
pos = (314,350);
},
{
name = top;
pos = (314,700);
},
{
name = topleft;
pos = (20,700);
}
);
layerId = "45F6A7D2-68A2-4980-BE0C-7C210C91EB90";
shapes = (
{
closed = 1;
nodes = (
(186,0,l),
(186,305,l),
(442,305,l),
(442,0,l),
(558,0,l),
(558,700,l),
(442,700,l),
(442,415,l),
(186,415,l),
(186,700,l),
(70,700,l),
(70,0,l)
);
},
{
closed = 1;
nodes = (
(374,-194,l),
(374,-74,l),
(254,-74,l),
(254,-194,l)
);
}
);
width = 628;
}
);
unicode = 7716;
},
{
glyphname = IJ;
lastChange = "2024-11-23 05:05:47 +0000";
layers = (
{
anchors = (
{
name = bottom;
pos = (481,0);
},
{
name = ogonek;
pos = (230,10);
},
{
name = top;
pos = (598,700);
},
{
name = topleft;
pos = (20,700);
}
);
layerId = "45F6A7D2-68A2-4980-BE0C-7C210C91EB90";
shapes = (
{
closed = 1;
nodes = (
(186,0,l),
(186,700,l),
(70,700,l),
(70,0,l)
);
},
{
closed = 1;
nodes = (
(468,9,o),
(648,87,o),
(655,333,c),
(655,700,l),
(539,700,l),
(539,334,ls),
(539,162,o),
(417,117,o),
(301,108,c),
(301,-1,l)
);
}
);
width = 705;
}
);
unicode = 306;
},
{
glyphname = Idotaccent;
lastChange = "2024-11-23 05:05:47 +0000";
layers = (
{
anchors = (
{
name = bottom;
pos = (128,0);
},
{
name = ogonek;
pos = (230,10);
},
{
name = top;
pos = (125,880);
},
{
name = topleft;
pos = (20,700);
}
);
layerId = "45F6A7D2-68A2-4980-BE0C-7C210C91EB90";
shapes = (
{
closed = 1;
nodes = (
(186,0,l),
(186,700,l),
(70,700,l),
(70,0,l)
);
},
{
closed = 1;
nodes = (
(185,760,l),
(185,880,l),
(65,880,l),
(65,760,l)
);
}
);
width = 256;
}
);
unicode = 304;
},
{
glyphname = Jacute;
lastChange = "2024-11-23 05:05:47 +0000";
layers = (
{
anchors = (
{
name = bottom;
pos = (225,0);
},
{
name = top;
pos = (402,873);
}
);
layerId = "45F6A7D2-68A2-4980-BE0C-7C210C91EB90";
shapes = (
{
closed = 1;
nodes = (
(212,9,o),
(392,87,o),
(399,333,c),
(399,700,l),
(283,700,l),
(283,334,ls),
(283,162,o),
(161,117,o),
(45,108,c),
(45,-1,l)
);
},
{
closed = 1;
nodes = (
(388,734,l),
(500,873,l),
(399,873,l),
(303,734,l)
);
}
);
width = 449;
}
);
},
{
glyphname = Kcommaaccent;
lastChange = "2024-11-23 05:05:47 +0000";
layers = (
{
anchors = (
{
name = bottom;
pos = (322,-279);
},
{
name = top;
pos = (322,700);
}
);
layerId = "45F6A7D2-68A2-4980-BE0C-7C210C91EB90";
shapes = (
{
closed = 1;
nodes = (
(186,0,l),
(186,295,l),
(425,359,o),
(542,535,o),
(542,700,c),
(429,700,l),
(425,584,o),
(340,437,o),
(186,413,c),
(186,700,l),
(70,700,l),
(70,0,l)
);
},
{
closed = 1;
nodes = (
(584,0,l),
(383,398,l),
(251,398,l),
(452,0,l)
);
},
{
closed = 1;
nodes = (
(314,-230,l),
(400,-31,l),
(309,-31,l),
(223,-230,l)
);
}
);
width = 614;
}
);
unicode = 310;
},
{
glyphname = Kmacronbelow;
lastChange = "2024-11-23 05:05:47 +0000";
layers = (
{
anchors = (
{
name = bottom;
pos = (322,-155);
},
{
name = top;
pos = (322,700);
}
);
layerId = "45F6A7D2-68A2-4980-BE0C-7C210C91EB90";
shapes = (
{
closed = 1;
nodes = (
(186,0,l),
(186,295,l),
(425,359,o),
(542,535,o),
(542,700,c),
(429,700,l),
(425,584,o),
(340,437,o),
(186,413,c),
(186,700,l),
(70,700,l),
(70,0,l)
);
},
{
closed = 1;
nodes = (
(584,0,l),
(383,398,l),
(251,398,l),
(452,0,l)
);
},
{
closed = 1;
nodes = (
(531,-155,l),
(531,-62,l),
(112,-62,l),
(112,-155,l)
);
}
);
width = 614;
}
);
unicode = 7732;
},
{
glyphname = Lacute;
lastChange = "2024-11-23 05:05:47 +0000";
layers = (
{
anchors = (
{
name = bottom;
pos = (283,0);
},
{
name = center;
pos = (283,350);
},
{
name = top;
pos = (179,885);
},
{
name = topright;
pos = (545,700);
}
);
layerId = "45F6A7D2-68A2-4980-BE0C-7C210C91EB90";
shapes = (
{
closed = 1;
nodes = (
(520,0,l),
(520,110,l),
(187,110,l),
(186,700,l),
(70,700,l),
(70,0,l)
);
},
{
closed = 1;
nodes = (
(165,746,l),
(277,885,l),
(176,885,l),
(80,746,l)
);
}
);
width = 550;
}
);
unicode = 313;
},
{
glyphname = Lcaron;
lastChange = "2025-07-18 13:55:42 +0000";
layers = (
{
background = {
anchors = (
{
name = bottom;
pos = (283,0);
},
{
name = center;
pos = (283,350);
},
{
name = top;
pos = (283,700);
},
{
name = topright;
pos = (545,700);
}
);
shapes = (
{
closed = 1;
nodes = (
(520,0,l),
(520,110,l),
(187,110,l),
(186,700,l),
(70,700,l),
(70,0,l)
);
},
{
closed = 1;
nodes = (
(370,496,l),
(456,695,l),
(365,695,l),
(279,496,l)
);
}
);
};
layerId = "45F6A7D2-68A2-4980-BE0C-7C210C91EB90";
shapes = (
{
ref = L;
},
{
pos = (239,-54);
ref = caroncomb.alt;
}
);
width = 550;
}
);
unicode = 317;
},
{
glyphname = Lcommaaccent;
lastChange = "2024-11-23 05:05:47 +0000";
layers = (
{
anchors = (
{
name = bottom;
pos = (283,-279);
},
{
name = center;
pos = (283,350);
},
{
name = top;
pos = (283,700);
},
{
name = topright;
pos = (545,700);
}
);
layerId = "45F6A7D2-68A2-4980-BE0C-7C210C91EB90";
shapes = (
{
closed = 1;
nodes = (
(520,0,l),
(520,110,l),
(187,110,l),
(186,700,l),
(70,700,l),
(70,0,l)
);
},
{
closed = 1;
nodes = (
(275,-230,l),
(361,-31,l),
(270,-31,l),
(184,-230,l)
);
}
);
width = 550;
}
);
unicode = 315;
},
{
glyphname = Ldotbelow;
lastChange = "2024-11-23 05:05:47 +0000";
layers = (
{
anchors = (
{
name = bottom;
pos = (283,-213);
},
{
name = center;
pos = (283,350);
},
{
name = top;
pos = (283,700);
},
{
name = topright;
pos = (545,700);
}
);
layerId = "45F6A7D2-68A2-4980-BE0C-7C210C91EB90";
shapes = (
{
closed = 1;
nodes = (
(520,0,l),
(520,110,l),
(187,110,l),
(186,700,l),
(70,700,l),
(70,0,l)
);
},
{
closed = 1;
nodes = (
(343,-194,l),
(343,-74,l),
(223,-74,l),
(223,-194,l)
);
}
);
width = 550;
}
);
unicode = 7734;
},
{
glyphname = Ldotbelowmacron;
lastChange = "2024-11-23 05:05:47 +0000";
layers = (
{
anchors = (
{
name = bottom;
pos = (283,-213);
},
{
name = center;
pos = (283,350);
},
{
name = top;
pos = (278,874);
},
{
name = topright;
pos = (545,700);
}
);
layerId = "45F6A7D2-68A2-4980-BE0C-7C210C91EB90";
shapes = (
{
closed = 1;
nodes = (
(520,0,l),
(520,110,l),
(187,110,l),
(186,700,l),
(70,700,l),
(70,0,l)
);
},
{
closed = 1;
nodes = (
(343,-194,l),
(343,-74,l),
(223,-74,l),
(223,-194,l)
);
},
{
closed = 1;
nodes = (
(490,768,l),
(490,861,l),
(71,861,l),
(71,768,l)
);
}
);
width = 550;
}
);
unicode = 7736;
},
{
glyphname = Lmacronbelow;
lastChange = "2024-11-23 05:05:47 +0000";
layers = (
{
anchors = (
{
name = bottom;
pos = (283,-155);
},
{
name = center;
pos = (283,350);
},
{
name = top;
pos = (283,700);
},
{
name = topright;
pos = (545,700);
}
);
layerId = "45F6A7D2-68A2-4980-BE0C-7C210C91EB90";
shapes = (
{
closed = 1;
nodes = (
(520,0,l),
(520,110,l),
(187,110,l),
(186,700,l),
(70,700,l),
(70,0,l)
);
},
{
closed = 1;
nodes = (
(492,-155,l),
(492,-62,l),
(73,-62,l),
(73,-155,l)
);
}
);
width = 550;
}
);
unicode = 7738;
},
{
glyphname = Lslash;
lastChange = "2024-11-23 05:05:47 +0000";
layers = (
{
anchors = (
{
name = bottom;
pos = (329,0);
},
{
name = center;
pos = (329,350);
},
{
name = top;
pos = (329,700);
},
{
name = topright;
pos = (591,700);
}
);
layerId = "45F6A7D2-68A2-4980-BE0C-7C210C91EB90";
shapes = (
{
closed = 1;
nodes = (
(566,0,l),
(566,110,l),
(233,110,l),
(232,700,l),
(116,700,l),
(116,0,l)
);
},
{
closed = 1;
nodes = (
(50,244,l),
(357,438,l),
(357,544,l),
(50,350,l)
);
}
);
width = 616;
}
);
unicode = 321;
},
{
glyphname = Mdotaccent;
lastChange = "2024-11-23 05:05:47 +0000";
layers = (
{
anchors = (
{
name = bottom;
pos = (512,0);
},
{
name = top;
pos = (509,880);
}
);
layerId = "45F6A7D2-68A2-4980-BE0C-7C210C91EB90";
shapes = (
{
closed = 1;
nodes = (
(578,0,l),
(578,357,ls),
(578,633,o),
(349,700,o),
(167,700,cs),
(107,700,l),
(107,598,l),
(167,598,ls),
(297,598,o),
(466,560,o),
(466,356,cs),
(466,0,l)
);
},
{
closed = 1;
nodes = (
(186,0,l),
(185,699,l),
(70,700,l),
(70,0,l)
);
},
{
closed = 1;
nodes = (
(578,0,l),
(577,699,l),
(466,700,l),
(466,0,l)
);
},
{
closed = 1;
nodes = (
(974,0,l),
(974,365,ls),
(974,641,o),
(745,700,o),
(563,700,cs),
(503,700,l),
(503,598,l),
(563,598,ls),
(693,598,o),
(858,568,o),
(858,364,cs),
(858,0,l)
);
},
{
closed = 1;
nodes = (
(569,760,l),
(569,880,l),
(449,880,l),
(449,760,l)
);
}
);
width = 1024;
}
);
unicode = 7744;
},
{
glyphname = Germandbls;
lastChange = "2024-11-23 05:05:47 +0000";
layers = (
{
layerId = "45F6A7D2-68A2-4980-BE0C-7C210C91EB90";
shapes = (
{
closed = 1;
nodes = (
(187,0,l),
(187,426,ls),
(187,601,o),
(248,619,o),
(282,619,cs),
(474,619,l),
(473,516,o),
(424,452,o),
(252,452,c),
(252,346,l),
(254,346,ls),
(394,346,o),
(591,380,o),
(591,729,c),
(287,729,l),
(285,729,l),
(283,729,ls),
(196,728,o),
(70,664,o),
(70,427,cs),
(70,194,l),
(71,0,l)
);
},
{
closed = 1;
nodes = (
(343,-1,ls),
(486,-1,o),
(601,67,o),
(601,224,cs),
(601,328,o),
(552,393,o),
(470,425,cs),
(402,452,o),
(302,452,o),
(248,452,c),
(248,345,l),
(331,345,ls),
(442,345,o),
(496,298,o),
(496,217,cs),
(496,151,o),
(446,106,o),
(354,106,cs),
(248,106,l),
(248,-1,l)
);
}
);
width = 651;
}
);
unicode = 7838;
},
{
glyphname = Saltillo;
lastChange = "2024-11-23 05:05:47 +0000";
layers = (
{
layerId = "45F6A7D2-68A2-4980-BE0C-7C210C91EB90";
shapes = (
{
closed = 1;
nodes = (
(141,501,l),
(141,800,l),
(50,800,l),
(50,501,l)
);
}
);
width = 191;
}
);
unicode = 42891;
},
{
export = 0;
glyphname = A.001;
kernLeft = L;
lastChange = "2024-04-27 03:38:23 +0000";
layers = (
{
layerId = "45F6A7D2-68A2-4980-BE0C-7C210C91EB90";
shapes = (
{
closed = 1;
nodes = (
(186,0,l),
(186,233,l),
(439,233,l),
(439,0,l),
(555,0,l),
(555,365,ls),
(552,620,o),
(357,694,o),
(185,700,cs),
(70,700,l),
(70,0,l)
);
},
{
closed = 1;
nodes = (
(186,591,l),
(307,585,o),
(439,544,o),
(439,364,cs),
(439,343,l),
(186,343,l)
);
}
);
width = 605;
}
);
metricLeft = "=H";
metricRight = "=N";
},
{
export = 0;
glyphname = J.alt;
lastChange = "2024-04-27 03:38:23 +0000";
layers = (
{
layerId = "45F6A7D2-68A2-4980-BE0C-7C210C91EB90";
shapes = (
{
closed = 1;
nodes = (
(212,8,o),
(394,86,o),
(397,333,cs),
(398,453,o),
(397,407,o),
(397,700,c),
(281,700,l),
(281,334,ls),
(281,162,o),
(161,117,o),
(45,107,c),
(45,-2,l)
);
}
);
width = 447;
}
);
metricLeft = "=|C";
metricRight = D;
},
{
export = 0;
glyphname = P.alt;
lastChange = "2024-02-16 04:22:05 +0000";
layers = (
{
layerId = "45F6A7D2-68A2-4980-BE0C-7C210C91EB90";
shapes = (
{
closed = 1;
nodes = (
(186,0,l),
(186,275,l),
(358,275,o),
(385,271,o),
(456,335,cs),
(517,393,o),
(533,495,o),
(501,571,cs),
(471,651,o),
(389,699,o),
(293,699,cs),
(70,699,l),
(70,0,l)
);
},
{
closed = 1;
nodes = (
(186,586,l),
(287,586,ls),
(358,586,o),
(411,562,o),
(411,484,cs),
(411,409,o),
(361,382,o),
(287,382,cs),
(186,382,l)
);
}
);
width = 547;
}
);
metricLeft = P;
metricRight = P;
},
{
export = 0;
glyphname = S.alt;
lastChange = "2024-02-16 04:22:05 +0000";
layers = (
{
layerId = "45F6A7D2-68A2-4980-BE0C-7C210C91EB90";
shapes = (
{
closed = 1;
nodes = (
(245,0,ls),
(385,0,o),
(498,65,o),
(503,215,c),
(498,356,o),
(398,396,o),
(295,427,cs),
(241,442,o),
(186,502,o),
(187,589,c),
(486,590,l),
(486,701,l),
(72,700,l),
(70,608,l),
(70,603,ls),
(70,456,o),
(157,356,o),
(268,332,cs),
(340,315,o),
(395,292,o),
(398,215,c),
(395,138,o),
(345,110,o),
(256,110,cs),
(53,110,l),
(53,0,l)
);
}
);
width = 573;
}
);
},
{
export = 0;
glyphname = M.old;
lastChange = "2024-04-27 03:38:23 +0000";
layers = (
{
background = {
shapes = (
{
closed = 1;
nodes = (
(890,0,l),
(890,84,o),
(890,273,o),
(890,364,cs),
(890,610,o),
(689,700,o),
(529,700,c),
(422,700,l),
(422,604,l),
(373,663,o),
(278,700,o),
(181,700,c),
(70,700,l),
(70,0,l),
(186,0,l),
(186,587,l),
(302,587,o),
(422,535,o),
(422,363,cs),
(422,0,l),
(535,0,l),
(535,580,l),
(651,580,o),
(774,535,o),
(774,363,cs),
(774,0,l)
);
}
);
};
layerId = "45F6A7D2-68A2-4980-BE0C-7C210C91EB90";
shapes = (
{
closed = 1;
nodes = (
(186,0,l),
(186,587,l),
(302,587,o),
(423,504,o),
(423,332,cs),
(423,0,l),
(535,0,l),
(535,587,l),
(651,587,o),
(774,535,o),
(774,363,cs),
(774,0,l),
(890,0,l),
(890,363,ls),
(890,579,o),
(776,684,o),
(513,700,c),
(423,700,l),
(423,604,l),
(342,687,o),
(275,700,o),
(149,700,cs),
(70,700,l),
(70,0,l)
);
}
);
width = 940;
}
);
metricLeft = "=H";
metricRight = "=N";
},
{
export = 0;
glyphname = O_in_two;
lastChange = "2024-02-16 04:22:05 +0000";
layers = (
{
layerId = "45F6A7D2-68A2-4980-BE0C-7C210C91EB90";
shapes = (
{
closed = 1;
nodes = (
(514,-6,o),
(642,139,o),
(642,318,cs),
(642,384,ls),
(642,561,o),
(514,707,o),
(346,707,cs),
(177,707,o),
(50,561,o),
(50,384,cs),
(50,318,ls),
(50,139,o),
(177,-6,o),
(346,-6,cs)
);
},
{
closed = 1;
nodes = (
(235,105,o),
(170,196,o),
(170,318,cs),
(170,384,ls),
(170,510,o),
(235,596,o),
(346,596,cs),
(457,596,o),
(522,510,o),
(522,384,cs),
(522,318,ls),
(522,196,o),
(457,105,o),
(346,105,cs)
);
}
);
width = 692;
}
);
},
{
glyphname = dcaron;
lastChange = "2025-07-18 13:55:51 +0000";
layers = (
{
background = {
anchors = (
{
name = bottom;
pos = (291,0);
},
{
name = center;
pos = (291,268);
},
{
name = top;
pos = (291,840);
},
{
name = topright;
pos = (562,840);
}
);
shapes = (
{
closed = 1;
nodes = (
(453,433,l),
(453,535,l),
(57,535,l),
(159,433,l)
);
},
{
closed = 1;
nodes = (
(511,0,l),
(511,800,l),
(399,800,l),
(399,0,l)
);
},
{
closed = 1;
nodes = (
(479,0,l),
(479,103,l),
(386,103,ls),
(297,106,o),
(160,124,o),
(160,283,cs),
(160,535,l),
(50,535,l),
(50,282,ls),
(50,53,o),
(225,2,o),
(381,0,cs)
);
},
{
closed = 1;
nodes = (
(646,590,l),
(732,789,l),
(641,789,l),
(555,590,l)
);
}
);
};
layerId = "45F6A7D2-68A2-4980-BE0C-7C210C91EB90";
shapes = (
{
ref = d;
},
{
pos = (515,40);
ref = caroncomb.alt;
}
);
width = 581;
}
);
unicode = 271;
},
{
glyphname = dcroat;
lastChange = "2025-07-07 04:37:24 +0000";
layers = (
{
anchors = (
{
name = bottom;
pos = (291,0);
},
{
name = center;
pos = (291,268);
},
{
name = top;
pos = (291,840);
},
{
name = topright;
pos = (562,840);
}
);
layerId = "45F6A7D2-68A2-4980-BE0C-7C210C91EB90";
shapes = (
{
closed = 1;
nodes = (
(575,652,l),
(575,740,l),
(277,738,l),
(277,650,l)
);
},
{
closed = 1;
nodes = (
(454,433,l),
(454,535,l),
(58,535,l),
(160,433,l)
);
},
{
closed = 1;
nodes = (
(50,535,l),
(50,335,ls),
(50,59,o),
(223,0,o),
(405,0,cs),
(473,0,l),
(473,102,l),
(405,102,ls),
(275,102,o),
(166,132,o),
(166,336,cs),
(166,535,l)
);
},
{
closed = 1;
nodes = (
(512,0,l),
(512,800,l),
(400,800,l),
(400,0,l)
);
}
);
width = 615;
}
);
metricLeft = d;
metricRight = l;
unicode = 273;
},
{
glyphname = schwa;
lastChange = "2024-11-23 05:05:47 +0000";
layers = (
{
anchors = (
{
name = bottom;
pos = (195,0);
},
{
name = ogonek;
pos = (138,10);
},
{
name = top;
pos = (258,535);
}
);
hints = (
{
horizontal = 1;
origin = (0,11);
place = (535,103);
type = Stem;
},
{
origin = (0,11);
place = (379,114.5);
type = Stem;
}
);
layerId = "45F6A7D2-68A2-4980-BE0C-7C210C91EB90";
shapes = (
{
closed = 1;
nodes = (
(379,281,ls),
(379,122,o),
(267,110,o),
(160,101,c),
(60,101,l),
(60,-2,l),
(160,-2,l),
(316,9,o),
(489,51,o),
(489,280,cs),
(489,535,l),
(379,535,l)
);
},
{
closed = 1;
nodes = (
(383,284,l),
(211,284,o),
(149,330,o),
(148,433,c),
(379,433,l),
(481,535,l),
(30,535,l),
(30,186,o),
(228,184,o),
(368,184,cs),
(392,184,l)
);
}
);
width = 529;
}
);
unicode = 601;
},
{
glyphname = hbar;
lastChange = "2025-07-07 04:49:24 +0000";
layers = (
{
anchors = (
{
name = bottom;
pos = (285,0);
},
{
name = center;
pos = (285,420);
},
{
name = top;
pos = (285,840);
}
);
layerId = "45F6A7D2-68A2-4980-BE0C-7C210C91EB90";
shapes = (
{
closed = 1;
nodes = (
(70,0,l),
(182,0,l),
(182,800,l),
(70,800,l)
);
},
{
closed = 1;
nodes = (
(530,0,l),
(530,200,ls),
(530,476,o),
(357,535,o),
(175,535,cs),
(107,535,l),
(107,433,l),
(175,433,ls),
(305,433,o),
(414,403,o),
(414,199,cs),
(414,0,l)
);
},
{
closed = 1;
nodes = (
(316,652,l),
(316,740,l),
(18,738,l),
(18,650,l)
);
}
);
width = 570;
}
);
unicode = 295;
},
{
glyphname = idotless;
lastChange = "2024-02-22 04:50:19 +0000";
layers = (
{
anchors = (
{
name = bottom;
pos = (126,0);
},
{
name = ogonek;
pos = (227,10);
},
{
name = top;
pos = (126,535);
}
);
layerId = "45F6A7D2-68A2-4980-BE0C-7C210C91EB90";
shapes = (
{
closed = 1;
nodes = (
(182,0,l),
(182,535,l),
(70,535,l),
(70,0,l)
);
}
);
width = 252;
}
);
metricLeft = "=H";
metricRight = "=|H";
unicode = 305;
},
{
glyphname = jdotless;
kernLeft = y;
kernRight = i;
lastChange = "2024-04-27 03:38:08 +0000";
layers = (
{
anchors = (
{
name = bottom;
pos = (144,-200);
},
{
name = top;
pos = (184,535);
}
);
layerId = "45F6A7D2-68A2-4980-BE0C-7C210C91EB90";
shapes = (
{
closed = 1;
nodes = (
(107,-201,o),
(238,-139,o),
(238,80,cs),
(238,535,l),
(126,535,l),
(126,80,ls),
(126,-77,o),
(54,-86,o),
(20,-91,c),
(20,-200,l)
);
}
);
width = 288;
}
);
metricLeft = j;
metricRight = j;
unicode = 567;
},
{
glyphname = lcaron;
lastChange = "2025-07-18 13:55:57 +0000";
layers = (
{
background = {
anchors = (
{
name = bottom;
pos = (164,0);
},
{
name = center;
pos = (164,420);
},
{
name = top;
pos = (164,840);
},
{
name = topright;
pos = (308,840);
}
);
shapes = (
{
closed = 1;
nodes = (
(288,108,l),
(254,113,o),
(182,122,o),
(182,279,cs),
(182,800,l),
(70,800,l),
(70,279,ls),
(70,60,o),
(201,-2,o),
(288,-1,c)
);
},
{
closed = 1;
nodes = (
(303,590,l),
(389,789,l),
(298,789,l),
(212,590,l)
);
}
);
};
layerId = "45F6A7D2-68A2-4980-BE0C-7C210C91EB90";
shapes = (
{
ref = l;
},
{
pos = (172,40);
ref = caroncomb.alt;
}
);
width = 328;
}
);
unicode = 318;
},
{
glyphname = lslash;
lastChange = "2025-07-09 22:54:42 +0000";
layers = (
{
anchors = (
{
name = bottom;
pos = (216,0);
},
{
name = center;
pos = (216,420);
},
{
name = top;
pos = (216,840);
},
{
name = topright;
pos = (360,840);
}
);
layerId = "45F6A7D2-68A2-4980-BE0C-7C210C91EB90";
shapes = (
{
closed = 1;
nodes = (
(340,108,l),
(306,113,o),
(234,122,o),
(234,279,cs),
(234,800,l),
(122,800,l),
(122,279,ls),
(122,60,o),
(253,-2,o),
(340,-1,c)
);
},
{
closed = 1;
nodes = (
(20,324,l),
(327,518,l),
(327,624,l),
(20,430,l)
);
}
);
width = 360;
}
);
metricLeft = f;
metricRight = t;
unicode = 322;
},
{
glyphname = tcaron;
lastChange = "2025-07-18 13:56:04 +0000";
layers = (
{
background = {
anchors = (
{
name = bottom;
pos = (205,0);
},
{
name = center;
pos = (205,268);
},
{
name = top;
pos = (205,535);
},
{
name = topright;
pos = (379,840);
}
);
shapes = (
{
closed = 1;
nodes = (
(337,108,l),
(303,113,o),
(231,122,o),
(229,279,cs),
(229,700,l),
(119,700,l),
(119,279,ls),
(119,60,o),
(250,-2,o),
(337,-1,c)
);
},
{
closed = 1;
nodes = (
(337,433,l),
(337,535,l),
(20,535,l),
(20,432,l)
);
},
{
closed = 1;
nodes = (
(464,590,l),
(550,789,l),
(459,789,l),
(373,590,l)
);
}
);
};
layerId = "45F6A7D2-68A2-4980-BE0C-7C210C91EB90";
shapes = (
{
ref = t;
},
{
pos = (263,40);
ref = caroncomb.alt;
}
);
width = 357;
}
);
unicode = 357;
},
{
glyphname = saltillo;
lastChange = "2024-11-23 05:05:47 +0000";
layers = (
{
layerId = "45F6A7D2-68A2-4980-BE0C-7C210C91EB90";
shapes = (
{
closed = 1;
nodes = (
(141,401,l),
(141,700,l),
(50,700,l),
(50,401,l)
);
}
);
width = 191;
}
);
unicode = 42892;
},
{
export = 0;
glyphname = a.alt;
kernLeft = ra;
lastChange = "2025-07-18 13:30:43 +0000";
layers = (
{
layerId = "45F6A7D2-68A2-4980-BE0C-7C210C91EB90";
shapes = (
{
closed = 1;
nodes = (
(529,0,l),
(529,200,ls),
(529,476,o),
(356,535,o),
(174,535,cs),
(106,535,l),
(106,433,l),
(174,433,ls),
(304,433,o),
(413,403,o),
(413,199,cs),
(413,0,l)
);
},
{
closed = 1;
nodes = (
(406,351,ls),
(266,351,o),
(68,349,o),
(68,0,c),
(519,0,l),
(417,102,l),
(186,102,l),
(187,205,o),
(249,251,o),
(421,251,c),
(430,351,l)
);
}
);
width = 589;
}
);
metricLeft = n;
},
{
export = 0;
glyphname = e.alt;
lastChange = "2025-07-18 13:30:43 +0000";
layers = (
{
hints = (
{
horizontal = 1;
place = (172,103);
type = Stem;
},
{
place = (387.5,114.5);
type = Stem;
}
);
layerId = "45F6A7D2-68A2-4980-BE0C-7C210C91EB90";
shapes = (
{
closed = 1;
nodes = (
(42,535,l),
(42,335,ls),
(42,59,o),
(215,0,o),
(397,0,cs),
(465,0,l),
(465,102,l),
(397,102,ls),
(267,102,o),
(158,132,o),
(158,336,cs),
(158,535,l)
);
},
{
closed = 1;
nodes = (
(166,184,ls),
(306,184,o),
(504,186,o),
(504,535,c),
(53,535,l),
(155,433,l),
(386,433,l),
(385,330,o),
(323,284,o),
(151,284,c),
(142,184,l)
);
}
);
width = 534;
}
);
metricLeft = u;
metricRight = F;
},
{
export = 0;
glyphname = g.alt;
lastChange = "2025-07-18 13:30:43 +0000";
layers = (
{
anchors = (
{
name = bottom;
pos = (306,-147);
},
{
name = top;
pos = (306,535);
}
);
layerId = "45F6A7D2-68A2-4980-BE0C-7C210C91EB90";
shapes = (
{
closed = 1;
nodes = (
(348,-190,o),
(524,-102,o),
(531,144,c),
(531,535,l),
(419,535,l),
(419,135,ls),
(419,-30,o),
(297,-82,o),
(181,-91,c),
(181,-200,l)
);
},
{
closed = 1;
nodes = (
(491,113,l),
(491,215,l),
(423,215,ls),
(293,215,o),
(184,245,o),
(184,449,cs),
(184,535,l),
(68,535,l),
(68,448,ls),
(68,172,o),
(241,113,o),
(423,113,cs)
);
},
{
closed = 1;
nodes = (
(493,425,l),
(493,535,l),
(149,535,l),
(149,425,l)
);
}
);
width = 601;
}
);
metricLeft = n;
metricRight = u;
},
{
export = 0;
glyphname = e.001;
lastChange = "2024-04-06 08:03:32 +0000";
layers = (
{
layerId = "45F6A7D2-68A2-4980-BE0C-7C210C91EB90";
shapes = (
{
closed = 1;
nodes = (
(166,181,o),
(504,186,o),
(504,535,c),
(50,535,l),
(50,253,l),
(157,181,l)
);
},
{
closed = 1;
nodes = (
(484,0,l),
(484,102,l),
(379,102,ls),
(297,102,o),
(159,152,o),
(157,222,c),
(50,259,l),
(50,64,o),
(237,0,o),
(379,0,cs)
);
},
{
closed = 1;
nodes = (
(157,433,l),
(382,433,l),
(381,341,o),
(250,279,o),
(157,279,c)
);
}
);
width = 534;
}
);
metricLeft = U;
metricRight = F;
},
{
export = 0;
glyphname = e.002;
lastChange = "2024-11-23 05:05:47 +0000";
layers = (
{
anchors = (
{
name = bottom;
pos = (292,0);
},
{
name = top;
pos = (292,535);
}
);
hints = (
{
horizontal = 1;
origin = (0,8);
target = (0,7);
type = Stem;
},
{
place = (387.5,114.5);
type = Stem;
}
);
layerId = "45F6A7D2-68A2-4980-BE0C-7C210C91EB90";
shapes = (
{
closed = 1;
nodes = (
(185,172,o),
(504,164,o),
(502,535,c),
(392,535,l),
(383,431,l),
(362,332,o),
(265,275,o),
(158,275,c),
(176,172,l)
);
},
{
closed = 1;
nodes = (
(454,433,l),
(454,535,l),
(58,535,l),
(160,433,l)
);
},
{
closed = 1;
nodes = (
(50,535,l),
(50,335,ls),
(50,59,o),
(223,0,o),
(405,0,cs),
(473,0,l),
(473,102,l),
(405,102,ls),
(275,102,o),
(166,132,o),
(166,336,cs),
(166,535,l)
);
}
);
width = 532;
}
);
metricLeft = U;
metricRight = F;
},
{
export = 0;
glyphname = n.001;
lastChange = "2024-02-16 04:22:05 +0000";
layers = (
{
layerId = "45F6A7D2-68A2-4980-BE0C-7C210C91EB90";
shapes = (
{
closed = 1;
nodes = (
(166,0,l),
(166,432,l),
(262,426,o),
(348,394,o),
(347,251,cs),
(347,0,l),
(459,0,l),
(459,267,ls),
(458,469,o),
(304,529,o),
(168,534,cs),
(50,535,l),
(50,0,l)
);
}
);
width = 499;
}
);
},
{
export = 0;
glyphname = a.old;
lastChange = "2025-07-18 13:30:43 +0000";
layers = (
{
layerId = "45F6A7D2-68A2-4980-BE0C-7C210C91EB90";
shapes = (
{
closed = 1;
nodes = (
(489,0,l),
(489,267,ls),
(489,473,o),
(312,535,o),
(170,535,cs),
(82,535,l),
(82,433,l),
(170,433,ls),
(268,433,o),
(381,411,o),
(379,244,cs),
(377,102,l),
(158,102,l),
(159,205,o),
(234,262,o),
(393,251,c),
(374,349,l),
(234,349,o),
(40,349,o),
(40,0,c)
);
}
);
width = 557;
}
);
metricRight = "=|n";
},
{
export = 0;
glyphname = e.old;
lastChange = "2024-04-06 08:03:32 +0000";
layers = (
{
hints = (
{
horizontal = 1;
place = (172,103);
type = Stem;
},
{
place = (387.5,114.5);
type = Stem;
}
);
layerId = "45F6A7D2-68A2-4980-BE0C-7C210C91EB90";
shapes = (
{
closed = 1;
nodes = (
(457,0,l),
(457,102,l),
(369,102,ls),
(271,102,o),
(158,124,o),
(160,291,cs),
(162,433,l),
(381,433,l),
(380,330,o),
(305,273,o),
(146,284,c),
(165,186,l),
(305,186,o),
(499,186,o),
(499,535,c),
(50,535,l),
(50,268,ls),
(50,62,o),
(227,0,o),
(369,0,cs)
);
}
);
width = 529;
}
);
metricLeft = U;
metricRight = F;
},
{
export = 0;
glyphname = n.old;
lastChange = "2024-04-02 21:58:33 +0000";
layers = (
{
layerId = "45F6A7D2-68A2-4980-BE0C-7C210C91EB90";
shapes = (
{
closed = 1;
nodes = (
(162,0,l),
(162,427,l),
(258,421,o),
(368,394,o),
(368,251,cs),
(368,0,l),
(480,0,l),
(480,267,ls),
(480,469,o),
(316,534,o),
(179,534,cs),
(131,535,l),
(50,535,l),
(50,0,l)
);
}
);
width = 520;
}
);
metricLeft = O;
},
{
export = 0;
glyphname = u.old;
lastChange = "2024-11-23 05:05:47 +0000";
layers = (
{
layerId = "45F6A7D2-68A2-4980-BE0C-7C210C91EB90";
shapes = (
{
closed = 1;
nodes = (
(358,535,l),
(358,108,l),
(262,114,o),
(152,141,o),
(152,284,cs),
(152,535,l),
(40,535,l),
(40,268,ls),
(40,66,o),
(204,1,o),
(341,1,cs),
(389,0,l),
(470,0,l),
(470,535,l)
);
}
);
width = 520;
}
);
},
{
export = 0;
glyphname = s.test;
lastChange = "2024-02-16 04:22:05 +0000";
layers = (
{
layerId = "45F6A7D2-68A2-4980-BE0C-7C210C91EB90";
shapes = (
{
closed = 1;
nodes = (
(520,98,l),
(520,109,o),
(520,146,o),
(498,188,cs),
(467,247,o),
(419,274,o),
(379,303,cs),
(340,331,o),
(299,354,o),
(299,420,cs),
(299,489,o),
(362,498,o),
(393,498,cs),
(438,498,l),
(438,606,l),
(394,606,ls),
(244,606,o),
(194,478,o),
(194,426,cs),
(194,387,o),
(194,289,o),
(314,233,cs),
(419,184,o),
(414,98,o),
(414,98,c)
);
},
{
closed = 1;
nodes = (
(126,-89,ls),
(276,-89,o),
(326,39,o),
(326,91,cs),
(326,130,o),
(326,228,o),
(206,284,cs),
(101,333,o),
(106,419,o),
(106,419,c),
(0,419,l),
(0,408,o),
(0,371,o),
(22,329,cs),
(53,270,o),
(101,243,o),
(141,214,cs),
(180,186,o),
(221,163,o),
(221,97,cs),
(221,28,o),
(158,19,o),
(127,19,cs),
(82,19,l),
(82,-89,l)
);
}
);
width = 520;
}
);
},
{
export = 0;
glyphname = e.old.001;
lastChange = "2024-04-06 08:03:32 +0000";
layers = (
{
hints = (
{
horizontal = 1;
place = (172,103);
type = Stem;
},
{
place = (387.5,114.5);
type = Stem;
}
);
layerId = "45F6A7D2-68A2-4980-BE0C-7C210C91EB90";
shapes = (
{
closed = 1;
nodes = (
(457,0,l),
(457,102,l),
(369,102,ls),
(271,102,o),
(158,124,o),
(160,291,cs),
(162,433,l),
(381,433,l),
(380,330,o),
(305,273,o),
(146,284,c),
(165,186,l),
(305,186,o),
(499,186,o),
(499,535,c),
(50,535,l),
(50,268,ls),
(50,62,o),
(227,0,o),
(369,0,cs)
);
}
);
width = 529;
}
);
metricLeft = U;
metricRight = F;
},
{
export = 0;
glyphname = c_component_b_y_d;
lastChange = "2024-11-23 05:05:47 +0000";
layers = (
{
layerId = "45F6A7D2-68A2-4980-BE0C-7C210C91EB90";
shapes = (
{
closed = 1;
nodes = (
(442,433,l),
(442,535,l),
(46,535,l),
(148,433,l)
);
},
{
closed = 1;
nodes = (
(38,535,l),
(38,335,ls),
(38,59,o),
(211,0,o),
(393,0,cs),
(461,0,l),
(461,102,l),
(393,102,ls),
(263,102,o),
(154,132,o),
(154,336,cs),
(154,535,l)
);
}
);
width = 491;
}
);
metricRight = e;
},
{
export = 0;
glyphname = a.sc;
lastChange = "2024-11-23 05:05:47 +0000";
layers = (
{
anchors = (
{
name = bottom;
pos = (244.573,0);
},
{
name = ogonek;
pos = (440.231,7.643);
},
{
name = top;
pos = (244.573,535.003);
}
);
layerId = "45F6A7D2-68A2-4980-BE0C-7C210C91EB90";
shapes = (
{
closed = 1;
nodes = (
(142,0,l),
(142,178,l),
(424,178,l),
(424,262,l),
(142,262,l),
(142,534,l),
(54,535,l),
(54,0,l)
);
},
{
closed = 1;
nodes = (
(451,0,l),
(451,279,ls),
(451,490,o),
(276,535,o),
(137,535,cs),
(91,535,l),
(91,457,l),
(137,457,ls),
(236,457,o),
(362,434,o),
(362,278,cs),
(362,0,l)
);
}
);
width = 489;
}
);
},
{
export = 0;
glyphname = five.alt;
lastChange = "2024-02-16 04:22:05 +0000";
layers = (
{
layerId = "45F6A7D2-68A2-4980-BE0C-7C210C91EB90";
shapes = (
{
closed = 1;
nodes = (
(147,0,ls),
(289,0,o),
(540,64,o),
(538,401,c),
(445,410,l),
(371,410,o),
(200,469,o),
(199,589,c),
(535,590,l),
(535,701,l),
(70,700,l),
(70,603,ls),
(70,348,o),
(414,300,o),
(414,309,cs),
(414,238,o),
(339,105,o),
(147,105,cs),
(72,105,l),
(72,0,l)
);
}
);
width = 598;
}
);
},
{
export = 0;
glyphname = six.alt;
lastChange = "2024-02-16 04:22:05 +0000";
layers = (
{
layerId = "45F6A7D2-68A2-4980-BE0C-7C210C91EB90";
shapes = (
{
closed = 1;
nodes = (
(255,0,l),
(254,1,l),
(299,1,ls),
(441,1,o),
(556,68,o),
(557,224,cs),
(556,379,o),
(441,446,o),
(299,446,cs),
(198,446,l),
(237,576,o),
(372,595,o),
(482,595,cs),
(542,595,l),
(542,700,l),
(482,700,ls),
(300,700,o),
(75,641,o),
(71,365,cs),
(69,171,o),
(71,288,o),
(71,171,cs),
(71,0,l)
);
},
{
closed = 1;
nodes = (
(188,336,l),
(310,336,ls),
(402,336,o),
(452,306,o),
(452,224,cs),
(452,141,o),
(402,111,o),
(310,111,cs),
(188,111,l)
);
}
);
width = 617;
}
);
},
{
export = 0;
glyphname = seven.alt;
lastChange = "2024-02-16 04:22:05 +0000";
layers = (
{
layerId = "45F6A7D2-68A2-4980-BE0C-7C210C91EB90";
shapes = (
{
closed = 1;
nodes = (
(187,0,l),
(187,-7,o),
(281,242,o),
(356,334,c),
(407,409,o),
(577,522,o),
(579,700,c),
(463,700,l),
(463,567,o),
(356,516,o),
(295,440,c),
(181,324,o),
(68,-5,o),
(70,0,c)
);
},
{
closed = 1;
nodes = (
(488,590,l),
(580,700,l),
(72,700,l),
(72,590,l)
);
}
);
width = 640;
}
);
},
{
export = 0;
glyphname = nine.alt;
lastChange = "2024-02-16 04:22:05 +0000";
layers = (
{
layerId = "45F6A7D2-68A2-4980-BE0C-7C210C91EB90";
shapes = (
{
closed = 1;
nodes = (
(155,0,ls),
(337,0,o),
(562,59,o),
(566,335,cs),
(566,700,l),
(70,700,l),
(70,276,o),
(450,286,o),
(450,286,c),
(433,130,o),
(277,110,o),
(155,110,cs),
(70,110,l),
(70,0,l)
);
},
{
closed = 1;
nodes = (
(337,399,o),
(198,483,o),
(199,590,c),
(450,590,l),
(450,399,l)
);
}
);
width = 626;
}
);
},
{
export = 0;
glyphname = three.old;
lastChange = "2025-07-18 13:30:43 +0000";
layers = (
{
layerId = "45F6A7D2-68A2-4980-BE0C-7C210C91EB90";
shapes = (
{
closed = 1;
nodes = (
(207,0,ls),
(350,0,o),
(465,68,o),
(465,225,cs),
(465,329,o),
(411,381,o),
(325,413,c),
(348,423,o),
(367,439,o),
(384,456,cs),
(439,511,o),
(463,600,o),
(462,700,c),
(35,700,l),
(35,593,l),
(332,593,l),
(324,539,o),
(298,502,o),
(263,480,cs),
(216,450,o),
(187,452,o),
(133,449,c),
(133,342,l),
(218,342,ls),
(310,342,o),
(360,299,o),
(360,218,cs),
(360,135,o),
(310,107,o),
(218,107,cs),
(30,107,l),
(30,0,l)
);
}
);
width = 507;
}
);
metricLeft = "=|F";
metricRight = n;
},
{
export = 0;
glyphname = six.old;
lastChange = "2024-04-27 03:37:18 +0000";
layers = (
{
layerId = "45F6A7D2-68A2-4980-BE0C-7C210C91EB90";
shapes = (
{
closed = 1;
nodes = (
(297,0,ls),
(440,0,o),
(557,66,o),
(557,223,cs),
(557,380,o),
(439,447,o),
(296,446,cs),
(187,445,l),
(187,458,ls),
(195,584,o),
(255,592,o),
(287,597,c),
(287,706,l),
(200,707,o),
(72,645,o),
(71,427,cs),
(71,383,l),
(70,382,l),
(70,0,l)
);
},
{
closed = 1;
nodes = (
(186,220,l),
(187,336,l),
(308,336,ls),
(400,336,o),
(445,306,o),
(445,223,cs),
(445,140,o),
(400,110,o),
(308,110,cs),
(187,110,l)
);
}
);
width = 614;
}
);
},
{
export = 0;
glyphname = five.001;
lastChange = "2024-02-16 04:22:05 +0000";
layers = (
{
layerId = "45F6A7D2-68A2-4980-BE0C-7C210C91EB90";
shapes = (
{
closed = 1;
nodes = (
(254,1,l),
(253,2,l),
(298,2,ls),
(440,2,o),
(555,69,o),
(556,225,cs),
(555,380,o),
(440,447,o),
(298,447,cs),
(197,447,l),
(236,577,o),
(371,596,o),
(481,596,cs),
(541,596,l),
(541,707,l),
(481,707,ls),
(299,707,o),
(70,642,o),
(70,366,cs),
(70,337,l),
(309,337,ls),
(401,337,o),
(451,307,o),
(451,225,cs),
(451,142,o),
(401,112,o),
(309,112,cs),
(70,112,l),
(70,1,l)
);
}
);
width = 616;
}
);
},
{
export = 0;
glyphname = six.001;
lastChange = "2024-02-16 04:22:05 +0000";
layers = (
{
layerId = "45F6A7D2-68A2-4980-BE0C-7C210C91EB90";
shapes = (
{
closed = 1;
nodes = (
(297,0,ls),
(440,0,o),
(557,66,o),
(557,223,cs),
(557,380,o),
(439,447,o),
(296,446,cs),
(187,445,l),
(187,700,l),
(70,700,l),
(70,0,l)
);
},
{
closed = 1;
nodes = (
(187,336,l),
(308,336,ls),
(400,336,o),
(450,306,o),
(450,223,cs),
(450,140,o),
(400,110,o),
(308,110,cs),
(186,110,l)
);
}
);
width = 614;
}
);
},
{
export = 0;
glyphname = eight.001;
lastChange = "2024-02-16 04:22:05 +0000";
layers = (
{
layerId = "45F6A7D2-68A2-4980-BE0C-7C210C91EB90";
shapes = (
{
closed = 1;
nodes = (
(316,0,ls),
(458,0,o),
(553,76,o),
(553,226,cs),
(553,330,o),
(499,382,o),
(413,414,c),
(436,424,o),
(454,441,o),
(472,457,cs),
(532,511,o),
(546,600,o),
(545,700,c),
(303,700,l),
(303,0,l)
);
},
{
closed = 1;
nodes = (
(214,112,o),
(176,148,o),
(176,228,cs),
(176,302,o),
(214,349,o),
(310,353,c),
(310,110,l)
);
},
{
closed = 1;
nodes = (
(310,0,l),
(310,700,l),
(68,700,l),
(67,600,o),
(81,511,o),
(141,457,cs),
(159,441,o),
(177,424,o),
(200,414,c),
(114,382,o),
(60,330,o),
(60,226,cs),
(60,76,o),
(155,0,o),
(297,0,cs)
);
},
{
closed = 1;
nodes = (
(303,353,l),
(399,349,o),
(437,302,o),
(437,228,cs),
(437,148,o),
(399,112,o),
(303,110,c)
);
},
{
closed = 1;
nodes = (
(300,462,o),
(286,470,o),
(272,478,cs),
(227,504,o),
(196,539,o),
(188,593,c),
(310,593,l),
(310,459,l)
);
},
{
closed = 1;
nodes = (
(303,593,l),
(425,593,l),
(417,539,o),
(386,504,o),
(341,478,cs),
(327,470,o),
(313,462,o),
(303,459,c)
);
}
);
width = 605;
}
);
},
{
export = 0;
glyphname = nine.001;
lastChange = "2024-02-16 04:22:05 +0000";
layers = (
{
layerId = "45F6A7D2-68A2-4980-BE0C-7C210C91EB90";
shapes = (
{
closed = 1;
nodes = (
(554,0,l),
(554,700,l),
(327,700,ls),
(184,700,o),
(70,636,o),
(70,479,cs),
(70,322,o),
(185,253,o),
(328,254,cs),
(438,255,l),
(438,0,l)
);
},
{
closed = 1;
nodes = (
(224,364,o),
(174,394,o),
(174,477,cs),
(174,560,o),
(224,590,o),
(316,590,cs),
(439,590,l),
(438,364,l),
(316,364,ls)
);
}
);
width = 614;
}
);
},
{
export = 0;
glyphname = six.002;
lastChange = "2024-11-23 05:05:47 +0000";
layers = (
{
layerId = "45F6A7D2-68A2-4980-BE0C-7C210C91EB90";
shapes = (
{
closed = 1;
nodes = (
(213,725,o),
(37,637,o),
(30,391,c),
(30,0,l),
(142,0,l),
(142,400,ls),
(142,565,o),
(264,617,o),
(380,626,c),
(380,735,l)
);
},
{
closed = 1;
nodes = (
(153,0,ls),
(293,0,o),
(491,2,o),
(491,351,c),
(40,351,l),
(142,249,l),
(373,249,l),
(372,146,o),
(310,100,o),
(138,100,c),
(129,0,l)
);
}
);
width = 551;
}
);
},
{
export = 0;
glyphname = eight.002;
lastChange = "2025-07-18 13:30:43 +0000";
layers = (
{
layerId = "45F6A7D2-68A2-4980-BE0C-7C210C91EB90";
shapes = (
{
closed = 1;
nodes = (
(308,-6,ls),
(445,-6,o),
(540,76,o),
(540,226,cs),
(540,330,o),
(491,382,o),
(405,414,c),
(428,424,o),
(441,441,o),
(459,457,cs),
(519,511,o),
(533,600,o),
(532,700,c),
(58,700,l),
(57,600,o),
(71,511,o),
(131,457,cs),
(149,441,o),
(162,424,o),
(185,414,c),
(99,382,o),
(50,330,o),
(50,226,cs),
(50,76,o),
(145,-6,o),
(282,-6,cs)
);
},
{
closed = 1;
nodes = (
(204,102,o),
(166,148,o),
(166,228,cs),
(166,302,o),
(204,354,o),
(295,358,c),
(386,354,o),
(424,302,o),
(424,228,cs),
(424,148,o),
(386,106,o),
(295,104,cs)
);
},
{
closed = 1;
nodes = (
(240,471,o),
(187,529,o),
(178,593,c),
(412,593,l),
(403,531,o),
(353,471,o),
(295,454,c)
);
}
);
width = 582;
}
);
metricLeft = o;
metricRight = o;
},
{
export = 0;
glyphname = braceleft.001;
lastChange = "2024-02-16 04:22:05 +0000";
layers = (
{
layerId = "45F6A7D2-68A2-4980-BE0C-7C210C91EB90";
shapes = (
{
closed = 1;
nodes = (
(195,285,o),
(259,318,o),
(270,391,cs),
(286,496,o),
(185,542,o),
(205,614,cs),
(218,662,o),
(278,656,o),
(291,656,cs),
(331,656,l),
(331,726,l),
(309,726,ls),
(227,726,o),
(167,718,o),
(142,629,cs),
(110,516,o),
(213,508,o),
(200,406,cs),
(195,366,o),
(151,345,o),
(122,345,cs),
(100,345,l),
(100,285,l)
);
},
{
closed = 1;
nodes = (
(331,-96,l),
(331,-26,l),
(291,-26,ls),
(278,-26,o),
(218,-32,o),
(205,16,cs),
(185,88,o),
(286,134,o),
(270,239,cs),
(259,312,o),
(195,345,o),
(100,345,c),
(100,285,l),
(122,285,ls),
(151,285,o),
(195,264,o),
(200,224,cs),
(213,122,o),
(110,114,o),
(142,1,cs),
(167,-88,o),
(227,-96,o),
(309,-96,cs)
);
}
);
width = 431;
}
);
},
{
export = 0;
glyphname = braceright.old;
lastChange = "2024-04-02 21:59:21 +0000";
layers = (
{
layerId = "45F6A7D2-68A2-4980-BE0C-7C210C91EB90";
shapes = (
{
closed = 1;
nodes = (
(71,-188,ls),
(154,-188,o),
(259,-137,o),
(270,-51,cs),
(278,5,o),
(262,42,o),
(240,81,c),
(226,100,o),
(198,139,o),
(194,170,cs),
(192,199,o),
(204,223,o),
(224,238,cs),
(239,249,o),
(243,252,o),
(270,252,cs),
(294,252,l),
(294,354,l),
(270,354,ls),
(243,354,o),
(239,358,o),
(224,369,cs),
(204,383,o),
(192,407,o),
(194,437,cs),
(198,468,o),
(226,506,o),
(240,526,c),
(262,564,o),
(278,601,o),
(270,657,cs),
(259,742,o),
(154,794,o),
(71,794,cs),
(60,794,l),
(60,706,l),
(60,706,o),
(121,705,o),
(151,681,cs),
(167,670,o),
(179,658,o),
(178,623,cs),
(178,596,o),
(163,575,o),
(152,557,cs),
(139,536,o),
(105,490,o),
(104,437,cs),
(103,391,o),
(131,346,o),
(176,303,c),
(131,260,o),
(103,215,o),
(104,170,cs),
(105,116,o),
(139,71,o),
(152,50,cs),
(163,31,o),
(178,10,o),
(178,-17,cs),
(179,-52,o),
(167,-64,o),
(151,-75,cs),
(121,-99,o),
(60,-100,o),
(60,-100,c),
(60,-188,l)
);
}
);
width = 354;
}
);
},
{
glyphname = guillemetleft;
lastChange = "2024-02-16 04:22:05 +0000";
layers = (
{
layerId = "45F6A7D2-68A2-4980-BE0C-7C210C91EB90";
shapes = (
{
closed = 1;
nodes = (
(333,267,l),
(459,488,l),
(357,488,l),
(231,267,l)
);
},
{
closed = 1;
nodes = (
(288,58,l),
(162,266,l),
(60,266,l),
(186,58,l)
);
},
{
closed = 1;
nodes = (
(459,59,l),
(333,267,l),
(231,267,l),
(357,59,l)
);
},
{
closed = 1;
nodes = (
(162,266,l),
(288,487,l),
(186,487,l),
(60,266,l)
);
}
);
width = 509;
}
);
metricRight = O;
unicode = 171;
},
{
glyphname = guillemetright;
lastChange = "2024-02-16 04:22:05 +0000";
layers = (
{
layerId = "45F6A7D2-68A2-4980-BE0C-7C210C91EB90";
shapes = (
{
closed = 1;
nodes = (
(449,266,l),
(323,487,l),
(221,487,l),
(347,266,l)
);
},
{
closed = 1;
nodes = (
(152,59,l),
(278,267,l),
(176,267,l),
(50,59,l)
);
},
{
closed = 1;
nodes = (
(323,58,l),
(449,266,l),
(347,266,l),
(221,58,l)
);
},
{
closed = 1;
nodes = (
(278,267,l),
(152,488,l),
(50,488,l),
(176,267,l)
);
}
);
width = 537;
}
);
metricLeft = O;
unicode = 187;
},
{
export = 0;
glyphname = quotesinglbase.001;
lastChange = "2024-04-27 03:37:10 +0000";
layers = (
{
layerId = "45F6A7D2-68A2-4980-BE0C-7C210C91EB90";
shapes = (
{
closed = 1;
nodes = (
(131,-133,o),
(235,-73,o),
(235,80,c),
(153,81,l),
(153,-40,o),
(119,-81,o),
(96,-88,c),
(96,-145,l)
);
}
);
width = 327;
}
);
},
{
export = 0;
glyphname = guillemetleft.old;
lastChange = "2024-04-27 03:37:10 +0000";
layers = (
{
layerId = "45F6A7D2-68A2-4980-BE0C-7C210C91EB90";
shapes = (
{
closed = 1;
nodes = (
(497,54,l),
(324,265,l),
(497,476,l),
(387,476,l),
(215,265,l),
(387,54,l)
);
},
{
closed = 1;
nodes = (
(312,54,l),
(139,265,l),
(312,476,l),
(202,476,l),
(30,265,l),
(202,54,l)
);
}
);
width = 547;
}
);
metricRight = O;
},
{
export = 0;
glyphname = guilsinglleft.old;
lastChange = "2024-04-27 03:37:10 +0000";
layers = (
{
layerId = "45F6A7D2-68A2-4980-BE0C-7C210C91EB90";
shapes = (
{
closed = 1;
nodes = (
(355,50,l),
(180,263,l),
(355,476,l),
(224,476,l),
(50,263,l),
(224,50,l)
);
}
);
width = 405;
}
);
metricLeft = O;
metricRight = O;
},
{
glyphname = baht;
lastChange = "2024-11-23 05:05:47 +0000";
layers = (
{
anchors = (
{
name = bottom;
pos = (303,0);
},
{
name = center;
pos = (303,350);
},
{
name = top;
pos = (303,700);
}
);
layerId = "45F6A7D2-68A2-4980-BE0C-7C210C91EB90";
shapes = (
{
closed = 1;
nodes = (
(297,0,ls),
(440,0,o),
(555,68,o),
(555,225,cs),
(555,336,o),
(498,384,o),
(412,416,c),
(522,454,o),
(543,570,o),
(542,700,c),
(70,700,l),
(70,0,l)
);
},
{
closed = 1;
nodes = (
(186,331,l),
(297,331,ls),
(381,331,o),
(426,298,o),
(426,219,cs),
(426,140,o),
(381,107,o),
(297,107,cs),
(186,107,l)
);
},
{
closed = 1;
nodes = (
(186,590,l),
(418,590,l),
(418,472,o),
(280,442,o),
(186,436,c)
);
},
{
closed = 1;
nodes = (
(319,-95,l),
(319,786,l),
(246,786,l),
(246,-95,l)
);
}
);
width = 605;
}
);
unicode = 3647;
},
{
glyphname = euro;
lastChange = "2024-04-04 03:20:24 +0000";
layers = (
{
layerId = "45F6A7D2-68A2-4980-BE0C-7C210C91EB90";
shapes = (
{
closed = 1;
nodes = (
(613,0,l),
(613,105,l),
(553,105,ls),
(423,105,o),
(258,132,o),
(258,336,cs),
(258,364,ls),
(258,568,o),
(423,595,o),
(553,595,cs),
(613,595,l),
(613,700,l),
(553,700,ls),
(371,700,o),
(142,641,o),
(142,365,cs),
(142,333,ls),
(142,59,o),
(371,0,o),
(553,0,cs)
);
},
{
closed = 1;
nodes = (
(512,210,l),
(512,308,l),
(23,307,l),
(23,208,l)
);
},
{
closed = 1;
nodes = (
(509,395,l),
(509,493,l),
(20,492,l),
(20,393,l)
);
}
);
width = 673;
}
);
metricLeft = f;
metricRight = E;
unicode = 8364;
},
{
glyphname = hryvnia;
lastChange = "2024-11-23 05:05:47 +0000";
layers = (
{
anchors = (
{
name = bottom;
pos = (320,0);
},
{
name = top;
pos = (320,700);
}
);
layerId = "45F6A7D2-68A2-4980-BE0C-7C210C91EB90";
shapes = (
{
closed = 1;
nodes = (
(564,220,l),
(564,318,l),
(43,317,l),
(43,218,l)
);
},
{
closed = 1;
nodes = (
(563,365,l),
(563,463,l),
(42,462,l),
(42,363,l)
);
},
{
closed = 1;
nodes = (
(534,109,l),
(349,111,ls),
(260,112,o),
(216,139,o),
(216,220,cs),
(219,297,o),
(281,308,o),
(334,327,cs),
(426,360,o),
(540,398,o),
(540,602,cs),
(540,700,l),
(132,700,l),
(132,590,l),
(425,589,l),
(425,499,o),
(399,466,o),
(281,425,cs),
(214,401,o),
(100,361,o),
(100,219,cs),
(105,65,o),
(220,2,o),
(360,0,cs),
(534,-2,l)
);
}
);
width = 605;
}
);
metricLeft = S;
metricRight = S;
unicode = 8372;
},
{
glyphname = ruble;
lastChange = "2024-11-23 05:05:47 +0000";
layers = (
{
layerId = "45F6A7D2-68A2-4980-BE0C-7C210C91EB90";
shapes = (
{
closed = 1;
nodes = (
(534,98,l),
(534,200,l),
(45,199,l),
(45,96,l)
);
},
{
closed = 1;
nodes = (
(313,277,l),
(313,381,l),
(42,380,l),
(42,275,l)
);
},
{
closed = 1;
nodes = (
(267,0,l),
(267,275,l),
(439,275,o),
(466,271,o),
(537,335,cs),
(598,393,o),
(614,495,o),
(582,571,cs),
(552,651,o),
(470,699,o),
(374,699,cs),
(151,699,l),
(151,0,l)
);
},
{
closed = 1;
nodes = (
(267,586,l),
(368,586,ls),
(439,586,o),
(492,562,o),
(492,484,cs),
(492,409,o),
(442,382,o),
(368,382,cs),
(267,382,l)
);
}
);
width = 628;
}
);
metricLeft = S;
metricRight = P;
unicode = 8381;
},
{
glyphname = rupeeIndian;
lastChange = "2024-04-06 08:02:17 +0000";
layers = (
{
anchors = (
{
name = bottom;
pos = (260,0);
},
{
name = top;
pos = (260,700);
}
);
layerId = "45F6A7D2-68A2-4980-BE0C-7C210C91EB90";
shapes = (
{
closed = 1;
nodes = (
(70,224,o),
(498,220,o),
(498,700,c),
(70,700,l),
(70,592,l),
(384,592,l),
(337,391,o),
(224,337,o),
(70,332,c),
(70,224,l)
);
},
{
closed = 1;
nodes = (
(529,0,l),
(329,367,l),
(224,337,l),
(398,0,l)
);
},
{
closed = 1;
nodes = (
(572,421,l),
(572,516,l),
(73,516,l),
(73,421,l)
);
},
{
closed = 1;
nodes = (
(573,592,l),
(573,700,l),
(74,700,l),
(74,592,l)
);
}
);
width = 603;
}
);
metricLeft = R;
metricRight = R;
unicode = 8377;
},
{
glyphname = sheqel;
lastChange = "2024-04-04 04:21:53 +0000";
layers = (
{
anchors = (
{
name = bottom;
pos = (320,0);
},
{
name = top;
pos = (320,700);
}
);
layerId = "45F6A7D2-68A2-4980-BE0C-7C210C91EB90";
shapes = (
{
closed = 1;
nodes = (
(728,-10,l),
(728,690,l),
(612,690,l),
(613,94,l),
(498,104,o),
(383,150,o),
(383,326,cs),
(383,385,l),
(267,385,l),
(267,325,ls),
(267,76,o),
(445,4,o),
(613,-8,c),
(613,-9,l),
(631,-9,ls),
(643,-9,o),
(656,-10,o),
(668,-10,cs)
);
},
{
closed = 1;
nodes = (
(213,-9,l),
(212,587,l),
(327,577,o),
(442,531,o),
(442,355,cs),
(442,296,l),
(558,296,l),
(558,356,ls),
(558,605,o),
(380,677,o),
(212,689,c),
(212,690,l),
(194,690,ls),
(182,690,o),
(169,691,o),
(157,691,cs),
(97,691,l),
(97,-9,l)
);
}
);
width = 640;
}
);
unicode = 8362;
},
{
glyphname = won;
lastChange = "2024-11-23 05:05:47 +0000";
layers = (
{
anchors = (
{
name = bottom;
pos = (544,0);
},
{
name = top;
pos = (544,700);
}
);
layerId = "45F6A7D2-68A2-4980-BE0C-7C210C91EB90";
shapes = (
{
closed = 1;
nodes = (
(1046,300,l),
(1046,399,l),
(46,399,l),
(46,300,l)
);
},
{
closed = 1;
nodes = (
(218,0,ls),
(344,0,o),
(411,13,o),
(492,96,c),
(492,0,l),
(582,0,l),
(845,16,o),
(959,121,o),
(959,337,cs),
(959,700,l),
(843,700,l),
(843,337,ls),
(843,165,o),
(720,113,o),
(604,113,c),
(604,700,l),
(492,700,l),
(492,337,ls),
(492,165,o),
(371,113,o),
(255,113,c),
(255,700,l),
(139,700,l),
(139,0,l)
);
}
);
width = 1100;
}
);
unicode = 8361;
},
{
export = 0;
glyphname = currency.001;
lastChange = "2024-02-16 04:22:05 +0000";
layers = (
{
layerId = "45F6A7D2-68A2-4980-BE0C-7C210C91EB90";
shapes = (
{
closed = 1;
nodes = (
(599,480,l),
(533,548,l),
(130,142,l),
(197,73,l)
);
},
{
closed = 1;
nodes = (
(602,142,l),
(196,545,l),
(127,478,l),
(534,76,l)
);
},
{
closed = 1;
nodes = (
(372,143,l),
(374,143,ls),
(479,143,o),
(535,213,o),
(535,312,cs),
(535,408,o),
(479,471,o),
(374,478,cs),
(358,478,l),
(356,478,ls),
(251,478,o),
(195,408,o),
(195,308,cs),
(195,213,o),
(251,150,o),
(356,143,cs)
);
}
);
width = 730;
}
);
},
{
export = 0;
glyphname = dollar.001;
lastChange = "2024-04-27 03:45:46 +0000";
layers = (
{
layerId = "45F6A7D2-68A2-4980-BE0C-7C210C91EB90";
shapes = (
{
closed = 1;
nodes = (
(148,0,ls),
(290,0,o),
(535,60,o),
(533,397,c),
(440,405,ls),
(354,412,o),
(186,470,o),
(183,597,c),
(529,598,l),
(529,700,l),
(71,700,l),
(71,603,ls),
(71,348,o),
(415,305,o),
(415,305,c),
(415,234,o),
(340,101,o),
(148,101,cs),
(82,101,l),
(82,0,l)
);
},
{
closed = 1;
nodes = (
(349,-86,l),
(346,91,l),
(255,91,l),
(257,-86,l)
);
},
{
closed = 1;
nodes = (
(349,624,l),
(345,801,l),
(254,801,l),
(257,624,l)
);
}
);
width = 600;
}
);
},
{
export = 0;
glyphname = asciitilde.001;
lastChange = "2024-04-27 03:35:59 +0000";
layers = (
{
layerId = "45F6A7D2-68A2-4980-BE0C-7C210C91EB90";
shapes = (
{
closed = 1;
nodes = (
(489,184,o),
(547,242,o),
(547,323,cs),
(547,360,l),
(457,360,l),
(457,332,ls),
(457,285,o),
(428,267,o),
(408,267,cs),
(393,267,o),
(381,269,o),
(362,280,cs),
(297,317,o),
(280,370,o),
(200,370,cs),
(118,370,o),
(60,312,o),
(60,231,cs),
(60,196,l),
(150,196,l),
(150,222,ls),
(150,269,o),
(179,287,o),
(199,287,cs),
(214,287,o),
(226,285,o),
(245,274,cs),
(310,237,o),
(332,184,o),
(407,184,cs)
);
}
);
width = 607;
}
);
},
{
export = 0;
glyphname = logicalnot.001;
lastChange = "2024-04-27 03:35:59 +0000";
layers = (
{
layerId = "45F6A7D2-68A2-4980-BE0C-7C210C91EB90";
shapes = (
{
closed = 1;
nodes = (
(538,215,l),
(538,305,l),
(63,305,l),
(63,215,l)
);
},
{
closed = 1;
nodes = (
(538,34,l),
(538,304,l),
(443,304,l),
(443,34,l)
);
}
);
width = 600;
}
);
},
{
export = 0;
glyphname = asciitilde.002;
lastChange = "2024-04-27 03:35:59 +0000";
layers = (
{
layerId = "45F6A7D2-68A2-4980-BE0C-7C210C91EB90";
shapes = (
{
closed = 1;
nodes = (
(416,182,ls),
(505,182,o),
(543,247,o),
(543,328,cs),
(543,366,l),
(481,366,l),
(481,321,ls),
(481,269,o),
(465,241,o),
(419,241,cs),
(338,241,o),
(309,373,o),
(189,373,cs),
(185,373,ls),
(96,373,o),
(58,308,o),
(58,227,cs),
(58,189,l),
(120,189,l),
(120,234,ls),
(120,286,o),
(136,314,o),
(182,314,cs),
(263,314,o),
(292,182,o),
(412,182,cs)
);
}
);
width = 600;
}
);
},
{
export = 0;
glyphname = summation.001;
lastChange = "2024-04-27 03:35:59 +0000";
layers = (
{
layerId = "45F6A7D2-68A2-4980-BE0C-7C210C91EB90";
shapes = (
{
closed = 1;
nodes = (
(179,-39,l),
(445,288,l),
(179,615,l),
(60,615,l),
(328,288,l),
(60,-39,l)
);
},
{
closed = 1;
nodes = (
(517,-124,l),
(517,-38,l),
(60,-38,l),
(60,-124,l)
);
},
{
closed = 1;
nodes = (
(517,614,l),
(517,700,l),
(60,700,l),
(60,614,l)
);
}
);
width = 600;
}
);
},
{
glyphname = upArrow;
lastChange = "2024-04-28 00:27:32 +0000";
layers = (
{
layerId = "45F6A7D2-68A2-4980-BE0C-7C210C91EB90";
shapes = (
{
closed = 1;
nodes = (
(292,610,l),
(503,438,l),
(503,558,l),
(292,730,l),
(80,558,l),
(80,438,l)
);
},
{
closed = 1;
nodes = (
(339,-15,l),
(339,659,l),
(244,659,l),
(244,-15,l)
);
}
);
width = 583;
}
);
metricLeft = rightArrow;
metricRight = rightArrow;
unicode = 8593;
},
{
glyphname = northEastArrow;
lastChange = "2024-04-28 00:27:25 +0000";
layers = (
{
layerId = "45F6A7D2-68A2-4980-BE0C-7C210C91EB90";
shapes = (
{
closed = 1;
nodes = (
(595,596,l),
(526,661,l),
(80,215,l),
(147,148,l)
);
},
{
closed = 1;
nodes = (
(621,386,l),
(593,657,l),
(322,685,l),
(237,600,l),
(513,578,l),
(536,301,l)
);
}
);
width = 701;
}
);
metricLeft = rightArrow;
metricRight = rightArrow;
unicode = 8599;
},
{
glyphname = rightArrow;
lastChange = "2024-04-28 00:24:34 +0000";
layers = (
{
layerId = "45F6A7D2-68A2-4980-BE0C-7C210C91EB90";
shapes = (
{
closed = 1;
nodes = (
(651,111,l),
(823,322,l),
(651,534,l),
(531,534,l),
(703,322,l),
(531,111,l)
);
},
{
closed = 1;
nodes = (
(754,275,l),
(754,370,l),
(80,370,l),
(80,275,l)
);
}
);
width = 903;
}
);
unicode = 8594;
},
{
glyphname = southEastArrow;
lastChange = "2024-04-28 00:25:47 +0000";
layers = (
{
layerId = "45F6A7D2-68A2-4980-BE0C-7C210C91EB90";
shapes = (
{
closed = 1;
nodes = (
(593,107,l),
(147,553,l),
(80,486,l),
(528,38,l)
);
},
{
closed = 1;
nodes = (
(589,40,l),
(617,311,l),
(532,396,l),
(510,120,l),
(233,97,l),
(318,12,l)
);
}
);
width = 697;
}
);
metricLeft = rightArrow;
metricRight = rightArrow;
unicode = 8600;
},
{
glyphname = downArrow;
lastChange = "2024-04-28 00:25:40 +0000";
layers = (
{
layerId = "45F6A7D2-68A2-4980-BE0C-7C210C91EB90";
shapes = (
{
closed = 1;
nodes = (
(503,157,l),
(503,277,l),
(291,105,l),
(80,277,l),
(80,157,l),
(291,-15,l)
);
},
{
closed = 1;
nodes = (
(339,56,l),
(339,730,l),
(244,730,l),
(244,56,l)
);
}
);
width = 583;
}
);
metricLeft = rightArrow;
metricRight = rightArrow;
unicode = 8595;
},
{
glyphname = southWestArrow;
lastChange = "2024-04-28 00:25:32 +0000";
layers = (
{
layerId = "45F6A7D2-68A2-4980-BE0C-7C210C91EB90";
shapes = (
{
closed = 1;
nodes = (
(621,479,l),
(554,546,l),
(106,98,l),
(175,33,l)
);
},
{
closed = 1;
nodes = (
(464,94,l),
(188,116,l),
(165,393,l),
(80,308,l),
(108,37,l),
(379,9,l)
);
}
);
width = 701;
}
);
metricLeft = rightArrow;
metricRight = rightArrow;
unicode = 8601;
},
{
glyphname = leftArrow;
lastChange = "2024-11-23 05:05:47 +0000";
layers = (
{
layerId = "45F6A7D2-68A2-4980-BE0C-7C210C91EB90";
shapes = (
{
closed = 1;
nodes = (
(200,322,l),
(372,534,l),
(252,534,l),
(80,322,l),
(252,111,l),
(372,111,l)
);
},
{
closed = 1;
nodes = (
(823,370,l),
(149,370,l),
(149,275,l),
(823,275,l)
);
}
);
width = 903;
}
);
metricLeft = rightArrow;
metricRight = rightArrow;
unicode = 8592;
},
{
glyphname = northWestArrow;
lastChange = "2024-04-28 00:26:06 +0000";
layers = (
{
layerId = "45F6A7D2-68A2-4980-BE0C-7C210C91EB90";
shapes = (
{
closed = 1;
nodes = (
(617,220,l),
(169,668,l),
(104,599,l),
(550,153,l)
);
},
{
closed = 1;
nodes = (
(187,586,l),
(464,609,l),
(379,694,l),
(108,666,l),
(80,395,l),
(165,310,l)
);
}
);
width = 697;
}
);
metricLeft = rightArrow;
metricRight = rightArrow;
unicode = 8598;
},
{
glyphname = leftRightArrow;
lastChange = "2024-04-28 00:26:25 +0000";
layers = (
{
layerId = "45F6A7D2-68A2-4980-BE0C-7C210C91EB90";
shapes = (
{
closed = 1;
nodes = (
(372,111,l),
(200,323,l),
(372,534,l),
(252,534,l),
(80,323,l),
(252,111,l)
);
},
{
closed = 1;
nodes = (
(801,111,l),
(973,322,l),
(801,534,l),
(681,534,l),
(853,322,l),
(681,111,l)
);
},
{
closed = 1;
nodes = (
(904,275,l),
(904,370,l),
(181,370,l),
(181,275,l)
);
}
);
width = 1053;
}
);
metricLeft = rightArrow;
metricRight = rightArrow;
unicode = 8596;
},
{
glyphname = upDownArrow;
lastChange = "2024-11-23 05:05:47 +0000";
layers = (
{
layerId = "45F6A7D2-68A2-4980-BE0C-7C210C91EB90";
shapes = (
{
closed = 1;
nodes = (
(80,468,l),
(292,640,l),
(503,468,l),
(503,588,l),
(292,760,l),
(80,588,l)
);
},
{
closed = 1;
nodes = (
(80,39,l),
(291,-133,l),
(503,39,l),
(503,159,l),
(291,-13,l),
(80,159,l)
);
},
{
closed = 1;
nodes = (
(244,-64,l),
(339,-64,l),
(339,659,l),
(244,659,l)
);
}
);
width = 583;
}
);
metricLeft = rightArrow;
metricRight = rightArrow;
unicode = 8597;
},
{
export = 0;
glyphname = dottedCircle;
lastChange = "2024-11-28 01:28:46 +0000";
layers = (
{
anchors = (
{
name = bottom;
pos = (508,-115);
},
{
name = center;
pos = (508,359);
},
{
name = left;
pos = (40,359);
},
{
name = middle;
pos = (508,364);
},
{
name = right;
pos = (976,359);
},
{
name = top;
pos = (508,826);
}
);
layerId = "45F6A7D2-68A2-4980-BE0C-7C210C91EB90";
shapes = (
{
closed = 1;
nodes = (
(759,700,l),
(742,764,l),
(678,747,l),
(695,683,l)
);
},
{
closed = 1;
nodes = (
(914,592,l),
(850,609,l),
(833,545,l),
(897,528,l)
);
},
{
closed = 1;
nodes = (
(976,359,l),
(929,406,l),
(882,359,l),
(929,312,l)
);
},
{
closed = 1;
nodes = (
(914,124,l),
(897,188,l),
(833,171,l),
(850,107,l)
);
},
{
closed = 1;
nodes = (
(760,18,l),
(696,35,l),
(679,-29,l),
(743,-46,l)
);
},
{
closed = 1;
nodes = (
(555,-63,l),
(508,-16,l),
(461,-63,l),
(508,-110,l)
);
},
{
closed = 1;
nodes = (
(338,-29,l),
(321,35,l),
(257,18,l),
(274,-46,l)
);
},
{
closed = 1;
nodes = (
(185,171,l),
(121,188,l),
(104,124,l),
(168,107,l)
);
},
{
closed = 1;
nodes = (
(134,359,l),
(87,406,l),
(40,359,l),
(87,312,l)
);
},
{
closed = 1;
nodes = (
(185,545,l),
(168,609,l),
(104,592,l),
(121,528,l)
);
},
{
closed = 1;
nodes = (
(339,747,l),
(275,764,l),
(258,700,l),
(322,683,l)
);
},
{
closed = 1;
nodes = (
(555,779,l),
(508,826,l),
(461,779,l),
(508,732,l)
);
}
);
width = 1016;
}
);
unicode = 9676;
},
{
export = 0;
glyphname = at.001;
lastChange = "2024-04-27 03:45:37 +0000";
layers = (
{
layerId = "45F6A7D2-68A2-4980-BE0C-7C210C91EB90";
shapes = (
{
closed = 1;
nodes = (
(734,306,ls),
(734,509,o),
(549,699,o),
(314,699,cs),
(301,699,l),
(301,602,l),
(322,602,ls),
(492,602,o),
(648,466,o),
(644,285,c),
(734,284,l)
);
},
{
closed = 1;
nodes = (
(301,-131,l),
(301,-34,l),
(280,-34,ls),
(110,-34,o),
(-46,103,o),
(-42,284,c),
(-132,284,l),
(-132,262,ls),
(-132,59,o),
(53,-131,o),
(288,-131,cs)
);
},
{
closed = 1;
nodes = (
(237,176,o),
(198,205,o),
(197,272,cs),
(198,341,o),
(237,370,o),
(301,370,cs),
(362,370,o),
(404,341,o),
(406,272,cs),
(404,205,o),
(362,176,o),
(301,176,cs)
);
},
{
closed = 1;
nodes = (
(-42,284,l),
(-46,465,o),
(110,602,o),
(280,602,cs),
(301,602,l),
(301,699,l),
(288,699,ls),
(53,699,o),
(-132,509,o),
(-132,306,cs),
(-132,284,l)
);
},
{
closed = 1;
nodes = (
(385,83,o),
(435,126,o),
(461,195,c),
(487,126,o),
(504,295,o),
(471,357,c),
(445,426,o),
(385,463,o),
(301,463,cs),
(178,463,o),
(107,387,o),
(107,280,cs),
(107,264,ls),
(107,158,o),
(178,83,o),
(301,83,cs)
);
},
{
closed = 1;
nodes = (
(679,84,o),
(734,165,o),
(734,267,cs),
(734,284,l),
(644,285,l),
(645,219,o),
(617,177,o),
(563,177,cs),
(536,177,o),
(484,199,o),
(480,266,c),
(426,345,l),
(401,414,o),
(401,121,o),
(426,190,c),
(452,121,o),
(516,84,o),
(569,84,cs)
);
}
);
width = 600;
}
);
},
{
export = 0;
glyphname = degree.001;
lastChange = "2024-02-16 04:22:05 +0000";
layers = (
{
layerId = "45F6A7D2-68A2-4980-BE0C-7C210C91EB90";
shapes = (
{
closed = 1;
nodes = (
(223,380,o),
(249,391,o),
(268,408,cs),
(294,431,o),
(314,467,o),
(314,522,cs),
(314,555,ls),
(314,609,o),
(295,646,o),
(268,669,cs),
(249,685,o),
(223,696,o),
(197,696,cs),
(172,696,o),
(145,685,o),
(126,669,cs),
(99,646,o),
(80,609,o),
(80,555,cs),
(80,522,ls),
(80,467,o),
(99,430,o),
(126,408,cs),
(146,392,o),
(172,380,o),
(197,380,cs)
);
},
{
closed = 1;
nodes = (
(189,425,o),
(175,429,o),
(166,435,cs),
(141,451,o),
(127,473,o),
(127,521,cs),
(127,555,ls),
(127,604,o),
(143,628,o),
(168,642,cs),
(180,649,o),
(189,649,o),
(197,649,cs),
(205,649,o),
(214,649,o),
(227,641,cs),
(251,626,o),
(266,604,o),
(266,555,cs),
(266,521,ls),
(266,473,o),
(251,453,o),
(227,435,cs),
(219,429,o),
(205,427,o),
(197,426,cs)
);
}
);
width = 394;
}
);
},
{
glyphname = dieresiscomb;
lastChange = "2025-07-06 11:09:27 +0000";
layers = (
{
anchors = (
{
name = _top;
pos = (175,643);
},
{
name = top;
pos = (173,789);
}
);
layerId = "45F6A7D2-68A2-4980-BE0C-7C210C91EB90";
shapes = (
{
closed = 1;
nodes = (
(104,692,l),
(104,795,l),
(0,795,l),
(0,692,l)
);
},
{
closed = 1;
nodes = (
(339,692,l),
(339,795,l),
(236,795,l),
(236,692,l)
);
}
);
width = 339;
}
);
unicode = 776;
},
{
glyphname = dotaccentcomb;
lastChange = "2024-11-23 05:05:47 +0000";
layers = (
{
anchors = (
{
name = _top;
pos = (110,600);
},
{
name = top;
pos = (107,780);
}
);
layerId = "45F6A7D2-68A2-4980-BE0C-7C210C91EB90";
shapes = (
{
closed = 1;
nodes = (
(167,660,l),
(167,780,l),
(47,780,l),
(47,660,l)
);
}
);
width = 214;
}
);
unicode = 775;
},
{
glyphname = gravecomb;
lastChange = "2025-07-06 11:13:44 +0000";
layers = (
{
anchors = (
{
name = _top;
pos = (198,583);
},
{
name = top;
pos = (171,760);
}
);
layerId = "45F6A7D2-68A2-4980-BE0C-7C210C91EB90";
shapes = (
{
closed = 1;
nodes = (
(267,621,l),
(171,760,l),
(70,760,l),
(182,621,l)
);
}
);
width = 337;
}
);
unicode = 768;
},
{
glyphname = acutecomb;
lastChange = "2025-07-06 11:13:24 +0000";
layers = (
{
anchors = (
{
name = _top;
pos = (133,587);
},
{
name = top;
pos = (169,760);
}
);
layerId = "45F6A7D2-68A2-4980-BE0C-7C210C91EB90";
shapes = (
{
closed = 1;
nodes = (
(155,621,l),
(267,760,l),
(166,760,l),
(70,621,l)
);
}
);
width = 337;
}
);
unicode = 769;
},
{
glyphname = hungarumlautcomb;
lastChange = "2024-02-27 22:20:49 +0000";
layers = (
{
anchors = (
{
name = _top;
pos = (169,448);
},
{
name = top;
pos = (235,715);
}
);
layerId = "45F6A7D2-68A2-4980-BE0C-7C210C91EB90";
shapes = (
{
closed = 1;
nodes = (
(287,501,l),
(420,715,l),
(329,715,l),
(205,501,l)
);
},
{
closed = 1;
nodes = (
(128,501,l),
(265,715,l),
(174,715,l),
(50,501,l)
);
}
);
width = 470;
}
);
unicode = 779;
},
{
glyphname = caroncomb.alt;
lastChange = "2024-02-27 22:06:08 +0000";
layers = (
{
anchors = (
{
name = _topright;
pos = (46,800);
}
);
layerId = "45F6A7D2-68A2-4980-BE0C-7C210C91EB90";
shapes = (
{
closed = 1;
nodes = (
(131,550,l),
(217,749,l),
(126,749,l),
(40,550,l)
);
}
);
width = 257;
}
);
},
{
glyphname = circumflexcomb;
lastChange = "2025-07-08 23:45:32 +0000";
layers = (
{
anchors = (
{
name = _top;
pos = (255,535);
},
{
name = top;
pos = (183,750);
}
);
layerId = "45F6A7D2-68A2-4980-BE0C-7C210C91EB90";
shapes = (
{
closed = 1;
nodes = (
(102,677,l),
(102,573,l),
(258,675,l),
(414,573,l),
(414,677,l),
(258,779,l)
);
}
);
width = 417;
}
);
unicode = 770;
},
{
glyphname = brevecomb;
lastChange = "2025-07-10 01:37:28 +0000";
layers = (
{
anchors = (
{
name = _top;
pos = (181,496);
},
{
name = top;
pos = (660,739);
}
);
layerId = "45F6A7D2-68A2-4980-BE0C-7C210C91EB90";
shapes = (
{
closed = 1;
nodes = (
(171,568,ls),
(262,568,o),
(315,629,o),
(315,711,c),
(243,711,l),
(240,663,o),
(216,638,o),
(171,638,cs),
(159,638,ls),
(114,638,o),
(90,663,o),
(87,711,c),
(15,711,l),
(12,629,o),
(68,568,o),
(159,568,cs)
);
}
);
width = 330;
}
);
unicode = 774;
},
{
glyphname = ringcomb;
lastChange = "2025-07-10 01:39:17 +0000";
layers = (
{
anchors = (
{
name = _top;
pos = (152,520);
},
{
name = top;
pos = (152,761);
}
);
layerId = "45F6A7D2-68A2-4980-BE0C-7C210C91EB90";
shapes = (
{
closed = 1;
nodes = (
(207,551,o),
(253,602,o),
(253,654,cs),
(253,663,ls),
(253,716,o),
(207,761,o),
(152,761,cs),
(97,761,o),
(50,716,o),
(50,663,cs),
(50,654,ls),
(50,602,o),
(97,551,o),
(152,551,cs)
);
},
{
closed = 1;
nodes = (
(119,606,o),
(104,631,o),
(104,655,cs),
(104,660,ls),
(104,684,o),
(119,706,o),
(152,706,cs),
(184,706,o),
(199,684,o),
(199,660,cs),
(199,655,ls),
(199,631,o),
(184,606,o),
(152,606,cs)
);
}
);
width = 303;
}
);
unicode = 778;
},
{
glyphname = tildecomb;
lastChange = "2025-07-10 01:39:05 +0000";
layers = (
{
anchors = (
{
name = _top;
pos = (185,451);
},
{
name = top;
pos = (186,751);
}
);
layerId = "45F6A7D2-68A2-4980-BE0C-7C210C91EB90";
shapes = (
{
closed = 1;
nodes = (
(331,495,o),
(368,567,o),
(368,613,cs),
(368,623,l),
(292,623,l),
(292,617,ls),
(292,587,o),
(267,574,o),
(252,574,cs),
(242,574,o),
(237,576,o),
(223,582,cs),
(173,606,o),
(160,625,o),
(108,625,cs),
(45,624,o),
(3,571,o),
(3,522,cs),
(3,496,l),
(78,496,l),
(78,502,ls),
(78,533,o),
(105,545,o),
(120,545,cs),
(127,545,o),
(133,543,o),
(148,537,cs),
(197,514,o),
(210,494,o),
(261,494,cs)
);
}
);
width = 742;
}
);
unicode = 771;
},
{
glyphname = macroncomb;
lastChange = "2025-07-08 23:21:56 +0000";
layers = (
{
anchors = (
{
name = _top;
pos = (260,481);
},
{
name = top;
pos = (257,675);
}
);
layerId = "45F6A7D2-68A2-4980-BE0C-7C210C91EB90";
shapes = (
{
closed = 1;
nodes = (
(469,569,l),
(469,662,l),
(50,662,l),
(50,569,l)
);
}
);
width = 519;
}
);
unicode = 772;
},
{
glyphname = hookabovecomb;
lastChange = "2025-07-08 23:44:42 +0000";
layers = (
{
anchors = (
{
name = _top;
pos = (232,511);
},
{
name = top;
pos = (124,798);
}
);
layerId = "45F6A7D2-68A2-4980-BE0C-7C210C91EB90";
shapes = (
{
closed = 1;
nodes = (
(134,697,l),
(158,703,o),
(179,692,o),
(188,675,cs),
(190,673,ls),
(201,655,o),
(199,632,o),
(181,615,c),
(213,559,l),
(245,577,o),
(282,640,o),
(245,702,cs),
(242,708,ls),
(207,771,o),
(134,771,o),
(101,751,c)
);
}
);
width = 249;
}
);
unicode = 777;
},
{
glyphname = commaturnedabovecomb;
lastChange = "2024-11-23 05:05:47 +0000";
layers = (
{
anchors = (
{
name = _top;
pos = (60,535);
},
{
name = top;
pos = (60,896);
}
);
layerId = "45F6A7D2-68A2-4980-BE0C-7C210C91EB90";
shapes = (
{
closed = 1;
nodes = (
(55,887,o),
(-41,810,o),
(-41,618,c),
(64,617,l),
(64,767,o),
(118,815,o),
(161,820,c),
(161,896,l)
);
}
);
width = 262;
}
);
unicode = 786;
},
{
glyphname = horncomb;
lastChange = "2025-07-07 04:34:20 +0000";
layers = (
{
anchors = (
{
name = _topright;
pos = (277,634);
},
{
name = topright;
pos = (344,634);
}
);
layerId = "45F6A7D2-68A2-4980-BE0C-7C210C91EB90";
shapes = (
{
closed = 1;
nodes = (
(272,434,o),
(360,479,o),
(360,617,cs),
(360,634,l),
(277,634,l),
(283,560,o),
(250,528,o),
(212,510,c),
(173,495,l),
(209,425,l)
);
}
);
width = 370;
}
);
unicode = 795;
},
{
glyphname = dotbelowcomb;
lastChange = "2024-11-23 05:05:47 +0000";
layers = (
{
anchors = (
{
name = _bottom;
pos = (107,-5);
},
{
name = bottom;
pos = (107,-218);
}
);
layerId = "45F6A7D2-68A2-4980-BE0C-7C210C91EB90";
shapes = (
{
closed = 1;
nodes = (
(167,-199,l),
(167,-79,l),
(47,-79,l),
(47,-199,l)
);
}
);
width = 214;
}
);
unicode = 803;
},
{
glyphname = ringbelowcomb;
lastChange = "2024-11-23 05:05:47 +0000";
layers = (
{
anchors = (
{
name = _bottom;
pos = (189,0);
},
{
name = bottom;
pos = (189,-238);
}
);
layerId = "45F6A7D2-68A2-4980-BE0C-7C210C91EB90";
shapes = (
{
closed = 1;
nodes = (
(244,-238,o),
(290,-187,o),
(290,-135,cs),
(290,-126,ls),
(290,-73,o),
(244,-28,o),
(189,-28,cs),
(134,-28,o),
(87,-73,o),
(87,-126,cs),
(87,-135,ls),
(87,-187,o),
(134,-238,o),
(189,-238,cs)
);
},
{
closed = 1;
nodes = (
(156,-183,o),
(141,-158,o),
(141,-134,cs),
(141,-129,ls),
(141,-105,o),
(156,-83,o),
(189,-83,cs),
(221,-83,o),
(236,-105,o),
(236,-129,cs),
(236,-134,ls),
(236,-158,o),
(221,-183,o),
(189,-183,cs)
);
}
);
width = 303;
}
);
unicode = 805;
},
{
glyphname = commaaccentcomb;
lastChange = "2025-07-07 04:51:18 +0000";
layers = (
{
anchors = (
{
name = _bottom;
pos = (170,46);
},
{
name = bottom;
pos = (139,-243);
}
);
layerId = "45F6A7D2-68A2-4980-BE0C-7C210C91EB90";
shapes = (
{
closed = 1;
nodes = (
(131,-194,l),
(217,5,l),
(126,5,l),
(40,-194,l)
);
}
);
width = 277;
}
);
unicode = 806;
},
{
glyphname = cedillacomb;
lastChange = "2025-07-18 13:31:08 +0000";
layers = (
{
anchors = (
{
name = _bottom;
pos = (303,0);
},
{
name = bottom;
pos = (335,-264);
}
);
layerId = "45F6A7D2-68A2-4980-BE0C-7C210C91EB90";
shapes = (
{
attr = {
identifier = ID0x11b34a830;
strokePos = "0";
};
closed = 1;
nodes = (
(319,-264,ls),
(380,-264,o),
(459,-227,o),
(459,-141,cs),
(459,-44,o),
(379,-19,o),
(338,-19,c),
(360,39,l),
(284,67,l),
(224,-93,l),
(317,-93,ls),
(343,-94,o),
(378,-95,o),
(378,-141,cs),
(378,-187,o),
(343,-188,o),
(317,-188,cs),
(224,-188,l),
(224,-264,l)
);
}
);
width = 600;
}
);
unicode = 807;
},
{
glyphname = ogonekcomb;
lastChange = "2025-07-08 23:42:57 +0000";
layers = (
{
anchors = (
{
name = _ogonek;
pos = (231,21);
}
);
layerId = "45F6A7D2-68A2-4980-BE0C-7C210C91EB90";
shapes = (
{
closed = 1;
nodes = (
(199,-112,l),
(147,-121,o),
(124,-117,o),
(124,-77,cs),
(124,-36,o),
(181,13,o),
(181,13,c),
(129,13,l),
(70,-6,o),
(41,-36,o),
(41,-90,cs),
(41,-163,o),
(116,-200,o),
(209,-178,c)
);
}
);
width = 259;
}
);
unicode = 808;
},
{
glyphname = macronbelowcomb;
lastChange = "2024-11-23 05:05:47 +0000";
layers = (
{
anchors = (
{
name = _bottom;
pos = (296,0);
},
{
name = bottom;
pos = (296,-155);
}
);
layerId = "45F6A7D2-68A2-4980-BE0C-7C210C91EB90";
shapes = (
{
closed = 1;
nodes = (
(505,-155,l),
(505,-62,l),
(86,-62,l),
(86,-155,l)
);
}
);
width = 519;
}
);
unicode = 817;
},
{
glyphname = doublemacronbelowcomb;
lastChange = "2024-11-23 05:05:47 +0000";
layers = (
{
anchors = (
{
name = _bottom;
pos = (643,0);
},
{
name = bottom;
pos = (643,-147);
}
);
layerId = "45F6A7D2-68A2-4980-BE0C-7C210C91EB90";
shapes = (
{
closed = 1;
nodes = (
(1110,-147,l),
(1110,-64,l),
(177,-64,l),
(177,-147,l)
);
}
);
width = 820;
}
);
unicode = 863;
},
{
glyphname = apostrophemod;
lastChange = "2025-07-09 03:24:42 +0000";
layers = (
{
layerId = "45F6A7D2-68A2-4980-BE0C-7C210C91EB90";
shapes = (
{
closed = 1;
nodes = (
(155,505,l),
(225,727,l),
(124,727,l),
(70,505,l)
);
}
);
width = 295;
}
);
metricLeft = i;
metricRight = i;
unicode = 700;
},
{
glyphname = commareversedmod;
lastChange = "2024-11-23 05:05:47 +0000";
layers = (
{
layerId = "45F6A7D2-68A2-4980-BE0C-7C210C91EB90";
shapes = (
{
closed = 1;
nodes = (
(304,548,l),
(226,556,o),
(203,655,o),
(203,756,c),
(100,756,l),
(100,589,o),
(148,482,o),
(304,470,c)
);
}
);
width = 324;
}
);
unicode = 701;
},
{
glyphname = ringhalfleft;
lastChange = "2025-07-09 03:24:11 +0000";
layers = (
{
anchors = (
{
name = _top;
pos = (416,513);
},
{
name = top;
pos = (300,343);
}
);
layerId = "45F6A7D2-68A2-4980-BE0C-7C210C91EB90";
shapes = (
{
closed = 1;
nodes = (
(120,693,o),
(48,651,o),
(50,569,cs),
(50,562,ls),
(49,480,o),
(121,439,o),
(163,440,c),
(164,507,l),
(129,513,o),
(114,541,o),
(115,565,cs),
(115,568,ls),
(115,589,o),
(129,618,o),
(164,626,c),
(164,692,l)
);
}
);
width = 206;
}
);
metricLeft = o;
metricRight = o;
unicode = 703;
},
{
export = 0;
glyphname = "_B-abierta";
lastChange = "2024-02-16 04:22:05 +0000";
layers = (
{
layerId = "45F6A7D2-68A2-4980-BE0C-7C210C91EB90";
shapes = (
{
closed = 1;
nodes = (
(181,-4,ls),
(324,-4,o),
(439,64,o),
(439,221,cs),
(439,325,o),
(385,380,o),
(299,412,c),
(322,422,o),
(341,435,o),
(358,452,c),
(237,477,l),
(189,448,o),
(124,442,o),
(70,439,c),
(70,586,l),
(306,586,l),
(298,532,o),
(272,499,o),
(237,477,c),
(358,452,l),
(413,506,o),
(437,595,o),
(436,695,c),
(70,695,l),
(70,-4,l)
);
},
{
closed = 1;
nodes = (
(70,343,l),
(192,343,ls),
(284,343,o),
(334,300,o),
(334,219,cs),
(334,136,o),
(284,106,o),
(192,106,cs),
(70,106,l)
);
}
);
width = 499;
}
);
},
{
export = 0;
glyphname = "_abajo-tres";
lastChange = "2024-02-16 04:22:05 +0000";
layers = (
{
layerId = "45F6A7D2-68A2-4980-BE0C-7C210C91EB90";
shapes = (
{
closed = 1;
nodes = (
(170,-9,l),
(170,-17,o),
(546,23,o),
(535,406,c),
(70,406,l),
(70,296,l),
(404,296,l),
(326,127,o),
(164,100,o),
(70,100,c),
(70,-9,l)
);
}
);
width = 595;
}
);
},
{
export = 0;
glyphname = "_curva-arriba";
lastChange = "2023-12-21 04:29:56 +0000";
layers = (
{
layerId = "45F6A7D2-68A2-4980-BE0C-7C210C91EB90";
shapes = (
{
closed = 0;
nodes = (
(439,475,l),
(439,632,o),
(324,700,o),
(181,700,cs),
(70,700,l),
(70,590,l),
(192,590,ls),
(284,590,o),
(334,560,o),
(334,477,c)
);
},
{
closed = 0;
nodes = (
(334,478,l),
(334,395,o),
(284,365,o),
(192,365,cs),
(70,365,l),
(70,255,l),
(181,255,ls),
(324,255,o),
(439,323,o),
(439,480,c)
);
}
);
width = 499;
}
);
},
{
export = 0;
glyphname = "_segment-curve";
lastChange = "2024-02-16 04:22:05 +0000";
layers = (
{
layerId = "45F6A7D2-68A2-4980-BE0C-7C210C91EB90";
shapes = (
{
closed = 1;
nodes = (
(321,155,l),
(321,219,ls),
(321,335,o),
(323,259,o),
(321,452,cs),
(319,670,o),
(167,732,o),
(70,734,c),
(70,625,l),
(109,625,o),
(206,608,o),
(206,451,cs),
(206,155,l)
);
}
);
width = 382;
},
{
associatedMasterId = "45F6A7D2-68A2-4980-BE0C-7C210C91EB90";
layerId = "F2A6212C-DBB0-46A6-B47F-E556DD980B04";
name = "Nov 19 20, 17:03";
shapes = (
{
closed = 1;
nodes = (
(496,34,l),
(457,34,o),
(360,51,o),
(360,208,cs),
(360,504,l),
(245,504,l),
(245,440,ls),
(245,324,o),
(243,400,o),
(245,207,cs),
(247,-11,o),
(399,-73,o),
(496,-75,c)
);
}
);
width = 600;
}
);
},
{
export = 0;
glyphname = _arribatres;
lastChange = "2024-02-16 04:22:05 +0000";
layers = (
{
layerId = "45F6A7D2-68A2-4980-BE0C-7C210C91EB90";
shapes = (
{
closed = 1;
nodes = (
(413,495,o),
(437,584,o),
(436,684,c),
(70,684,l),
(70,575,l),
(306,575,l),
(298,521,o),
(272,488,o),
(237,466,c),
(358,441,l)
);
}
);
width = 496;
}
);
},
{
export = 0;
glyphname = _dash;
lastChange = "2024-02-16 04:22:05 +0000";
layers = (
{
layerId = "45F6A7D2-68A2-4980-BE0C-7C210C91EB90";
shapes = (
{
closed = 1;
nodes = (
(534,588,l),
(535,698,l),
(70,698,l),
(70,588,l)
);
}
);
width = 595;
}
);
},
{
export = 0;
glyphname = _diag;
lastChange = "2024-02-16 04:22:05 +0000";
layers = (
{
layerId = "45F6A7D2-68A2-4980-BE0C-7C210C91EB90";
shapes = (
{
closed = 1;
nodes = (
(290,406,l),
(529,579,l),
(337,579,l),
(70,406,l)
);
}
);
width = 589;
}
);
},
{
export = 0;
glyphname = _rayitaAbaDer;
lastChange = "2024-02-16 04:22:05 +0000";
layers = (
{
layerId = "45F6A7D2-68A2-4980-BE0C-7C210C91EB90";
shapes = (
{
closed = 1;
nodes = (
(446,-43,l),
(211,279,l),
(70,272,l),
(300,-43,l)
);
}
);
width = 506;
}
);
},
{
export = 0;
glyphname = _rayitaArrIzq;
lastChange = "2024-02-16 04:22:05 +0000";
layers = (
{
layerId = "45F6A7D2-68A2-4980-BE0C-7C210C91EB90";
shapes = (
{
closed = 1;
nodes = (
(446,587,l),
(300,587,l),
(70,272,l)
);
}
);
width = 506;
}
);
},
{
export = 0;
glyphname = "abajo-six";
lastChange = "2024-02-16 04:22:05 +0000";
layers = (
{
layerId = "45F6A7D2-68A2-4980-BE0C-7C210C91EB90";
shapes = (
{
closed = 1;
nodes = (
(540,1,l),
(540,497,l),
(438,497,ls),
(259,497,o),
(70,384,o),
(70,132,cs),
(70,1,l)
);
},
{
closed = 1;
nodes = (
(186,131,ls),
(186,310,o),
(309,372,o),
(424,387,c),
(424,112,l),
(186,112,l)
);
}
);
width = 600;
}
);
},
{
export = 0;
glyphname = alternative_X;
lastChange = "2024-02-16 04:22:05 +0000";
layers = (
{
layerId = "45F6A7D2-68A2-4980-BE0C-7C210C91EB90";
shapes = (
{
closed = 1;
nodes = (
(166,0,l),
(166,133,o),
(241,226,o),
(328,267,c),
(498,0,l),
(634,0,l),
(431,321,l),
(548,379,o),
(633,522,o),
(635,700,c),
(519,700,l),
(519,567,o),
(455,460,o),
(369,420,c),
(191,700,l),
(53,700,l),
(265,366,l),
(149,308,o),
(52,179,o),
(50,0,c)
);
}
);
width = 689;
}
);
metricLeft = T;
},
{
export = 0;
glyphname = alternative_Y;
lastChange = "2023-12-21 04:29:56 +0000";
layers = (
{
layerId = "45F6A7D2-68A2-4980-BE0C-7C210C91EB90";
shapes = (
{
closed = 0;
nodes = (
(53,105,l),
(53,0,l),
(113,0,ls),
(291,0,o),
(523,44,o),
(523,320,cs),
(523,700,l),
(408,700,l),
(408,429,l),
(278,429,o),
(113,498,o),
(114,700,c),
(0,700,l),
(4,426,o),
(231,291,o),
(408,297,c),
(408,293,l)
);
}
);
width = 523;
}
);
},
{
export = 0;
glyphname = anillo;
lastChange = "2024-02-16 04:22:05 +0000";
layers = (
{
layerId = "45F6A7D2-68A2-4980-BE0C-7C210C91EB90";
shapes = (
{
closed = 1;
nodes = (
(319,565,o),
(340,574,o),
(354,584,cs),
(374,599,o),
(389,622,o),
(389,656,cs),
(389,678,ls),
(389,712,o),
(375,735,o),
(354,749,cs),
(339,758,o),
(319,768,o),
(301,768,cs),
(282,768,o),
(261,761,o),
(246,749,cs),
(228,734,o),
(212,712,o),
(212,678,cs),
(212,656,ls),
(212,622,o),
(227,598,o),
(246,584,cs),
(261,574,o),
(282,565,o),
(301,565,cs)
);
},
{
closed = 1;
nodes = (
(297,604,o),
(287,607,o),
(282,610,cs),
(267,620,o),
(256,632,o),
(256,657,cs),
(256,675,ls),
(256,701,o),
(267,715,o),
(283,723,cs),
(291,727,o),
(297,726,o),
(301,727,cs),
(305,728,o),
(312,726,o),
(320,723,cs),
(336,717,o),
(346,701,o),
(346,675,cs),
(346,657,ls),
(346,632,o),
(335,620,o),
(320,610,cs),
(315,607,o),
(305,606,o),
(301,605,cs)
);
}
);
width = 600;
}
);
},
{
export = 0;
glyphname = anillocopy;
lastChange = "2024-02-16 04:22:05 +0000";
layers = (
{
layerId = "45F6A7D2-68A2-4980-BE0C-7C210C91EB90";
shapes = (
{
closed = 1;
nodes = (
(465,0,o),
(600,135,o),
(600,300,cs),
(600,466,o),
(465,601,o),
(300,601,cs),
(135,601,o),
(0,466,o),
(0,300,cs),
(0,135,o),
(135,0,o),
(300,0,cs)
);
},
{
closed = 1;
nodes = (
(187,95,o),
(95,187,o),
(95,300,cs),
(95,414,o),
(187,506,o),
(300,506,cs),
(413,506,o),
(505,414,o),
(505,300,cs),
(505,187,o),
(413,95,o),
(300,95,cs)
);
}
);
width = 600;
}
);
},
{
export = 0;
glyphname = arriba_3;
lastChange = "2024-04-27 03:11:36 +0000";
layers = (
{
layerId = "45F6A7D2-68A2-4980-BE0C-7C210C91EB90";
shapes = (
{
closed = 1;
nodes = (
(165,349,ls),
(305,349,o),
(503,351,o),
(503,700,c),
(74,700,l),
(74,598,l),
(385,598,l),
(384,495,o),
(322,449,o),
(150,449,c),
(150,349,l)
);
}
);
width = 533;
}
);
},
{
export = 0;
glyphname = "barra-inclinada";
lastChange = "2024-04-27 03:11:34 +0000";
layers = (
{
layerId = "45F6A7D2-68A2-4980-BE0C-7C210C91EB90";
shapes = (
{
closed = 1;
nodes = (
(159,0,l),
(703,700,l),
(561,700,l),
(17,0,l)
);
}
);
width = 692;
}
);
},
{
export = 0;
glyphname = "barra-muyinclinada";
lastChange = "2024-04-27 03:11:31 +0000";
layers = (
{
layerId = "45F6A7D2-68A2-4980-BE0C-7C210C91EB90";
shapes = (
{
closed = 1;
nodes = (
(70,155,l),
(377,349,l),
(377,455,l),
(70,261,l)
);
}
);
width = 427;
}
);
metricLeft = N;
metricRight = N;
},
{
export = 0;
glyphname = barrita;
lastChange = "2024-02-16 04:22:05 +0000";
layers = (
{
layerId = "45F6A7D2-68A2-4980-BE0C-7C210C91EB90";
shapes = (
{
closed = 1;
nodes = (
(214,-84,l),
(214,700,l),
(123,700,l),
(123,-84,l)
);
}
);
width = 600;
}
);
},
{
export = 0;
glyphname = baston;
lastChange = "2024-02-16 04:22:05 +0000";
layers = (
{
layerId = "45F6A7D2-68A2-4980-BE0C-7C210C91EB90";
shapes = (
{
closed = 1;
nodes = (
(114,0,l),
(114,700,l),
(2,700,l),
(2,0,l)
);
}
);
width = 116;
}
);
},
{
export = 0;
glyphname = bastonCurvo_corto;
lastChange = "2024-04-27 03:11:28 +0000";
layers = (
{
layerId = "45F6A7D2-68A2-4980-BE0C-7C210C91EB90";
shapes = (
{
closed = 1;
nodes = (
(463,113,l),
(463,215,l),
(395,215,ls),
(265,215,o),
(156,245,o),
(156,449,cs),
(156,535,l),
(40,535,l),
(40,448,ls),
(40,172,o),
(213,113,o),
(395,113,cs)
);
}
);
width = 1102;
}
);
},
{
export = 0;
glyphname = baston_N;
lastChange = "2024-02-16 04:22:05 +0000";
layers = (
{
layerId = "45F6A7D2-68A2-4980-BE0C-7C210C91EB90";
shapes = (
{
closed = 1;
nodes = (
(520,0,l),
(520,351,ls),
(520,579,o),
(357,700,o),
(91,700,cs),
(0,700,l),
(113,586,l),
(262,587,o),
(405,531,o),
(404,351,cs),
(404,0,l)
);
}
);
width = 487;
}
);
},
{
export = 0;
glyphname = baston_T;
lastChange = "2024-02-16 04:22:05 +0000";
layers = (
{
layerId = "45F6A7D2-68A2-4980-BE0C-7C210C91EB90";
shapes = (
{
closed = 1;
nodes = (
(354,108,l),
(238,117,o),
(116,162,o),
(116,334,cs),
(116,590,l),
(0,590,l),
(0,333,ls),
(7,87,o),
(187,9,o),
(354,-1,c)
);
}
);
width = 354;
}
);
},
{
export = 0;
glyphname = baston_curvo;
lastChange = "2024-04-27 03:10:44 +0000";
layers = (
{
layerId = "45F6A7D2-68A2-4980-BE0C-7C210C91EB90";
shapes = (
{
closed = 1;
nodes = (
(318,-190,o),
(494,-102,o),
(501,144,c),
(501,535,l),
(389,535,l),
(389,135,ls),
(389,-30,o),
(267,-82,o),
(151,-91,c),
(151,-200,l)
);
}
);
width = 551;
}
);
},
{
export = 0;
glyphname = baston_n_min;
lastChange = "2024-04-27 03:11:12 +0000";
layers = (
{
layerId = "45F6A7D2-68A2-4980-BE0C-7C210C91EB90";
shapes = (
{
closed = 1;
nodes = (
(463,0,l),
(463,200,ls),
(463,476,o),
(290,535,o),
(108,535,cs),
(40,535,l),
(40,433,l),
(108,433,ls),
(238,433,o),
(347,403,o),
(347,199,cs),
(347,0,l)
);
}
);
width = 513;
}
);
metricRight = N;
},
{
export = 0;
glyphname = "bracket-part";
lastChange = "2024-02-16 04:22:05 +0000";
layers = (
{
layerId = "45F6A7D2-68A2-4980-BE0C-7C210C91EB90";
shapes = (
{
closed = 1;
nodes = (
(128,-133,ls),
(214,-133,o),
(265,-105,o),
(293,-31,cs),
(335,79,o),
(213,130,o),
(234,203,cs),
(252,266,o),
(283,259,o),
(314,259,cs),
(337,259,l),
(337,329,l),
(237,329,o),
(175,306,o),
(154,218,cs),
(128,109,o),
(238,71,o),
(213,-4,cs),
(199,-46,o),
(148,-43,o),
(147,-43,cs),
(110,-43,l),
(110,-133,l)
);
}
);
width = 447;
}
);
},
{
export = 0;
glyphname = "c-cedilla";
lastChange = "2024-02-16 04:22:05 +0000";
layers = (
{
layerId = "45F6A7D2-68A2-4980-BE0C-7C210C91EB90";
shapes = (
{
closed = 1;
nodes = (
(300,-122,ls),
(389,-122,o),
(453,-72,o),
(453,29,cs),
(453,99,o),
(417,137,o),
(359,158,c),
(246,158,l),
(290,113,l),
(347,111,o),
(376,82,o),
(376,27,cs),
(376,-27,o),
(351,-48,o),
(293,-49,cs),
(247,-48,o),
(222,-34,o),
(215,0,c),
(145,-37,l),
(168,-94,o),
(220,-122,o),
(286,-122,cs)
);
}
);
width = 600;
}
);
},
{
export = 0;
glyphname = comilla;
lastChange = "2024-02-16 04:22:05 +0000";
layers = (
{
layerId = "45F6A7D2-68A2-4980-BE0C-7C210C91EB90";
shapes = (
{
closed = 1;
nodes = (
(292,414,o),
(440,499,o),
(440,716,c),
(440,716,o),
(440,600,o),
(440,716,c),
(324,717,l),
(324,545,o),
(275,487,o),
(243,478,c),
(243,397,l)
);
}
);
width = 500;
}
);
},
{
export = 0;
glyphname = component;
lastChange = "2024-02-16 04:22:05 +0000";
layers = (
{
layerId = "45F6A7D2-68A2-4980-BE0C-7C210C91EB90";
shapes = (
{
closed = 1;
nodes = (
(292,0,o),
(365,0,o),
(399,29,cs),
(439,62,o),
(446,98,o),
(445,134,cs),
(444,172,o),
(420,206,o),
(410,221,cs),
(401,234,o),
(391,249,o),
(391,270,cs),
(390,294,o),
(399,303,o),
(411,312,cs),
(432,328,o),
(477,329,o),
(477,329,c),
(477,393,l),
(469,393,ls),
(409,393,o),
(333,356,o),
(324,294,cs),
(318,253,o),
(330,226,o),
(347,199,cs),
(356,184,o),
(377,156,o),
(379,134,cs),
(381,113,o),
(372,95,o),
(358,85,cs),
(347,77,o),
(329,75,o),
(310,74,cs),
(292,74,l),
(292,0,l)
);
}
);
width = 600;
}
);
},
{
export = 0;
glyphname = contraforma;
lastChange = "2024-02-16 04:22:05 +0000";
layers = (
{
layerId = "45F6A7D2-68A2-4980-BE0C-7C210C91EB90";
shapes = (
{
closed = 1;
nodes = (
(192,111,ls),
(284,111,o),
(334,141,o),
(334,224,cs),
(334,306,o),
(284,336,o),
(192,336,cs),
(70,336,l),
(70,111,l)
);
}
);
width = 394;
}
);
},
{
export = 0;
glyphname = contraformaBarriba;
lastChange = "2024-02-16 04:22:05 +0000";
layers = (
{
layerId = "45F6A7D2-68A2-4980-BE0C-7C210C91EB90";
shapes = (
{
closed = 1;
nodes = (
(306,590,l),
(70,590,l),
(88,462,o),
(212,449,o),
(306,443,c)
);
}
);
width = 366;
}
);
},
{
export = 0;
glyphname = cruz;
lastChange = "2024-02-16 04:22:05 +0000";
layers = (
{
layerId = "45F6A7D2-68A2-4980-BE0C-7C210C91EB90";
shapes = (
{
closed = 1;
nodes = (
(548,459,l),
(391,585,l),
(548,712,l),
(469,712,l),
(321,585,l),
(469,459,l)
);
},
{
closed = 1;
nodes = (
(244,459,l),
(392,585,l),
(244,712,l),
(165,712,l),
(322,585,l),
(165,459,l)
);
}
);
width = 730;
}
);
},
{
export = 0;
glyphname = "curva-a-min";
lastChange = "2024-02-16 04:22:05 +0000";
layers = (
{
layerId = "45F6A7D2-68A2-4980-BE0C-7C210C91EB90";
shapes = (
{
closed = 1;
nodes = (
(489,325,l),
(487,499,o),
(292,549,o),
(136,549,cs),
(91,549,l),
(91,460,l),
(136,460,ls),
(241,460,o),
(389,440,o),
(388,306,c)
);
}
);
width = 600;
}
);
},
{
export = 0;
glyphname = "curva-chica";
lastChange = "2024-04-27 03:10:48 +0000";
layers = (
{
layerId = "45F6A7D2-68A2-4980-BE0C-7C210C91EB90";
shapes = (
{
closed = 1;
nodes = (
(437,32,l),
(437,138,l),
(305,138,ls),
(209,138,o),
(148,178,o),
(148,266,cs),
(148,352,o),
(209,393,o),
(305,393,cs),
(437,393,l),
(437,499,l),
(316,499,ls),
(167,499,o),
(44,430,o),
(44,266,cs),
(44,101,o),
(167,32,o),
(316,32,cs)
);
}
);
width = 475;
}
);
},
{
export = 0;
glyphname = curva_3;
lastChange = "2024-04-27 03:11:02 +0000";
layers = (
{
layerId = "45F6A7D2-68A2-4980-BE0C-7C210C91EB90";
shapes = (
{
closed = 1;
nodes = (
(202,0,ls),
(345,0,o),
(460,68,o),
(460,225,cs),
(460,329,o),
(411,394,o),
(329,426,cs),
(261,453,o),
(161,453,o),
(107,453,c),
(107,346,l),
(190,346,ls),
(301,346,o),
(355,299,o),
(355,218,cs),
(355,152,o),
(305,107,o),
(213,107,cs),
(30,107,l),
(30,0,l)
);
}
);
width = 500;
}
);
},
{
export = 0;
glyphname = "curva_d-b";
lastChange = "2025-07-18 13:51:14 +0000";
layers = (
{
layerId = "45F6A7D2-68A2-4980-BE0C-7C210C91EB90";
shapes = (
{
closed = 1;
nodes = (
(479,0,l),
(479,103,l),
(386,103,ls),
(297,106,o),
(160,124,o),
(160,283,cs),
(160,535,l),
(50,535,l),
(50,282,ls),
(50,53,o),
(225,2,o),
(381,0,cs)
);
}
);
width = 584;
}
);
},
{
export = 0;
glyphname = curva_eee;
lastChange = "2025-07-18 13:51:14 +0000";
layers = (
{
layerId = "45F6A7D2-68A2-4980-BE0C-7C210C91EB90";
shapes = (
{
closed = 1;
nodes = (
(161,184,ls),
(301,184,o),
(523,195,o),
(499,535,c),
(48,535,l),
(150,433,l),
(389,433,l),
(389,317,o),
(318,282,o),
(146,282,c),
(137,184,l)
);
}
);
width = 529;
}
);
},
{
export = 0;
glyphname = curva_gde_eee;
lastChange = "2025-07-18 13:51:14 +0000";
layers = (
{
layerId = "45F6A7D2-68A2-4980-BE0C-7C210C91EB90";
shapes = (
{
closed = 1;
nodes = (
(40,535,l),
(40,280,ls),
(40,51,o),
(215,0,o),
(371,-2,c),
(469,-2,l),
(469,101,l),
(376,101,l),
(287,104,o),
(150,122,o),
(150,281,cs),
(150,535,l)
);
}
);
width = 529;
}
);
},
{
export = 0;
glyphname = curva_tilde;
lastChange = "2025-07-18 13:51:14 +0000";
layers = (
{
layerId = "45F6A7D2-68A2-4980-BE0C-7C210C91EB90";
shapes = (
{
closed = 1;
nodes = (
(103,550,l),
(114,550,o),
(118,548,o),
(132,542,cs),
(179,520,o),
(201,501,o),
(249,501,cs),
(309,501,o),
(349,539,o),
(349,586,cs),
(349,611,l),
(283,611,l),
(283,605,ls),
(283,576,o),
(264,564,o),
(250,564,cs),
(234,564,o),
(226,565,o),
(212,572,cs),
(170,592,o),
(155,613,o),
(103,613,c)
);
}
);
width = 371;
}
);
},
{
export = 0;
glyphname = curvacontracurva;
lastChange = "2024-02-16 04:22:05 +0000";
layers = (
{
layerId = "45F6A7D2-68A2-4980-BE0C-7C210C91EB90";
shapes = (
{
closed = 1;
nodes = (
(340,113,l),
(339,201,o),
(291,265,o),
(234,294,cs),
(183,320,ls),
(141,340,o),
(109,392,o),
(109,458,c),
(52,458,l),
(53,370,o),
(94,300,o),
(152,271,cs),
(203,244,ls),
(246,224,o),
(283,179,o),
(283,113,c)
);
}
);
width = 367;
}
);
},
{
export = 0;
glyphname = curvita;
lastChange = "2024-02-16 04:22:05 +0000";
layers = (
{
layerId = "45F6A7D2-68A2-4980-BE0C-7C210C91EB90";
shapes = (
{
closed = 1;
nodes = (
(384,519,o),
(422,580,o),
(421,662,c),
(358,662,l),
(358,609,o),
(341,581,o),
(293,581,cs),
(245,581,o),
(228,609,o),
(228,662,c),
(165,662,l),
(165,580,o),
(203,519,o),
(294,519,cs)
);
}
);
width = 600;
}
);
},
{
export = 0;
glyphname = diag1;
lastChange = "2024-02-16 04:22:05 +0000";
layers = (
{
layerId = "45F6A7D2-68A2-4980-BE0C-7C210C91EB90";
shapes = (
{
closed = 1;
nodes = (
(498,513,l),
(248,656,l),
(225,617,l),
(475,474,l)
);
}
);
width = 730;
}
);
},
{
export = 0;
glyphname = diag2;
lastChange = "2024-02-16 04:22:05 +0000";
layers = (
{
layerId = "45F6A7D2-68A2-4980-BE0C-7C210C91EB90";
shapes = (
{
closed = 1;
nodes = (
(497,618,l),
(474,657,l),
(226,512,l),
(249,473,l)
);
}
);
width = 730;
}
);
},
{
export = 0;
glyphname = dos_o_s;
lastChange = "2023-12-21 04:29:56 +0000";
layers = (
{
layerId = "45F6A7D2-68A2-4980-BE0C-7C210C91EB90";
shapes = (
{
closed = 0;
nodes = (
(204,533,l),
(174,533,ls),
(82,533,o),
(1,466,o),
(1,380,cs),
(1,293,o),
(82,225,o),
(174,228,cs),
(204,229,l)
);
},
{
closed = 0;
nodes = (
(204,304,l),
(174,304,ls),
(118,304,o),
(69,333,o),
(69,380,cs),
(69,427,o),
(118,456,o),
(174,456,cs),
(204,456,l)
);
},
{
closed = 0;
nodes = (
(1,152,l),
(1,65,o),
(82,0,o),
(174,0,cs),
(204,0,ls),
(295,0,o),
(367,65,o),
(367,152,cs),
(367,238,o),
(295,304,o),
(204,304,cs),
(174,304,l)
);
},
{
closed = 0;
nodes = (
(174,228,l),
(204,228,ls),
(262,228,o),
(299,199,o),
(299,152,cs),
(299,105,o),
(262,76,o),
(204,76,cs),
(174,76,ls),
(118,76,o),
(69,105,o),
(69,152,c)
);
}
);
width = 367;
}
);
},
{
export = 0;
glyphname = half_curve;
lastChange = "2024-02-16 04:22:05 +0000";
layers = (
{
layerId = "45F6A7D2-68A2-4980-BE0C-7C210C91EB90";
shapes = (
{
closed = 1;
nodes = (
(373,283,l),
(329,304,o),
(295,363,o),
(239,378,cs),
(228,381,o),
(224,383,o),
(203,383,cs),
(121,383,o),
(63,319,o),
(63,238,cs),
(63,197,l),
(153,197,l),
(153,229,ls),
(153,276,o),
(182,294,o),
(202,294,cs),
(273,294,o),
(291,215,o),
(370,191,c)
);
}
);
width = 600;
}
);
},
{
export = 0;
glyphname = ijdotless;
lastChange = "2024-04-27 03:11:08 +0000";
layers = (
{
layerId = "45F6A7D2-68A2-4980-BE0C-7C210C91EB90";
shapes = (
{
closed = 1;
nodes = (
(182,0,l),
(182,535,l),
(70,535,l),
(70,0,l)
);
}
);
width = 252;
}
);
metricLeft = "=H";
metricRight = "=|H";
},
{
export = 0;
glyphname = "min-baston";
lastChange = "2024-02-16 04:22:05 +0000";
layers = (
{
layerId = "45F6A7D2-68A2-4980-BE0C-7C210C91EB90";
shapes = (
{
closed = 1;
nodes = (
(408,0,l),
(408,520,l),
(319,520,l),
(319,0,l)
);
},
{
closed = 1;
nodes = (
(408,618,l),
(408,700,l),
(319,700,l),
(319,618,l)
);
}
);
width = 730;
}
);
},
{
export = 0;
glyphname = ojo_e_y_a;
lastChange = "2024-04-27 03:11:05 +0000";
layers = (
{
layerId = "45F6A7D2-68A2-4980-BE0C-7C210C91EB90";
shapes = (
{
closed = 1;
nodes = (
(165,184,ls),
(305,184,o),
(503,186,o),
(503,535,c),
(52,535,l),
(154,433,l),
(385,433,l),
(384,330,o),
(322,284,o),
(150,284,c),
(141,184,l)
);
}
);
width = 533;
}
);
},
{
export = 0;
glyphname = old_W;
lastChange = "2024-02-16 04:22:05 +0000";
layers = (
{
layerId = "45F6A7D2-68A2-4980-BE0C-7C210C91EB90";
shapes = (
{
closed = 1;
nodes = (
(177,0,l),
(196,1,ls),
(279,1,o),
(366,40,o),
(433,91,c),
(433,0,l),
(530,0,l),
(549,1,ls),
(715,1,o),
(898,89,o),
(901,335,cs),
(903,487,o),
(899,448,o),
(901,700,c),
(785,700,l),
(785,336,ls),
(785,164,o),
(665,120,o),
(549,110,c),
(549,700,l),
(434,700,l),
(434,336,ls),
(434,164,o),
(312,120,o),
(196,110,c),
(196,700,l),
(80,700,l),
(80,0,l)
);
}
);
width = 962;
}
);
},
{
export = 0;
glyphname = old_Y;
lastChange = "2024-02-16 04:22:05 +0000";
layers = (
{
layerId = "45F6A7D2-68A2-4980-BE0C-7C210C91EB90";
shapes = (
{
closed = 1;
nodes = (
(153,0,ls),
(331,-6,o),
(559,44,o),
(563,320,cs),
(563,700,l),
(448,700,l),
(448,429,l),
(318,429,o),
(153,498,o),
(154,700,c),
(40,700,l),
(44,426,o),
(271,319,o),
(448,325,c),
(448,321,ls),
(448,117,o),
(283,105,o),
(153,105,cs),
(93,105,l),
(93,0,l)
);
}
);
width = 623;
}
);
},
{
export = 0;
glyphname = optional_Y;
lastChange = "2024-02-16 04:22:05 +0000";
layers = (
{
layerId = "45F6A7D2-68A2-4980-BE0C-7C210C91EB90";
shapes = (
{
closed = 1;
nodes = (
(584,0,l),
(370,338,l),
(487,396,o),
(583,522,o),
(585,700,c),
(469,700,l),
(469,567,o),
(398,471,o),
(312,431,c),
(141,700,l),
(0,700,l),
(444,0,l)
);
}
);
width = 623;
}
);
},
{
export = 0;
glyphname = palito;
lastChange = "2024-02-16 04:22:05 +0000";
layers = (
{
layerId = "45F6A7D2-68A2-4980-BE0C-7C210C91EB90";
shapes = (
{
closed = 1;
nodes = (
(385,425,l),
(383,701,l),
(338,701,l),
(339,425,l)
);
}
);
width = 730;
}
);
},
{
export = 0;
glyphname = parte_arriba_y;
lastChange = "2024-04-27 03:11:25 +0000";
layers = (
{
layerId = "45F6A7D2-68A2-4980-BE0C-7C210C91EB90";
shapes = (
{
closed = 1;
nodes = (
(499,96,l),
(499,389,l),
(389,389,l),
(389,199,l),
(270,206,o),
(142,253,o),
(142,432,cs),
(142,535,l),
(30,535,l),
(30,431,ls),
(30,179,o),
(218,96,o),
(389,96,cs)
);
}
);
width = 551;
}
);
},
{
export = 0;
glyphname = pata_R;
lastChange = "2024-02-16 04:22:05 +0000";
layers = (
{
layerId = "45F6A7D2-68A2-4980-BE0C-7C210C91EB90";
shapes = (
{
closed = 1;
nodes = (
(308,0,l),
(122,322,l),
(0,322,l),
(186,0,l)
);
}
);
width = 308;
}
);
},
{
export = 0;
glyphname = punto;
lastChange = "2024-03-27 22:20:41 +0000";
layers = (
{
layerId = "45F6A7D2-68A2-4980-BE0C-7C210C91EB90";
shapes = (
{
closed = 1;
nodes = (
(110,0,l),
(110,110,l),
(0,110,l),
(0,0,l)
);
}
);
width = 110;
}
);
},
{
export = 0;
glyphname = puntos;
lastChange = "2024-11-23 05:05:47 +0000";
layers = (
{
layerId = "45F6A7D2-68A2-4980-BE0C-7C210C91EB90";
shapes = (
{
closed = 1;
nodes = (
(214,820,l),
(167,773,l),
(214,726,l),
(261,773,l)
);
},
{
closed = 1;
nodes = (
(214,-22,l),
(167,-69,l),
(214,-116,l),
(261,-69,l)
);
}
);
width = 400;
}
);
},
{
export = 0;
glyphname = simplecurve;
lastChange = "2024-04-27 03:11:20 +0000";
layers = (
{
layerId = "45F6A7D2-68A2-4980-BE0C-7C210C91EB90";
shapes = (
{
closed = 1;
nodes = (
(145,-4,ls),
(288,-4,o),
(403,64,o),
(403,221,cs),
(403,325,o),
(354,390,o),
(272,422,cs),
(204,449,o),
(104,449,o),
(50,449,c),
(50,342,l),
(133,342,ls),
(244,342,o),
(298,295,o),
(298,214,cs),
(298,148,o),
(248,103,o),
(156,103,cs),
(50,103,l),
(50,-4,l)
);
}
);
width = 453;
}
);
},
{
export = 0;
glyphname = spine;
lastChange = "2024-02-16 04:22:05 +0000";
layers = (
{
layerId = "45F6A7D2-68A2-4980-BE0C-7C210C91EB90";
shapes = (
{
closed = 1;
nodes = (
(179,-7,ls),
(300,-7,o),
(346,94,o),
(346,144,cs),
(346,169,o),
(349,243,o),
(246,286,cs),
(191,309,o),
(172,343,o),
(166,364,cs),
(164,374,o),
(163,383,o),
(163,390,cs),
(163,449,o),
(216,460,o),
(240,460,cs),
(278,460,l),
(278,548,l),
(241,548,ls),
(109,548,o),
(76,429,o),
(76,387,cs),
(76,379,o),
(76,352,o),
(94,321,cs),
(119,276,o),
(159,256,o),
(192,234,cs),
(225,214,o),
(258,197,o),
(258,147,cs),
(258,89,o),
(206,83,o),
(180,83,cs),
(143,83,l),
(143,-7,l)
);
}
);
width = 367;
}
);
},
{
export = 0;
glyphname = vchiquita;
lastChange = "2024-02-16 04:22:05 +0000";
layers = (
{
layerId = "45F6A7D2-68A2-4980-BE0C-7C210C91EB90";
shapes = (
{
closed = 1;
nodes = (
(281,0,l),
(438,288,l),
(357,288,l),
(240,75,l),
(122,288,l),
(41,288,l),
(198,0,l)
);
}
);
width = 600;
}
);
},
{
export = 0;
glyphname = arriba_3.old;
lastChange = "2024-04-27 03:11:18 +0000";
layers = (
{
layerId = "45F6A7D2-68A2-4980-BE0C-7C210C91EB90";
shapes = (
{
closed = 1;
nodes = (
(262,357,o),
(460,357,o),
(460,700,c),
(44,700,l),
(44,598,l),
(340,598,l),
(324,506,o),
(300,457,o),
(122,457,c),
(122,357,l)
);
}
);
width = 500;
}
);
},
{
export = 0;
glyphname = baston_N.001;
lastChange = "2024-11-23 00:34:11 +0000";
layers = (
{
layerId = "45F6A7D2-68A2-4980-BE0C-7C210C91EB90";
shapes = (
{
closed = 1;
nodes = (
(522,0,l),
(522,365,ls),
(522,641,o),
(293,700,o),
(111,700,cs),
(51,700,l),
(51,598,l),
(111,598,ls),
(241,598,o),
(406,568,o),
(406,364,cs),
(406,0,l)
);
}
);
width = 487;
}
);
},
{
export = 0;
glyphname = newGlyph.001;
lastChange = "2024-02-16 04:22:05 +0000";
layers = (
{
layerId = "45F6A7D2-68A2-4980-BE0C-7C210C91EB90";
shapes = (
{
closed = 1;
nodes = (
(449,0,o),
(554,68,o),
(554,225,cs),
(554,329,o),
(500,384,o),
(414,416,c),
(437,426,o),
(456,439,o),
(473,456,cs),
(528,511,o),
(547,599,o),
(546,699,c),
(244,699,l),
(244,590,l),
(416,590,l),
(408,536,o),
(387,503,o),
(352,481,cs),
(305,451,o),
(298,446,o),
(244,443,c),
(244,347,l),
(307,347,ls),
(399,347,o),
(444,304,o),
(444,223,cs),
(444,140,o),
(399,110,o),
(307,110,cs),
(306,110,l),
(306,0,l)
);
},
{
closed = 1;
nodes = (
(318,110,l),
(317,110,ls),
(225,110,o),
(179,140,o),
(179,223,cs),
(179,304,o),
(225,347,o),
(317,347,cs),
(380,347,l),
(380,443,l),
(326,446,o),
(319,451,o),
(272,481,cs),
(237,503,o),
(216,536,o),
(208,590,c),
(380,590,l),
(380,699,l),
(78,699,l),
(77,599,o),
(96,511,o),
(151,456,cs),
(168,439,o),
(187,426,o),
(210,416,c),
(124,384,o),
(70,329,o),
(70,225,cs),
(70,68,o),
(175,0,o),
(318,0,c)
);
}
);
width = 614;
}
);
},
{
export = 0;
glyphname = newGlyph.002;
lastChange = "2024-02-16 04:22:05 +0000";
layers = (
{
layerId = "45F6A7D2-68A2-4980-BE0C-7C210C91EB90";
shapes = (
{
closed = 1;
nodes = (
(320,0,l),
(321,194,ls),
(322,310,o),
(323,234,o),
(321,427,cs),
(319,645,o),
(167,707,o),
(70,709,c),
(70,600,l),
(109,600,o),
(206,583,o),
(206,426,cs),
(205,0,l)
);
}
);
width = 382;
}
);
},
{
export = 0;
glyphname = newGlyph.003;
lastChange = "2024-02-16 04:22:05 +0000";
layers = (
{
layerId = "45F6A7D2-68A2-4980-BE0C-7C210C91EB90";
shapes = (
{
closed = 1;
nodes = (
(147,0,ls),
(289,0,o),
(540,49,o),
(538,386,c),
(445,392,ls),
(365,399,o),
(185,419,o),
(186,589,c),
(540,590,l),
(540,700,l),
(70,699,l),
(70,603,ls),
(70,294,o),
(422,291,o),
(422,294,cs),
(422,223,o),
(339,110,o),
(147,110,cs),
(72,110,l),
(72,0,l)
);
}
);
width = 600;
}
);
},
{
export = 0;
glyphname = newGlyph.004;
lastChange = "2024-02-16 04:22:05 +0000";
layers = (
{
layerId = "45F6A7D2-68A2-4980-BE0C-7C210C91EB90";
shapes = (
{
closed = 1;
nodes = (
(542,0,l),
(542,105,l),
(482,105,ls),
(352,105,o),
(187,132,o),
(187,336,cs),
(187,355,l),
(327,355,l),
(327,464,l),
(187,464,l),
(187,700,l),
(71,700,l),
(71,529,ls),
(71,412,o),
(69,529,o),
(71,335,cs),
(74,59,o),
(300,0,o),
(482,0,cs)
);
}
